G04 #@! TF.GenerationSoftware,KiCad,Pcbnew,(5.0.2)-1*
G04 #@! TF.CreationDate,2018-12-26T19:39:09+05:30*
G04 #@! TF.ProjectId,Air Pollution,41697220-506f-46c6-9c75-74696f6e2e6b,rev?*
G04 #@! TF.SameCoordinates,Original*
G04 #@! TF.FileFunction,Copper,L2,Bot*
G04 #@! TF.FilePolarity,Positive*
%FSLAX46Y46*%
G04 Gerber Fmt 4.6, Leading zero omitted, Abs format (unit mm)*
G04 Created by KiCad (PCBNEW (5.0.2)-1) date 12/26/2018 7:39:09 PM*
%MOMM*%
%LPD*%
G01*
G04 APERTURE LIST*
G04 #@! TA.AperFunction,ConnectorPad*
%ADD10C,1.800000*%
G04 #@! TD*
G04 #@! TA.AperFunction,ComponentPad*
%ADD11C,2.040000*%
G04 #@! TD*
G04 #@! TA.AperFunction,SMDPad,CuDef*
%ADD12R,1.600000X1.800000*%
G04 #@! TD*
G04 #@! TA.AperFunction,SMDPad,CuDef*
%ADD13R,1.400000X1.200000*%
G04 #@! TD*
G04 #@! TA.AperFunction,ComponentPad*
%ADD14C,0.900000*%
G04 #@! TD*
G04 #@! TA.AperFunction,SMDPad,CuDef*
%ADD15R,1.000000X1.250000*%
G04 #@! TD*
G04 #@! TA.AperFunction,SMDPad,CuDef*
%ADD16R,1.500000X0.550000*%
G04 #@! TD*
G04 #@! TA.AperFunction,SMDPad,CuDef*
%ADD17R,0.550000X1.500000*%
G04 #@! TD*
G04 #@! TA.AperFunction,ViaPad*
%ADD18C,0.800000*%
G04 #@! TD*
G04 #@! TA.AperFunction,Conductor*
%ADD19C,0.250000*%
G04 #@! TD*
G04 #@! TA.AperFunction,Conductor*
%ADD20C,1.016000*%
G04 #@! TD*
G04 #@! TA.AperFunction,Conductor*
%ADD21C,0.254000*%
G04 #@! TD*
G04 APERTURE END LIST*
D10*
G04 #@! TO.P,TP10,1*
G04 #@! TO.N,Net-(TP10-Pad1)*
X119380000Y-91389200D03*
G04 #@! TD*
G04 #@! TO.P,TP12,1*
G04 #@! TO.N,Net-(TP12-Pad1)*
X114325400Y-84556600D03*
G04 #@! TD*
D11*
G04 #@! TO.P,U3,3*
G04 #@! TO.N,GNDREF*
X161671000Y-93345000D03*
G04 #@! TO.P,U3,4*
G04 #@! TO.N,Net-(U3-Pad4)*
X154051000Y-93345000D03*
G04 #@! TO.P,U3,2*
G04 #@! TO.N,Net-(U1-Pad1)*
X151061000Y-75345000D03*
G04 #@! TO.P,U3,1*
G04 #@! TO.N,Net-(R1-Pad2)*
X164861000Y-75345000D03*
G04 #@! TD*
D12*
G04 #@! TO.P,R1,2*
G04 #@! TO.N,Net-(R1-Pad2)*
X136156453Y-85946890D03*
G04 #@! TO.P,R1,1*
G04 #@! TO.N,Net-(R1-Pad1)*
X133356453Y-85946890D03*
G04 #@! TD*
G04 #@! TO.P,R2,1*
G04 #@! TO.N,Net-(R2-Pad1)*
X144650000Y-96266000D03*
G04 #@! TO.P,R2,2*
G04 #@! TO.N,Net-(R2-Pad2)*
X147450000Y-96266000D03*
G04 #@! TD*
D13*
G04 #@! TO.P,U8,1*
G04 #@! TO.N,Net-(C1-Pad2)*
X111472800Y-78398000D03*
G04 #@! TO.P,U8,2*
G04 #@! TO.N,GNDREF*
X113672800Y-78398000D03*
G04 #@! TO.P,U8,3*
G04 #@! TO.N,Net-(C2-Pad2)*
X113672800Y-80098000D03*
G04 #@! TO.P,U8,4*
G04 #@! TO.N,GNDREF*
X111472800Y-80098000D03*
G04 #@! TD*
D11*
G04 #@! TO.P,U1,1*
G04 #@! TO.N,Net-(U1-Pad1)*
X146431000Y-76327000D03*
G04 #@! TO.P,U1,2*
G04 #@! TO.N,Net-(SW1-Pad1)*
X146431000Y-68707000D03*
G04 #@! TD*
D14*
G04 #@! TO.P,U7,9*
G04 #@! TO.N,Net-(U4-Pad14)*
X115062000Y-63627000D03*
G04 #@! TO.P,U7,7*
G04 #@! TO.N,Net-(U7-Pad7)*
X113792000Y-63627000D03*
G04 #@! TO.P,U7,4*
G04 #@! TO.N,Net-(U7-Pad4)*
X111252000Y-64897000D03*
G04 #@! TO.P,U7,1*
G04 #@! TO.N,Net-(U3-Pad4)*
X109982000Y-63627000D03*
G04 #@! TO.P,U7,6*
G04 #@! TO.N,Net-(U7-Pad6)*
X112522000Y-64897000D03*
G04 #@! TO.P,U7,10*
G04 #@! TO.N,Net-(U7-Pad10)*
X115062000Y-64897000D03*
G04 #@! TO.P,U7,3*
G04 #@! TO.N,GNDREF*
X111252000Y-63627000D03*
G04 #@! TO.P,U7,5*
G04 #@! TO.N,Net-(U7-Pad5)*
X112522000Y-63627000D03*
G04 #@! TO.P,U7,2*
G04 #@! TO.N,Net-(U7-Pad2)*
X109982000Y-64897000D03*
G04 #@! TO.P,U7,8*
G04 #@! TO.N,Net-(U7-Pad8)*
X113792000Y-64897000D03*
G04 #@! TD*
D11*
G04 #@! TO.P,U6,1*
G04 #@! TO.N,Net-(U4-Pad16)*
X144399000Y-84821900D03*
G04 #@! TO.P,U6,4*
G04 #@! TO.N,Net-(U4-Pad29)*
X147066000Y-87122000D03*
G04 #@! TO.P,U6,3*
G04 #@! TO.N,Net-(U4-Pad17)*
X144526000Y-87122000D03*
G04 #@! TO.P,U6,2*
G04 #@! TO.N,Net-(U4-Pad15)*
X146939000Y-84821900D03*
G04 #@! TO.P,U6,5*
G04 #@! TO.N,GNDREF*
X144526000Y-89662000D03*
G04 #@! TO.P,U6,6*
G04 #@! TO.N,Net-(R2-Pad2)*
X147066000Y-89662000D03*
G04 #@! TD*
D15*
G04 #@! TO.P,C1,1*
G04 #@! TO.N,GNDREF*
X108356453Y-75532890D03*
G04 #@! TO.P,C1,2*
G04 #@! TO.N,Net-(C1-Pad2)*
X110356453Y-75532890D03*
G04 #@! TD*
G04 #@! TO.P,C2,2*
G04 #@! TO.N,Net-(C2-Pad2)*
X114658453Y-75532890D03*
G04 #@! TO.P,C2,1*
G04 #@! TO.N,GNDREF*
X112658453Y-75532890D03*
G04 #@! TD*
D11*
G04 #@! TO.P,SW1,2*
G04 #@! TO.N,Net-(R1-Pad2)*
X159321500Y-97358200D03*
G04 #@! TO.P,SW1,1*
G04 #@! TO.N,Net-(SW1-Pad1)*
X156006800Y-97332800D03*
G04 #@! TD*
D10*
G04 #@! TO.P,TP1,1*
G04 #@! TO.N,Net-(TP1-Pad1)*
X133994453Y-78326890D03*
G04 #@! TD*
G04 #@! TO.P,TP2,1*
G04 #@! TO.N,Net-(TP2-Pad1)*
X131987853Y-74237490D03*
G04 #@! TD*
G04 #@! TO.P,TP3,1*
G04 #@! TO.N,Net-(TP3-Pad1)*
X134248453Y-81628890D03*
G04 #@! TD*
G04 #@! TO.P,TP4,1*
G04 #@! TO.N,Net-(TP4-Pad1)*
X128203253Y-73704090D03*
G04 #@! TD*
G04 #@! TO.P,TP5,1*
G04 #@! TO.N,Net-(TP5-Pad1)*
X133883400Y-90843100D03*
G04 #@! TD*
G04 #@! TO.P,TP6,1*
G04 #@! TO.N,Net-(TP6-Pad1)*
X129819400Y-93510100D03*
G04 #@! TD*
G04 #@! TO.P,TP7,1*
G04 #@! TO.N,Net-(TP7-Pad1)*
X126653853Y-93541490D03*
G04 #@! TD*
G04 #@! TO.P,TP8,1*
G04 #@! TO.N,Net-(TP8-Pad1)*
X123859853Y-93541490D03*
G04 #@! TD*
G04 #@! TO.P,TP9,1*
G04 #@! TO.N,Net-(TP9-Pad1)*
X121065853Y-93541490D03*
G04 #@! TD*
G04 #@! TO.P,TP11,1*
G04 #@! TO.N,Net-(TP11-Pad1)*
X114461853Y-93541490D03*
G04 #@! TD*
D16*
G04 #@! TO.P,U4,1*
G04 #@! TO.N,Net-(R2-Pad1)*
X119280453Y-84936890D03*
G04 #@! TO.P,U4,2*
G04 #@! TO.N,Net-(TP12-Pad1)*
X119280453Y-84136890D03*
G04 #@! TO.P,U4,3*
G04 #@! TO.N,GNDREF*
X119280453Y-83336890D03*
G04 #@! TO.P,U4,4*
G04 #@! TO.N,Net-(U3-Pad4)*
X119280453Y-82536890D03*
G04 #@! TO.P,U4,5*
G04 #@! TO.N,GNDREF*
X119280453Y-81736890D03*
G04 #@! TO.P,U4,6*
G04 #@! TO.N,Net-(U3-Pad4)*
X119280453Y-80936890D03*
G04 #@! TO.P,U4,7*
G04 #@! TO.N,Net-(C1-Pad2)*
X119280453Y-80136890D03*
G04 #@! TO.P,U4,8*
G04 #@! TO.N,Net-(C2-Pad2)*
X119280453Y-79336890D03*
D17*
G04 #@! TO.P,U4,9*
G04 #@! TO.N,Net-(U4-Pad9)*
X120780453Y-77836890D03*
G04 #@! TO.P,U4,10*
G04 #@! TO.N,Net-(U4-Pad10)*
X121580453Y-77836890D03*
G04 #@! TO.P,U4,11*
G04 #@! TO.N,Net-(U4-Pad11)*
X122380453Y-77836890D03*
G04 #@! TO.P,U4,12*
G04 #@! TO.N,Net-(U4-Pad12)*
X123180453Y-77836890D03*
G04 #@! TO.P,U4,13*
G04 #@! TO.N,Net-(U4-Pad13)*
X123980453Y-77836890D03*
G04 #@! TO.P,U4,14*
G04 #@! TO.N,Net-(U4-Pad14)*
X124780453Y-77836890D03*
G04 #@! TO.P,U4,15*
G04 #@! TO.N,Net-(U4-Pad15)*
X125580453Y-77836890D03*
G04 #@! TO.P,U4,16*
G04 #@! TO.N,Net-(U4-Pad16)*
X126380453Y-77836890D03*
D16*
G04 #@! TO.P,U4,17*
G04 #@! TO.N,Net-(U4-Pad17)*
X127880453Y-79336890D03*
G04 #@! TO.P,U4,18*
G04 #@! TO.N,Net-(TP4-Pad1)*
X127880453Y-80136890D03*
G04 #@! TO.P,U4,19*
G04 #@! TO.N,Net-(TP2-Pad1)*
X127880453Y-80936890D03*
G04 #@! TO.P,U4,20*
G04 #@! TO.N,Net-(TP1-Pad1)*
X127880453Y-81736890D03*
G04 #@! TO.P,U4,21*
G04 #@! TO.N,GNDREF*
X127880453Y-82536890D03*
G04 #@! TO.P,U4,22*
G04 #@! TO.N,Net-(TP3-Pad1)*
X127880453Y-83336890D03*
G04 #@! TO.P,U4,23*
G04 #@! TO.N,Net-(U4-Pad23)*
X127880453Y-84136890D03*
G04 #@! TO.P,U4,24*
G04 #@! TO.N,Net-(R1-Pad1)*
X127880453Y-84936890D03*
D17*
G04 #@! TO.P,U4,25*
G04 #@! TO.N,Net-(TP5-Pad1)*
X126380453Y-86436890D03*
G04 #@! TO.P,U4,26*
G04 #@! TO.N,Net-(TP6-Pad1)*
X125580453Y-86436890D03*
G04 #@! TO.P,U4,27*
G04 #@! TO.N,Net-(TP7-Pad1)*
X124780453Y-86436890D03*
G04 #@! TO.P,U4,28*
G04 #@! TO.N,Net-(TP8-Pad1)*
X123980453Y-86436890D03*
G04 #@! TO.P,U4,29*
G04 #@! TO.N,Net-(U4-Pad29)*
X123180453Y-86436890D03*
G04 #@! TO.P,U4,30*
G04 #@! TO.N,Net-(TP9-Pad1)*
X122380453Y-86436890D03*
G04 #@! TO.P,U4,31*
G04 #@! TO.N,Net-(TP10-Pad1)*
X121580453Y-86436890D03*
G04 #@! TO.P,U4,32*
G04 #@! TO.N,Net-(TP11-Pad1)*
X120780453Y-86436890D03*
G04 #@! TD*
D11*
G04 #@! TO.P,U5,1*
G04 #@! TO.N,Net-(U4-Pad11)*
X125064000Y-107982000D03*
G04 #@! TO.P,U5,2*
G04 #@! TO.N,Net-(U4-Pad10)*
X127604000Y-107982000D03*
G04 #@! TO.P,U5,3*
G04 #@! TO.N,Net-(U4-Pad9)*
X130144000Y-107982000D03*
G04 #@! TO.P,U5,4*
G04 #@! TO.N,Net-(U4-Pad13)*
X132684000Y-107982000D03*
G04 #@! TO.P,U5,5*
G04 #@! TO.N,Net-(U4-Pad12)*
X135224000Y-107982000D03*
G04 #@! TO.P,U5,6*
G04 #@! TO.N,Net-(U3-Pad4)*
X137764000Y-107982000D03*
G04 #@! TO.P,U5,7*
G04 #@! TO.N,GNDREF*
X140304000Y-107982000D03*
G04 #@! TO.P,U5,8*
X142844000Y-107982000D03*
G04 #@! TD*
D18*
G04 #@! TO.N,GNDREF*
X112458500Y-73533000D03*
X147955000Y-91630500D03*
X122936000Y-83312000D03*
X125476000Y-82804000D03*
G04 #@! TO.N,Net-(R1-Pad2)*
X144716500Y-100203000D03*
X138366500Y-98425000D03*
G04 #@! TO.N,Net-(U4-Pad13)*
X129349500Y-98107500D03*
X124142500Y-80264000D03*
G04 #@! TO.N,Net-(U4-Pad16)*
X127762000Y-76708000D03*
G04 #@! TO.N,Net-(U4-Pad17)*
X125984000Y-80645000D03*
G04 #@! TO.N,Net-(U4-Pad29)*
X122174000Y-84836000D03*
G04 #@! TO.N,Net-(U3-Pad4)*
X115443000Y-82486500D03*
G04 #@! TO.N,Net-(R2-Pad1)*
X117602000Y-88646000D03*
X145288000Y-93218000D03*
G04 #@! TD*
D19*
G04 #@! TO.N,GNDREF*
X141746497Y-107982000D02*
X142844000Y-107982000D01*
X140304000Y-107982000D02*
X141746497Y-107982000D01*
X112458500Y-75332937D02*
X112658453Y-75532890D01*
X108356453Y-75407890D02*
X108356453Y-75532890D01*
X146494500Y-91630500D02*
X144526000Y-89662000D01*
X147955000Y-91630500D02*
X146494500Y-91630500D01*
D20*
X161671000Y-93345000D02*
X161671000Y-101473000D01*
X161671000Y-101473000D02*
X155162000Y-107982000D01*
D19*
X127867343Y-82550000D02*
X127880453Y-82536890D01*
X122936000Y-83312000D02*
X122936000Y-83312000D01*
X127747564Y-82404001D02*
X127880453Y-82536890D01*
X125875999Y-82404001D02*
X127747564Y-82404001D01*
X125476000Y-82804000D02*
X125875999Y-82404001D01*
D20*
X155162000Y-107982000D02*
X150114000Y-107982000D01*
D19*
X147574000Y-107982000D02*
X146590000Y-107982000D01*
D20*
X147574000Y-107982000D02*
X142844000Y-107982000D01*
X150114000Y-107982000D02*
X147574000Y-107982000D01*
D19*
X142844000Y-104236000D02*
X142844000Y-102362000D01*
X146590000Y-107982000D02*
X142844000Y-104236000D01*
X142844000Y-104140000D02*
X142844000Y-102362000D01*
X142844000Y-102362000D02*
X142844000Y-95758000D01*
X109939616Y-73932999D02*
X109885480Y-73878863D01*
X112458500Y-73533000D02*
X112058501Y-73932999D01*
X109885480Y-73878863D02*
X108356453Y-75407890D01*
X112658453Y-75407890D02*
X112658453Y-75532890D01*
X111368840Y-73932999D02*
X111368840Y-74118277D01*
X111368840Y-73932999D02*
X109939616Y-73932999D01*
X112058501Y-73932999D02*
X111368840Y-73932999D01*
X120280453Y-81736890D02*
X120290923Y-81747360D01*
X119280453Y-81736890D02*
X120280453Y-81736890D01*
X120280453Y-83336890D02*
X120646723Y-83703160D01*
X119280453Y-83336890D02*
X120280453Y-83336890D01*
X121430999Y-83711999D02*
X121422160Y-83703160D01*
X122536001Y-83711999D02*
X121430999Y-83711999D01*
X122936000Y-83312000D02*
X122536001Y-83711999D01*
X120646723Y-83703160D02*
X121422160Y-83703160D01*
X121422160Y-83703160D02*
X121518680Y-83703160D01*
X122536001Y-82912001D02*
X121845121Y-82912001D01*
X122936000Y-83312000D02*
X122536001Y-82912001D01*
X120670010Y-81736890D02*
X119280453Y-81736890D01*
X121845121Y-82912001D02*
X120670010Y-81736890D01*
X112858499Y-73932999D02*
X112858499Y-74872901D01*
X112458500Y-73533000D02*
X112858499Y-73932999D01*
X112658453Y-75072947D02*
X112658453Y-75532890D01*
X112858499Y-74872901D02*
X112658453Y-75072947D01*
X142844000Y-91344000D02*
X144526000Y-89662000D01*
X140970000Y-83566000D02*
X140970000Y-85090000D01*
X140970000Y-89662000D02*
X140970000Y-85090000D01*
X137807889Y-80403889D02*
X140970000Y-83566000D01*
X131281072Y-80403889D02*
X137807889Y-80403889D01*
X129148071Y-82536890D02*
X131281072Y-80403889D01*
X142844000Y-95758000D02*
X142844000Y-91344000D01*
X127880453Y-82536890D02*
X129148071Y-82536890D01*
X142844000Y-91536000D02*
X140970000Y-89662000D01*
X111872800Y-80098000D02*
X113572800Y-78398000D01*
X111472800Y-80098000D02*
X111872800Y-80098000D01*
X113572800Y-78398000D02*
X113672800Y-78398000D01*
X112658453Y-77483653D02*
X113572800Y-78398000D01*
X112658453Y-75532890D02*
X112658453Y-77483653D01*
G04 #@! TO.N,Net-(C1-Pad2)*
X111372800Y-78398000D02*
X111472800Y-78398000D01*
X110356453Y-77381653D02*
X111372800Y-78398000D01*
X110356453Y-75532890D02*
X110356453Y-77381653D01*
X110522800Y-78398000D02*
X109982000Y-78938800D01*
X111472800Y-78398000D02*
X110522800Y-78398000D01*
X109982000Y-78938800D02*
X109982000Y-80568800D01*
X109982000Y-80568800D02*
X110591600Y-81178400D01*
X115442890Y-81178400D02*
X116484400Y-80136890D01*
X110591600Y-81178400D02*
X115442890Y-81178400D01*
X116484400Y-80136890D02*
X119280453Y-80136890D01*
G04 #@! TO.N,Net-(C2-Pad2)*
X119108453Y-79508890D02*
X119280453Y-79336890D01*
X114622800Y-80098000D02*
X113672800Y-80098000D01*
X115618963Y-79101837D02*
X114622800Y-80098000D01*
X114658453Y-75532890D02*
X114658453Y-76407890D01*
X114658453Y-76407890D02*
X115618963Y-77368400D01*
X115911053Y-79336890D02*
X115618963Y-79044800D01*
X119280453Y-79336890D02*
X115911053Y-79336890D01*
X115618963Y-77368400D02*
X115618963Y-79044800D01*
X115618963Y-79044800D02*
X115618963Y-79101837D01*
G04 #@! TO.N,Net-(R1-Pad1)*
X127880453Y-85461890D02*
X127880453Y-84936890D01*
X128365453Y-85946890D02*
X127880453Y-85461890D01*
X133356453Y-85946890D02*
X128365453Y-85946890D01*
G04 #@! TO.N,Net-(R1-Pad2)*
X164861000Y-75345000D02*
X163841001Y-74325001D01*
X159321500Y-98800697D02*
X157919197Y-100203000D01*
X159321500Y-97358200D02*
X159321500Y-98800697D01*
X157919197Y-100203000D02*
X144716500Y-100203000D01*
X144716500Y-100203000D02*
X144716500Y-100203000D01*
X138366500Y-98425000D02*
X138366500Y-98425000D01*
X137596880Y-97655380D02*
X138366500Y-98425000D01*
X137647680Y-86695280D02*
X137596880Y-86746080D01*
X136156453Y-85946890D02*
X136899290Y-85946890D01*
X137596880Y-86662317D02*
X137596880Y-86979760D01*
X136881453Y-85946890D02*
X137596880Y-86662317D01*
X136156453Y-85946890D02*
X136881453Y-85946890D01*
X137596880Y-86746080D02*
X137596880Y-86979760D01*
X137596880Y-86979760D02*
X137596880Y-97655380D01*
G04 #@! TO.N,Net-(TP1-Pad1)*
X128880453Y-81736890D02*
X127880453Y-81736890D01*
X129311661Y-81736890D02*
X128880453Y-81736890D01*
X132721661Y-78326890D02*
X129311661Y-81736890D01*
X133994453Y-78326890D02*
X132721661Y-78326890D01*
G04 #@! TO.N,Net-(TP2-Pad1)*
X128880453Y-80936890D02*
X127880453Y-80936890D01*
X131087854Y-78729489D02*
X128880453Y-80936890D01*
X131087854Y-75137489D02*
X131087854Y-78729489D01*
X131987853Y-74237490D02*
X131087854Y-75137489D01*
G04 #@! TO.N,Net-(TP3-Pad1)*
X128880453Y-83336890D02*
X127880453Y-83336890D01*
X131267661Y-83336890D02*
X128880453Y-83336890D01*
X132975661Y-81628890D02*
X131267661Y-83336890D01*
X134248453Y-81628890D02*
X132975661Y-81628890D01*
G04 #@! TO.N,Net-(TP4-Pad1)*
X128880453Y-80136890D02*
X127880453Y-80136890D01*
X128955454Y-80061889D02*
X128880453Y-80136890D01*
X128955454Y-75729083D02*
X128955454Y-80061889D01*
X128203253Y-74976882D02*
X128955454Y-75729083D01*
X128203253Y-73704090D02*
X128203253Y-74976882D01*
G04 #@! TO.N,Net-(TP5-Pad1)*
X126380453Y-86911890D02*
X126380453Y-86436890D01*
X130311663Y-90843100D02*
X126380453Y-86911890D01*
X133883400Y-90843100D02*
X130311663Y-90843100D01*
G04 #@! TO.N,Net-(TP6-Pad1)*
X125580453Y-89271153D02*
X125580453Y-86436890D01*
X129819400Y-93510100D02*
X125580453Y-89271153D01*
G04 #@! TO.N,Net-(TP7-Pad1)*
X124780453Y-87436890D02*
X124780453Y-86436890D01*
X124780453Y-90395298D02*
X124780453Y-87436890D01*
X126653853Y-92268698D02*
X124780453Y-90395298D01*
X126653853Y-93541490D02*
X126653853Y-92268698D01*
G04 #@! TO.N,Net-(TP8-Pad1)*
X123859853Y-86557490D02*
X123980453Y-86436890D01*
X123859853Y-93541490D02*
X123859853Y-86557490D01*
G04 #@! TO.N,Net-(TP9-Pad1)*
X122380453Y-92226890D02*
X122380453Y-86436890D01*
X121065853Y-93541490D02*
X122380453Y-92226890D01*
G04 #@! TO.N,Net-(TP10-Pad1)*
X121580453Y-89188747D02*
X119380000Y-91389200D01*
X121580453Y-86436890D02*
X121580453Y-89188747D01*
G04 #@! TO.N,Net-(TP11-Pad1)*
X114461853Y-93541490D02*
X115361852Y-92641491D01*
X120780453Y-86436890D02*
X120780453Y-86911890D01*
X120780453Y-87222890D02*
X120780453Y-86436890D01*
X114461853Y-93541490D02*
X120780453Y-87222890D01*
G04 #@! TO.N,Net-(TP12-Pad1)*
X118280453Y-84136890D02*
X119280453Y-84136890D01*
X115995245Y-84136890D02*
X118280453Y-84136890D01*
X115480645Y-84651490D02*
X115995245Y-84136890D01*
X114207853Y-84651490D02*
X115480645Y-84651490D01*
D20*
G04 #@! TO.N,Net-(U1-Pad1)*
X147413000Y-75345000D02*
X146431000Y-76327000D01*
X151061000Y-75345000D02*
X147413000Y-75345000D01*
D19*
G04 #@! TO.N,Net-(U4-Pad9)*
X130144000Y-107982000D02*
X130144000Y-106539503D01*
X122110500Y-96329500D02*
X122110500Y-96329500D01*
X120780453Y-74425453D02*
X120780453Y-77836890D01*
X118935500Y-72580500D02*
X120780453Y-74425453D01*
X108394500Y-72580500D02*
X118935500Y-72580500D01*
X130144000Y-107982000D02*
X130144000Y-101632500D01*
X130144000Y-101632500D02*
X124841000Y-96329500D01*
X124841000Y-96329500D02*
X115436861Y-96329500D01*
X115436861Y-96329500D02*
X107124500Y-88017139D01*
X107124500Y-88017139D02*
X107124500Y-73850500D01*
X107124500Y-73850500D02*
X108394500Y-72580500D01*
G04 #@! TO.N,Net-(U4-Pad10)*
X121580453Y-77836890D02*
X121580453Y-76836890D01*
X127604000Y-107982000D02*
X127604000Y-106539503D01*
X127604000Y-106539503D02*
X127571500Y-106507003D01*
X127571500Y-106507003D02*
X127571500Y-101028500D01*
X127571500Y-101028500D02*
X124460000Y-97917000D01*
X124460000Y-97917000D02*
X115697000Y-97917000D01*
X115697000Y-97917000D02*
X106426000Y-88646000D01*
X106426000Y-88646000D02*
X106426000Y-73533000D01*
X106426000Y-73533000D02*
X108077000Y-71882000D01*
X108077000Y-71882000D02*
X119316500Y-71882000D01*
X121580453Y-74145953D02*
X121580453Y-77836890D01*
X119316500Y-71882000D02*
X121580453Y-74145953D01*
G04 #@! TO.N,Net-(U4-Pad11)*
X125064000Y-107982000D02*
X125064000Y-106539503D01*
X125064000Y-107982000D02*
X125064000Y-101694500D01*
X125064000Y-101694500D02*
X122556500Y-99187000D01*
X122556500Y-99187000D02*
X114935000Y-99187000D01*
X114935000Y-99187000D02*
X113665000Y-97917000D01*
X113665000Y-97917000D02*
X105664000Y-89916000D01*
X105664000Y-89916000D02*
X105664000Y-72898000D01*
X105664000Y-72898000D02*
X107442000Y-71120000D01*
X107442000Y-71120000D02*
X120142000Y-71120000D01*
X120142000Y-71120000D02*
X120205500Y-71120000D01*
X120142000Y-71120000D02*
X122237500Y-73215500D01*
X122380453Y-76836890D02*
X122380453Y-77836890D01*
X122380453Y-76575386D02*
X122380453Y-76836890D01*
X122237500Y-76432433D02*
X122380453Y-76575386D01*
X122237500Y-73215500D02*
X122237500Y-76432433D01*
G04 #@! TO.N,Net-(U4-Pad12)*
X123180453Y-81736890D02*
X123180453Y-77836890D01*
X135224000Y-93884000D02*
X136906000Y-92202000D01*
X135224000Y-107982000D02*
X135224000Y-93884000D01*
X136906000Y-92202000D02*
X136906000Y-91313000D01*
X136906000Y-91313000D02*
X133667500Y-88074500D01*
X133667500Y-88074500D02*
X129518063Y-88074500D01*
X129518063Y-88074500D02*
X123180453Y-81736890D01*
G04 #@! TO.N,Net-(U4-Pad13)*
X132684000Y-107982000D02*
X132684000Y-101442000D01*
X132684000Y-101442000D02*
X129349500Y-98107500D01*
X129349500Y-98107500D02*
X129349500Y-98107500D01*
X124142500Y-77998937D02*
X123980453Y-77836890D01*
X124142500Y-80264000D02*
X124142500Y-77998937D01*
G04 #@! TO.N,Net-(U4-Pad14)*
X115511999Y-64076999D02*
X119194999Y-64076999D01*
X115062000Y-63627000D02*
X115511999Y-64076999D01*
X124780453Y-69662453D02*
X124780453Y-77836890D01*
X119194999Y-64076999D02*
X124780453Y-69662453D01*
G04 #@! TO.N,Net-(U4-Pad15)*
X125580453Y-72095047D02*
X125580453Y-77836890D01*
X127698500Y-69977000D02*
X125580453Y-72095047D01*
X133536597Y-69977000D02*
X127698500Y-69977000D01*
X146939000Y-84821900D02*
X146939000Y-83379403D01*
X146939000Y-83379403D02*
X133536597Y-69977000D01*
G04 #@! TO.N,Net-(U4-Pad16)*
X127509343Y-76708000D02*
X126380453Y-77836890D01*
X127762000Y-76708000D02*
X127509343Y-76708000D01*
G04 #@! TO.N,Net-(U4-Pad17)*
X126880453Y-79336890D02*
X127880453Y-79336890D01*
X126726425Y-79336890D02*
X126880453Y-79336890D01*
X125984000Y-80079315D02*
X125978920Y-80074235D01*
X125984000Y-80645000D02*
X125984000Y-80079315D01*
X125989080Y-80074235D02*
X126726425Y-79336890D01*
X125978920Y-80074235D02*
X125989080Y-80074235D01*
G04 #@! TO.N,Net-(U4-Pad29)*
X123126500Y-86382937D02*
X123180453Y-86436890D01*
X123180453Y-85436890D02*
X123180453Y-86436890D01*
X122979562Y-85235999D02*
X123180453Y-85436890D01*
X122573999Y-85235999D02*
X122979562Y-85235999D01*
X122174000Y-84836000D02*
X122573999Y-85235999D01*
G04 #@! TO.N,Net-(U3-Pad4)*
X119230063Y-82486500D02*
X119280453Y-82536890D01*
X118280453Y-80936890D02*
X118205452Y-81011891D01*
X116992610Y-80936890D02*
X118618000Y-80936890D01*
X115443000Y-82486500D02*
X116992610Y-80936890D01*
X119280453Y-80936890D02*
X118618000Y-80936890D01*
X118618000Y-80936890D02*
X118280453Y-80936890D01*
X115493390Y-82536890D02*
X115443000Y-82486500D01*
X115443000Y-82486500D02*
X116019580Y-83063080D01*
X116019580Y-83063080D02*
X117175280Y-83063080D01*
X117701470Y-82536890D02*
X119280453Y-82536890D01*
X117175280Y-83063080D02*
X117701470Y-82536890D01*
G04 #@! TO.N,Net-(R2-Pad2)*
X147450000Y-96166000D02*
X147450000Y-96266000D01*
X148680001Y-94935999D02*
X147450000Y-96166000D01*
X148680001Y-91276001D02*
X148680001Y-94935999D01*
X147066000Y-89662000D02*
X148680001Y-91276001D01*
G04 #@! TO.N,Net-(R2-Pad1)*
X119280453Y-86967547D02*
X117602000Y-88646000D01*
X119280453Y-84936890D02*
X119280453Y-86967547D01*
X144650000Y-95116000D02*
X145288000Y-94478000D01*
X144650000Y-96266000D02*
X144650000Y-95116000D01*
X145288000Y-94478000D02*
X145288000Y-93218000D01*
X145288000Y-93218000D02*
X145288000Y-93218000D01*
G04 #@! TD*
D21*
G04 #@! TO.N,GNDREF*
G36*
X107851828Y-57463000D02*
X155804897Y-57463000D01*
X155811641Y-57463996D01*
X155826712Y-57465102D01*
X157176975Y-57542958D01*
X158482037Y-57770727D01*
X159752258Y-58146984D01*
X160970813Y-58666742D01*
X162121560Y-59323115D01*
X163189234Y-60107400D01*
X164159696Y-61009208D01*
X165020069Y-62016574D01*
X165758959Y-63116159D01*
X166366569Y-64293382D01*
X166834846Y-65532643D01*
X167157580Y-66817500D01*
X167331158Y-68135955D01*
X167356095Y-68816031D01*
X167344436Y-68873198D01*
X167184177Y-101949842D01*
X167188344Y-101971332D01*
X167118784Y-102962934D01*
X166895170Y-104004881D01*
X166526974Y-105004929D01*
X166021549Y-105943110D01*
X165388970Y-106800725D01*
X164641864Y-107560650D01*
X163795134Y-108207728D01*
X162865684Y-108729042D01*
X161872049Y-109114195D01*
X160834065Y-109355501D01*
X159758162Y-109449392D01*
X159595792Y-109450206D01*
X159595676Y-109450215D01*
X143620364Y-109463461D01*
X143730284Y-109417931D01*
X143831395Y-109149001D01*
X142844000Y-108161605D01*
X141856605Y-109149001D01*
X141957716Y-109417931D01*
X142083344Y-109464736D01*
X141075269Y-109465572D01*
X141190284Y-109417931D01*
X141291395Y-109149001D01*
X140304000Y-108161605D01*
X139316605Y-109149001D01*
X139417716Y-109417931D01*
X139548984Y-109466837D01*
X111420630Y-109490161D01*
X111417265Y-109489519D01*
X111402254Y-109487782D01*
X110056427Y-109353450D01*
X108762061Y-109071234D01*
X107508708Y-108642114D01*
X106312973Y-108071779D01*
X105190735Y-107367799D01*
X104156835Y-106539490D01*
X103224992Y-105597839D01*
X102407556Y-104555323D01*
X101715360Y-103425762D01*
X101157583Y-102224136D01*
X100741609Y-100966347D01*
X100472963Y-99669102D01*
X100354300Y-98339508D01*
X100350145Y-98075035D01*
X100357000Y-98040573D01*
X100357000Y-72898000D01*
X105148087Y-72898000D01*
X105158001Y-72947839D01*
X105158000Y-89866166D01*
X105148087Y-89916000D01*
X105158000Y-89965834D01*
X105187359Y-90113430D01*
X105299194Y-90280806D01*
X105341448Y-90309039D01*
X113342442Y-98310034D01*
X113342445Y-98310036D01*
X114541963Y-99509555D01*
X114570194Y-99551806D01*
X114737569Y-99663641D01*
X114885165Y-99693000D01*
X114934999Y-99702913D01*
X114984833Y-99693000D01*
X122346909Y-99693000D01*
X124558001Y-101904094D01*
X124558000Y-106675161D01*
X124270397Y-106794290D01*
X123876290Y-107188397D01*
X123663000Y-107703324D01*
X123663000Y-108260676D01*
X123876290Y-108775603D01*
X124270397Y-109169710D01*
X124785324Y-109383000D01*
X125342676Y-109383000D01*
X125857603Y-109169710D01*
X126251710Y-108775603D01*
X126334000Y-108576938D01*
X126416290Y-108775603D01*
X126810397Y-109169710D01*
X127325324Y-109383000D01*
X127882676Y-109383000D01*
X128397603Y-109169710D01*
X128791710Y-108775603D01*
X128874000Y-108576938D01*
X128956290Y-108775603D01*
X129350397Y-109169710D01*
X129865324Y-109383000D01*
X130422676Y-109383000D01*
X130937603Y-109169710D01*
X131331710Y-108775603D01*
X131414000Y-108576938D01*
X131496290Y-108775603D01*
X131890397Y-109169710D01*
X132405324Y-109383000D01*
X132962676Y-109383000D01*
X133477603Y-109169710D01*
X133871710Y-108775603D01*
X133954000Y-108576938D01*
X134036290Y-108775603D01*
X134430397Y-109169710D01*
X134945324Y-109383000D01*
X135502676Y-109383000D01*
X136017603Y-109169710D01*
X136411710Y-108775603D01*
X136494000Y-108576938D01*
X136576290Y-108775603D01*
X136970397Y-109169710D01*
X137485324Y-109383000D01*
X138042676Y-109383000D01*
X138557603Y-109169710D01*
X138865421Y-108861892D01*
X138868069Y-108868284D01*
X139136999Y-108969395D01*
X140124395Y-107982000D01*
X140483605Y-107982000D01*
X141471001Y-108969395D01*
X141574000Y-108930670D01*
X141676999Y-108969395D01*
X142664395Y-107982000D01*
X143023605Y-107982000D01*
X144011001Y-108969395D01*
X144279931Y-108868284D01*
X144509794Y-108251313D01*
X144486054Y-107593341D01*
X144279931Y-107095716D01*
X144011001Y-106994605D01*
X143023605Y-107982000D01*
X142664395Y-107982000D01*
X141676999Y-106994605D01*
X141574000Y-107033330D01*
X141471001Y-106994605D01*
X140483605Y-107982000D01*
X140124395Y-107982000D01*
X139136999Y-106994605D01*
X138868069Y-107095716D01*
X138865615Y-107102302D01*
X138578312Y-106814999D01*
X139316605Y-106814999D01*
X140304000Y-107802395D01*
X141291395Y-106814999D01*
X141856605Y-106814999D01*
X142844000Y-107802395D01*
X143831395Y-106814999D01*
X143730284Y-106546069D01*
X143113313Y-106316206D01*
X142455341Y-106339946D01*
X141957716Y-106546069D01*
X141856605Y-106814999D01*
X141291395Y-106814999D01*
X141190284Y-106546069D01*
X140573313Y-106316206D01*
X139915341Y-106339946D01*
X139417716Y-106546069D01*
X139316605Y-106814999D01*
X138578312Y-106814999D01*
X138557603Y-106794290D01*
X138042676Y-106581000D01*
X137485324Y-106581000D01*
X136970397Y-106794290D01*
X136576290Y-107188397D01*
X136494000Y-107387062D01*
X136411710Y-107188397D01*
X136017603Y-106794290D01*
X135730000Y-106675161D01*
X135730000Y-100047649D01*
X143935500Y-100047649D01*
X143935500Y-100358351D01*
X144054400Y-100645401D01*
X144274099Y-100865100D01*
X144561149Y-100984000D01*
X144871851Y-100984000D01*
X145158901Y-100865100D01*
X145315001Y-100709000D01*
X157869363Y-100709000D01*
X157919197Y-100718913D01*
X157969031Y-100709000D01*
X157969032Y-100709000D01*
X158116628Y-100679641D01*
X158284003Y-100567806D01*
X158312236Y-100525553D01*
X159644055Y-99193734D01*
X159686306Y-99165503D01*
X159798141Y-98998128D01*
X159827500Y-98850532D01*
X159827500Y-98850531D01*
X159837413Y-98800697D01*
X159827500Y-98750863D01*
X159827500Y-98665039D01*
X160115103Y-98545910D01*
X160509210Y-98151803D01*
X160722500Y-97636876D01*
X160722500Y-97079524D01*
X160509210Y-96564597D01*
X160115103Y-96170490D01*
X159600176Y-95957200D01*
X159042824Y-95957200D01*
X158527897Y-96170490D01*
X158133790Y-96564597D01*
X157920500Y-97079524D01*
X157920500Y-97636876D01*
X158133790Y-98151803D01*
X158527897Y-98545910D01*
X158763221Y-98643384D01*
X157709606Y-99697000D01*
X145315001Y-99697000D01*
X145158901Y-99540900D01*
X144871851Y-99422000D01*
X144561149Y-99422000D01*
X144274099Y-99540900D01*
X144054400Y-99760599D01*
X143935500Y-100047649D01*
X135730000Y-100047649D01*
X135730000Y-94093591D01*
X137090881Y-92732711D01*
X137090881Y-97605541D01*
X137080967Y-97655380D01*
X137098336Y-97742694D01*
X137120240Y-97852811D01*
X137232075Y-98020186D01*
X137274325Y-98048416D01*
X137585500Y-98359591D01*
X137585500Y-98580351D01*
X137704400Y-98867401D01*
X137924099Y-99087100D01*
X138211149Y-99206000D01*
X138521851Y-99206000D01*
X138808901Y-99087100D01*
X139028600Y-98867401D01*
X139147500Y-98580351D01*
X139147500Y-98269649D01*
X139028600Y-97982599D01*
X138808901Y-97762900D01*
X138521851Y-97644000D01*
X138301091Y-97644000D01*
X138102880Y-97445789D01*
X138102880Y-95366000D01*
X143461536Y-95366000D01*
X143461536Y-97166000D01*
X143491106Y-97314659D01*
X143575314Y-97440686D01*
X143701341Y-97524894D01*
X143850000Y-97554464D01*
X145450000Y-97554464D01*
X145598659Y-97524894D01*
X145724686Y-97440686D01*
X145808894Y-97314659D01*
X145838464Y-97166000D01*
X145838464Y-95366000D01*
X145808894Y-95217341D01*
X145724686Y-95091314D01*
X145598659Y-95007106D01*
X145495087Y-94986504D01*
X145610556Y-94871036D01*
X145652806Y-94842806D01*
X145764641Y-94675431D01*
X145794000Y-94527835D01*
X145794000Y-94527834D01*
X145803913Y-94478001D01*
X145794000Y-94428167D01*
X145794000Y-93816501D01*
X145950100Y-93660401D01*
X146069000Y-93373351D01*
X146069000Y-93062649D01*
X145950100Y-92775599D01*
X145730401Y-92555900D01*
X145443351Y-92437000D01*
X145132649Y-92437000D01*
X144845599Y-92555900D01*
X144625900Y-92775599D01*
X144507000Y-93062649D01*
X144507000Y-93373351D01*
X144625900Y-93660401D01*
X144782001Y-93816502D01*
X144782000Y-94268408D01*
X144327445Y-94722964D01*
X144285195Y-94751194D01*
X144223983Y-94842806D01*
X144173360Y-94918569D01*
X144161630Y-94977536D01*
X143850000Y-94977536D01*
X143701341Y-95007106D01*
X143575314Y-95091314D01*
X143491106Y-95217341D01*
X143461536Y-95366000D01*
X138102880Y-95366000D01*
X138102880Y-90829001D01*
X143538605Y-90829001D01*
X143639716Y-91097931D01*
X144256687Y-91327794D01*
X144914659Y-91304054D01*
X145412284Y-91097931D01*
X145513395Y-90829001D01*
X144526000Y-89841605D01*
X143538605Y-90829001D01*
X138102880Y-90829001D01*
X138102880Y-89392687D01*
X142860206Y-89392687D01*
X142883946Y-90050659D01*
X143090069Y-90548284D01*
X143358999Y-90649395D01*
X144346395Y-89662000D01*
X143358999Y-88674605D01*
X143090069Y-88775716D01*
X142860206Y-89392687D01*
X138102880Y-89392687D01*
X138102880Y-86924798D01*
X138124320Y-86892711D01*
X138163593Y-86695281D01*
X138124320Y-86497849D01*
X138012485Y-86330475D01*
X137916488Y-86266332D01*
X137344917Y-85694763D01*
X137344917Y-85046890D01*
X137315347Y-84898231D01*
X137231139Y-84772204D01*
X137105112Y-84687996D01*
X136956453Y-84658426D01*
X135356453Y-84658426D01*
X135207794Y-84687996D01*
X135081767Y-84772204D01*
X134997559Y-84898231D01*
X134967989Y-85046890D01*
X134967989Y-86846890D01*
X134997559Y-86995549D01*
X135081767Y-87121576D01*
X135207794Y-87205784D01*
X135356453Y-87235354D01*
X136956453Y-87235354D01*
X137090880Y-87208615D01*
X137090880Y-90782288D01*
X134060539Y-87751948D01*
X134032306Y-87709694D01*
X133864931Y-87597859D01*
X133717335Y-87568500D01*
X133717334Y-87568500D01*
X133667500Y-87558587D01*
X133617666Y-87568500D01*
X129727655Y-87568500D01*
X128612045Y-86452890D01*
X132167989Y-86452890D01*
X132167989Y-86846890D01*
X132197559Y-86995549D01*
X132281767Y-87121576D01*
X132407794Y-87205784D01*
X132556453Y-87235354D01*
X134156453Y-87235354D01*
X134305112Y-87205784D01*
X134431139Y-87121576D01*
X134515347Y-86995549D01*
X134544917Y-86846890D01*
X134544917Y-85046890D01*
X134515347Y-84898231D01*
X134431139Y-84772204D01*
X134305112Y-84687996D01*
X134156453Y-84658426D01*
X132556453Y-84658426D01*
X132407794Y-84687996D01*
X132281767Y-84772204D01*
X132197559Y-84898231D01*
X132167989Y-85046890D01*
X132167989Y-85440890D01*
X128935665Y-85440890D01*
X128989347Y-85360549D01*
X129018917Y-85211890D01*
X129018917Y-84661890D01*
X128994053Y-84536890D01*
X129018917Y-84411890D01*
X129018917Y-83861890D01*
X129015138Y-83842890D01*
X131217827Y-83842890D01*
X131267661Y-83852803D01*
X131317495Y-83842890D01*
X131317496Y-83842890D01*
X131465092Y-83813531D01*
X131632467Y-83701696D01*
X131660700Y-83659443D01*
X133104818Y-82215325D01*
X133162474Y-82354518D01*
X133522825Y-82714869D01*
X133993646Y-82909890D01*
X134503260Y-82909890D01*
X134974081Y-82714869D01*
X135334432Y-82354518D01*
X135529453Y-81883697D01*
X135529453Y-81374083D01*
X135334432Y-80903262D01*
X134974081Y-80542911D01*
X134503260Y-80347890D01*
X133993646Y-80347890D01*
X133522825Y-80542911D01*
X133162474Y-80903262D01*
X133071501Y-81122890D01*
X133025496Y-81122890D01*
X132975661Y-81112977D01*
X132778229Y-81152249D01*
X132725915Y-81187204D01*
X132610855Y-81264084D01*
X132582624Y-81306335D01*
X131058070Y-82830890D01*
X129265453Y-82830890D01*
X129265453Y-82822640D01*
X129106703Y-82663890D01*
X128007453Y-82663890D01*
X128007453Y-82673426D01*
X127753453Y-82673426D01*
X127753453Y-82663890D01*
X126654203Y-82663890D01*
X126495453Y-82822640D01*
X126495453Y-82938200D01*
X126592126Y-83171589D01*
X126741989Y-83321451D01*
X126741989Y-83611890D01*
X126766853Y-83736890D01*
X126741989Y-83861890D01*
X126741989Y-84411890D01*
X126766853Y-84536890D01*
X126755105Y-84595951D01*
X123686453Y-81527299D01*
X123686453Y-80912454D01*
X123700099Y-80926100D01*
X123987149Y-81045000D01*
X124297851Y-81045000D01*
X124584901Y-80926100D01*
X124804600Y-80706401D01*
X124923500Y-80419351D01*
X124923500Y-80108649D01*
X124804600Y-79821599D01*
X124648500Y-79665499D01*
X124648500Y-78975354D01*
X125055453Y-78975354D01*
X125180453Y-78950490D01*
X125305453Y-78975354D01*
X125855453Y-78975354D01*
X125980453Y-78950490D01*
X126105453Y-78975354D01*
X126359434Y-78975354D01*
X126333388Y-79014335D01*
X125686985Y-79660739D01*
X125614114Y-79709429D01*
X125502279Y-79876804D01*
X125466171Y-80058328D01*
X125321900Y-80202599D01*
X125203000Y-80489649D01*
X125203000Y-80800351D01*
X125321900Y-81087401D01*
X125541599Y-81307100D01*
X125828649Y-81426000D01*
X126139351Y-81426000D01*
X126426401Y-81307100D01*
X126646100Y-81087401D01*
X126741989Y-80855904D01*
X126741989Y-81211890D01*
X126766853Y-81336890D01*
X126741989Y-81461890D01*
X126741989Y-81752329D01*
X126592126Y-81902191D01*
X126495453Y-82135580D01*
X126495453Y-82251140D01*
X126654203Y-82409890D01*
X127753453Y-82409890D01*
X127753453Y-82400354D01*
X128007453Y-82400354D01*
X128007453Y-82409890D01*
X129106703Y-82409890D01*
X129265453Y-82251140D01*
X129265453Y-82243611D01*
X129311661Y-82252803D01*
X129361495Y-82242890D01*
X129361496Y-82242890D01*
X129509092Y-82213531D01*
X129676467Y-82101696D01*
X129704700Y-82059442D01*
X132850818Y-78913325D01*
X132908474Y-79052518D01*
X133268825Y-79412869D01*
X133739646Y-79607890D01*
X134249260Y-79607890D01*
X134720081Y-79412869D01*
X135080432Y-79052518D01*
X135275453Y-78581697D01*
X135275453Y-78072083D01*
X135080432Y-77601262D01*
X134720081Y-77240911D01*
X134249260Y-77045890D01*
X133739646Y-77045890D01*
X133268825Y-77240911D01*
X132908474Y-77601262D01*
X132817501Y-77820890D01*
X132771494Y-77820890D01*
X132721660Y-77810977D01*
X132671826Y-77820890D01*
X132524230Y-77850249D01*
X132356855Y-77962084D01*
X132328624Y-78004335D01*
X131603718Y-78729242D01*
X131593854Y-78679656D01*
X131593854Y-75460835D01*
X131733046Y-75518490D01*
X132242660Y-75518490D01*
X132713481Y-75323469D01*
X133073832Y-74963118D01*
X133268853Y-74492297D01*
X133268853Y-73982683D01*
X133073832Y-73511862D01*
X132713481Y-73151511D01*
X132242660Y-72956490D01*
X131733046Y-72956490D01*
X131262225Y-73151511D01*
X130901874Y-73511862D01*
X130706853Y-73982683D01*
X130706853Y-74492297D01*
X130797826Y-74711926D01*
X130765301Y-74744451D01*
X130723048Y-74772683D01*
X130611213Y-74940059D01*
X130588101Y-75056249D01*
X130571941Y-75137489D01*
X130581854Y-75187323D01*
X130581855Y-78519896D01*
X129461454Y-79640298D01*
X129461454Y-75778917D01*
X129471367Y-75729083D01*
X129450400Y-75623676D01*
X129432095Y-75531652D01*
X129320260Y-75364277D01*
X129278010Y-75336047D01*
X128789687Y-74847725D01*
X128928881Y-74790069D01*
X129289232Y-74429718D01*
X129484253Y-73958897D01*
X129484253Y-73449283D01*
X129289232Y-72978462D01*
X128928881Y-72618111D01*
X128458060Y-72423090D01*
X127948446Y-72423090D01*
X127477625Y-72618111D01*
X127117274Y-72978462D01*
X126922253Y-73449283D01*
X126922253Y-73958897D01*
X127117274Y-74429718D01*
X127477625Y-74790069D01*
X127697254Y-74881043D01*
X127697254Y-74927043D01*
X127687340Y-74976882D01*
X127703128Y-75056249D01*
X127726613Y-75174313D01*
X127838448Y-75341688D01*
X127880698Y-75369918D01*
X128449454Y-75938675D01*
X128449454Y-76326809D01*
X128424100Y-76265599D01*
X128204401Y-76045900D01*
X127917351Y-75927000D01*
X127606649Y-75927000D01*
X127319599Y-76045900D01*
X127099900Y-76265599D01*
X127003556Y-76498195D01*
X126778791Y-76722959D01*
X126655453Y-76698426D01*
X126105453Y-76698426D01*
X126086453Y-76702205D01*
X126086453Y-72304638D01*
X127908092Y-70483000D01*
X133327006Y-70483000D01*
X146380721Y-83536716D01*
X146145397Y-83634190D01*
X145751290Y-84028297D01*
X145669000Y-84226962D01*
X145586710Y-84028297D01*
X145192603Y-83634190D01*
X144677676Y-83420900D01*
X144120324Y-83420900D01*
X143605397Y-83634190D01*
X143211290Y-84028297D01*
X142998000Y-84543224D01*
X142998000Y-85100576D01*
X143211290Y-85615503D01*
X143605397Y-86009610D01*
X143641940Y-86024747D01*
X143338290Y-86328397D01*
X143125000Y-86843324D01*
X143125000Y-87400676D01*
X143338290Y-87915603D01*
X143646108Y-88223421D01*
X143639716Y-88226069D01*
X143538605Y-88494999D01*
X144526000Y-89482395D01*
X145513395Y-88494999D01*
X145412284Y-88226069D01*
X145405698Y-88223615D01*
X145713710Y-87915603D01*
X145796000Y-87716938D01*
X145878290Y-87915603D01*
X146272397Y-88309710D01*
X146471062Y-88392000D01*
X146272397Y-88474290D01*
X145964579Y-88782108D01*
X145961931Y-88775716D01*
X145693001Y-88674605D01*
X144705605Y-89662000D01*
X145693001Y-90649395D01*
X145961931Y-90548284D01*
X145964385Y-90541698D01*
X146272397Y-90849710D01*
X146787324Y-91063000D01*
X147344676Y-91063000D01*
X147632279Y-90943871D01*
X148174001Y-91485593D01*
X148174002Y-94726406D01*
X147922872Y-94977536D01*
X146650000Y-94977536D01*
X146501341Y-95007106D01*
X146375314Y-95091314D01*
X146291106Y-95217341D01*
X146261536Y-95366000D01*
X146261536Y-97166000D01*
X146291106Y-97314659D01*
X146375314Y-97440686D01*
X146501341Y-97524894D01*
X146650000Y-97554464D01*
X148250000Y-97554464D01*
X148398659Y-97524894D01*
X148524686Y-97440686D01*
X148608894Y-97314659D01*
X148638464Y-97166000D01*
X148638464Y-97054124D01*
X154605800Y-97054124D01*
X154605800Y-97611476D01*
X154819090Y-98126403D01*
X155213197Y-98520510D01*
X155728124Y-98733800D01*
X156285476Y-98733800D01*
X156800403Y-98520510D01*
X157194510Y-98126403D01*
X157407800Y-97611476D01*
X157407800Y-97054124D01*
X157194510Y-96539197D01*
X156800403Y-96145090D01*
X156285476Y-95931800D01*
X155728124Y-95931800D01*
X155213197Y-96145090D01*
X154819090Y-96539197D01*
X154605800Y-97054124D01*
X148638464Y-97054124D01*
X148638464Y-95693128D01*
X149002556Y-95329036D01*
X149044807Y-95300805D01*
X149156642Y-95133430D01*
X149186001Y-94985834D01*
X149195914Y-94936000D01*
X149186001Y-94886166D01*
X149186001Y-93066324D01*
X152650000Y-93066324D01*
X152650000Y-93623676D01*
X152863290Y-94138603D01*
X153257397Y-94532710D01*
X153772324Y-94746000D01*
X154329676Y-94746000D01*
X154844603Y-94532710D01*
X154865312Y-94512001D01*
X160683605Y-94512001D01*
X160784716Y-94780931D01*
X161401687Y-95010794D01*
X162059659Y-94987054D01*
X162557284Y-94780931D01*
X162658395Y-94512001D01*
X161671000Y-93524605D01*
X160683605Y-94512001D01*
X154865312Y-94512001D01*
X155238710Y-94138603D01*
X155452000Y-93623676D01*
X155452000Y-93075687D01*
X160005206Y-93075687D01*
X160028946Y-93733659D01*
X160235069Y-94231284D01*
X160503999Y-94332395D01*
X161491395Y-93345000D01*
X161850605Y-93345000D01*
X162838001Y-94332395D01*
X163106931Y-94231284D01*
X163336794Y-93614313D01*
X163313054Y-92956341D01*
X163106931Y-92458716D01*
X162838001Y-92357605D01*
X161850605Y-93345000D01*
X161491395Y-93345000D01*
X160503999Y-92357605D01*
X160235069Y-92458716D01*
X160005206Y-93075687D01*
X155452000Y-93075687D01*
X155452000Y-93066324D01*
X155238710Y-92551397D01*
X154865312Y-92177999D01*
X160683605Y-92177999D01*
X161671000Y-93165395D01*
X162658395Y-92177999D01*
X162557284Y-91909069D01*
X161940313Y-91679206D01*
X161282341Y-91702946D01*
X160784716Y-91909069D01*
X160683605Y-92177999D01*
X154865312Y-92177999D01*
X154844603Y-92157290D01*
X154329676Y-91944000D01*
X153772324Y-91944000D01*
X153257397Y-92157290D01*
X152863290Y-92551397D01*
X152650000Y-93066324D01*
X149186001Y-93066324D01*
X149186001Y-91325834D01*
X149195914Y-91276000D01*
X149167746Y-91134393D01*
X149156642Y-91078570D01*
X149044807Y-90911195D01*
X149002557Y-90882965D01*
X148347871Y-90228279D01*
X148467000Y-89940676D01*
X148467000Y-89383324D01*
X148253710Y-88868397D01*
X147859603Y-88474290D01*
X147660938Y-88392000D01*
X147859603Y-88309710D01*
X148253710Y-87915603D01*
X148467000Y-87400676D01*
X148467000Y-86843324D01*
X148253710Y-86328397D01*
X147859603Y-85934290D01*
X147823060Y-85919153D01*
X148126710Y-85615503D01*
X148340000Y-85100576D01*
X148340000Y-84543224D01*
X148126710Y-84028297D01*
X147732603Y-83634190D01*
X147445000Y-83515061D01*
X147445000Y-83429236D01*
X147454913Y-83379402D01*
X147434265Y-83275600D01*
X147415641Y-83181972D01*
X147303806Y-83014597D01*
X147261555Y-82986366D01*
X140323513Y-76048324D01*
X145030000Y-76048324D01*
X145030000Y-76605676D01*
X145243290Y-77120603D01*
X145637397Y-77514710D01*
X146152324Y-77728000D01*
X146709676Y-77728000D01*
X147224603Y-77514710D01*
X147618710Y-77120603D01*
X147832000Y-76605676D01*
X147832000Y-76234000D01*
X149968687Y-76234000D01*
X150267397Y-76532710D01*
X150782324Y-76746000D01*
X151339676Y-76746000D01*
X151854603Y-76532710D01*
X152248710Y-76138603D01*
X152462000Y-75623676D01*
X152462000Y-75066324D01*
X152248710Y-74551397D01*
X152022314Y-74325001D01*
X163325088Y-74325001D01*
X163364361Y-74522432D01*
X163447967Y-74647558D01*
X163579129Y-74778721D01*
X163460000Y-75066324D01*
X163460000Y-75623676D01*
X163673290Y-76138603D01*
X164067397Y-76532710D01*
X164582324Y-76746000D01*
X165139676Y-76746000D01*
X165654603Y-76532710D01*
X166048710Y-76138603D01*
X166262000Y-75623676D01*
X166262000Y-75066324D01*
X166048710Y-74551397D01*
X165654603Y-74157290D01*
X165139676Y-73944000D01*
X164582324Y-73944000D01*
X164294721Y-74063129D01*
X164163558Y-73931967D01*
X164038432Y-73848361D01*
X163841001Y-73809088D01*
X163643570Y-73848361D01*
X163476196Y-73960196D01*
X163364361Y-74127570D01*
X163325088Y-74325001D01*
X152022314Y-74325001D01*
X151854603Y-74157290D01*
X151339676Y-73944000D01*
X150782324Y-73944000D01*
X150267397Y-74157290D01*
X149968687Y-74456000D01*
X147500555Y-74456000D01*
X147413000Y-74438584D01*
X147325445Y-74456000D01*
X147325444Y-74456000D01*
X147066130Y-74507581D01*
X146772067Y-74704067D01*
X146722471Y-74778294D01*
X146574764Y-74926000D01*
X146152324Y-74926000D01*
X145637397Y-75139290D01*
X145243290Y-75533397D01*
X145030000Y-76048324D01*
X140323513Y-76048324D01*
X133929636Y-69654448D01*
X133901403Y-69612194D01*
X133734028Y-69500359D01*
X133586432Y-69471000D01*
X133586431Y-69471000D01*
X133536597Y-69461087D01*
X133486763Y-69471000D01*
X127748335Y-69471000D01*
X127698500Y-69461087D01*
X127501068Y-69500359D01*
X127446281Y-69536967D01*
X127333694Y-69612194D01*
X127305463Y-69654445D01*
X125286453Y-71673456D01*
X125286453Y-69712288D01*
X125296366Y-69662453D01*
X125257094Y-69465021D01*
X125183782Y-69355302D01*
X125145259Y-69297647D01*
X125103009Y-69269417D01*
X124261916Y-68428324D01*
X145030000Y-68428324D01*
X145030000Y-68985676D01*
X145243290Y-69500603D01*
X145637397Y-69894710D01*
X146152324Y-70108000D01*
X146709676Y-70108000D01*
X147224603Y-69894710D01*
X147618710Y-69500603D01*
X147832000Y-68985676D01*
X147832000Y-68428324D01*
X147618710Y-67913397D01*
X147224603Y-67519290D01*
X146709676Y-67306000D01*
X146152324Y-67306000D01*
X145637397Y-67519290D01*
X145243290Y-67913397D01*
X145030000Y-68428324D01*
X124261916Y-68428324D01*
X119588038Y-63754447D01*
X119559805Y-63712193D01*
X119392430Y-63600358D01*
X119244834Y-63570999D01*
X119244833Y-63570999D01*
X119194999Y-63561086D01*
X119145165Y-63570999D01*
X115893000Y-63570999D01*
X115893000Y-63461704D01*
X115766488Y-63156276D01*
X115532724Y-62922512D01*
X115227296Y-62796000D01*
X114896704Y-62796000D01*
X114591276Y-62922512D01*
X114427000Y-63086788D01*
X114262724Y-62922512D01*
X113957296Y-62796000D01*
X113626704Y-62796000D01*
X113321276Y-62922512D01*
X113157000Y-63086788D01*
X112992724Y-62922512D01*
X112687296Y-62796000D01*
X112356704Y-62796000D01*
X112051276Y-62922512D01*
X111817512Y-63156276D01*
X111757538Y-63301067D01*
X111431605Y-63627000D01*
X111445748Y-63641143D01*
X111266143Y-63820748D01*
X111252000Y-63806605D01*
X111237858Y-63820748D01*
X111058253Y-63641143D01*
X111072395Y-63627000D01*
X110746462Y-63301067D01*
X110686488Y-63156276D01*
X110452724Y-62922512D01*
X110333807Y-62873255D01*
X110677860Y-62873255D01*
X111252000Y-63447395D01*
X111826140Y-62873255D01*
X111795197Y-62663288D01*
X111385052Y-62528774D01*
X110954651Y-62561454D01*
X110708803Y-62663288D01*
X110677860Y-62873255D01*
X110333807Y-62873255D01*
X110147296Y-62796000D01*
X109816704Y-62796000D01*
X109511276Y-62922512D01*
X109277512Y-63156276D01*
X109151000Y-63461704D01*
X109151000Y-63792296D01*
X109277512Y-64097724D01*
X109441788Y-64262000D01*
X109277512Y-64426276D01*
X109151000Y-64731704D01*
X109151000Y-65062296D01*
X109277512Y-65367724D01*
X109511276Y-65601488D01*
X109816704Y-65728000D01*
X110147296Y-65728000D01*
X110452724Y-65601488D01*
X110617000Y-65437212D01*
X110781276Y-65601488D01*
X111086704Y-65728000D01*
X111417296Y-65728000D01*
X111722724Y-65601488D01*
X111887000Y-65437212D01*
X112051276Y-65601488D01*
X112356704Y-65728000D01*
X112687296Y-65728000D01*
X112992724Y-65601488D01*
X113157000Y-65437212D01*
X113321276Y-65601488D01*
X113626704Y-65728000D01*
X113957296Y-65728000D01*
X114262724Y-65601488D01*
X114427000Y-65437212D01*
X114591276Y-65601488D01*
X114896704Y-65728000D01*
X115227296Y-65728000D01*
X115532724Y-65601488D01*
X115766488Y-65367724D01*
X115893000Y-65062296D01*
X115893000Y-64731704D01*
X115831405Y-64582999D01*
X118985408Y-64582999D01*
X124274453Y-69872045D01*
X124274454Y-76702205D01*
X124255453Y-76698426D01*
X123705453Y-76698426D01*
X123580453Y-76723290D01*
X123455453Y-76698426D01*
X122905453Y-76698426D01*
X122886453Y-76702205D01*
X122886453Y-76625219D01*
X122896366Y-76575385D01*
X122877843Y-76482268D01*
X122857094Y-76377955D01*
X122745259Y-76210580D01*
X122743500Y-76209405D01*
X122743500Y-73265335D01*
X122753413Y-73215500D01*
X122714141Y-73018069D01*
X122630535Y-72892942D01*
X122602306Y-72850694D01*
X122560059Y-72822466D01*
X120687599Y-70950008D01*
X120682141Y-70922569D01*
X120570306Y-70755194D01*
X120402931Y-70643359D01*
X120255335Y-70614000D01*
X120191834Y-70614000D01*
X120142000Y-70604087D01*
X120092166Y-70614000D01*
X107491835Y-70614000D01*
X107442000Y-70604087D01*
X107244568Y-70643359D01*
X107189781Y-70679967D01*
X107077194Y-70755194D01*
X107048963Y-70797445D01*
X105341445Y-72504963D01*
X105299195Y-72533194D01*
X105267587Y-72580500D01*
X105187360Y-72700569D01*
X105148087Y-72898000D01*
X100357000Y-72898000D01*
X100357000Y-64960132D01*
X100429419Y-63927766D01*
X100653030Y-62885825D01*
X101021229Y-61885771D01*
X101526654Y-60947590D01*
X102159233Y-60089975D01*
X102906336Y-59330053D01*
X103753061Y-58682977D01*
X104682517Y-58161659D01*
X105676156Y-57776504D01*
X106714138Y-57535199D01*
X107757188Y-57444175D01*
X107851828Y-57463000D01*
X107851828Y-57463000D01*
G37*
X107851828Y-57463000D02*
X155804897Y-57463000D01*
X155811641Y-57463996D01*
X155826712Y-57465102D01*
X157176975Y-57542958D01*
X158482037Y-57770727D01*
X159752258Y-58146984D01*
X160970813Y-58666742D01*
X162121560Y-59323115D01*
X163189234Y-60107400D01*
X164159696Y-61009208D01*
X165020069Y-62016574D01*
X165758959Y-63116159D01*
X166366569Y-64293382D01*
X166834846Y-65532643D01*
X167157580Y-66817500D01*
X167331158Y-68135955D01*
X167356095Y-68816031D01*
X167344436Y-68873198D01*
X167184177Y-101949842D01*
X167188344Y-101971332D01*
X167118784Y-102962934D01*
X166895170Y-104004881D01*
X166526974Y-105004929D01*
X166021549Y-105943110D01*
X165388970Y-106800725D01*
X164641864Y-107560650D01*
X163795134Y-108207728D01*
X162865684Y-108729042D01*
X161872049Y-109114195D01*
X160834065Y-109355501D01*
X159758162Y-109449392D01*
X159595792Y-109450206D01*
X159595676Y-109450215D01*
X143620364Y-109463461D01*
X143730284Y-109417931D01*
X143831395Y-109149001D01*
X142844000Y-108161605D01*
X141856605Y-109149001D01*
X141957716Y-109417931D01*
X142083344Y-109464736D01*
X141075269Y-109465572D01*
X141190284Y-109417931D01*
X141291395Y-109149001D01*
X140304000Y-108161605D01*
X139316605Y-109149001D01*
X139417716Y-109417931D01*
X139548984Y-109466837D01*
X111420630Y-109490161D01*
X111417265Y-109489519D01*
X111402254Y-109487782D01*
X110056427Y-109353450D01*
X108762061Y-109071234D01*
X107508708Y-108642114D01*
X106312973Y-108071779D01*
X105190735Y-107367799D01*
X104156835Y-106539490D01*
X103224992Y-105597839D01*
X102407556Y-104555323D01*
X101715360Y-103425762D01*
X101157583Y-102224136D01*
X100741609Y-100966347D01*
X100472963Y-99669102D01*
X100354300Y-98339508D01*
X100350145Y-98075035D01*
X100357000Y-98040573D01*
X100357000Y-72898000D01*
X105148087Y-72898000D01*
X105158001Y-72947839D01*
X105158000Y-89866166D01*
X105148087Y-89916000D01*
X105158000Y-89965834D01*
X105187359Y-90113430D01*
X105299194Y-90280806D01*
X105341448Y-90309039D01*
X113342442Y-98310034D01*
X113342445Y-98310036D01*
X114541963Y-99509555D01*
X114570194Y-99551806D01*
X114737569Y-99663641D01*
X114885165Y-99693000D01*
X114934999Y-99702913D01*
X114984833Y-99693000D01*
X122346909Y-99693000D01*
X124558001Y-101904094D01*
X124558000Y-106675161D01*
X124270397Y-106794290D01*
X123876290Y-107188397D01*
X123663000Y-107703324D01*
X123663000Y-108260676D01*
X123876290Y-108775603D01*
X124270397Y-109169710D01*
X124785324Y-109383000D01*
X125342676Y-109383000D01*
X125857603Y-109169710D01*
X126251710Y-108775603D01*
X126334000Y-108576938D01*
X126416290Y-108775603D01*
X126810397Y-109169710D01*
X127325324Y-109383000D01*
X127882676Y-109383000D01*
X128397603Y-109169710D01*
X128791710Y-108775603D01*
X128874000Y-108576938D01*
X128956290Y-108775603D01*
X129350397Y-109169710D01*
X129865324Y-109383000D01*
X130422676Y-109383000D01*
X130937603Y-109169710D01*
X131331710Y-108775603D01*
X131414000Y-108576938D01*
X131496290Y-108775603D01*
X131890397Y-109169710D01*
X132405324Y-109383000D01*
X132962676Y-109383000D01*
X133477603Y-109169710D01*
X133871710Y-108775603D01*
X133954000Y-108576938D01*
X134036290Y-108775603D01*
X134430397Y-109169710D01*
X134945324Y-109383000D01*
X135502676Y-109383000D01*
X136017603Y-109169710D01*
X136411710Y-108775603D01*
X136494000Y-108576938D01*
X136576290Y-108775603D01*
X136970397Y-109169710D01*
X137485324Y-109383000D01*
X138042676Y-109383000D01*
X138557603Y-109169710D01*
X138865421Y-108861892D01*
X138868069Y-108868284D01*
X139136999Y-108969395D01*
X140124395Y-107982000D01*
X140483605Y-107982000D01*
X141471001Y-108969395D01*
X141574000Y-108930670D01*
X141676999Y-108969395D01*
X142664395Y-107982000D01*
X143023605Y-107982000D01*
X144011001Y-108969395D01*
X144279931Y-108868284D01*
X144509794Y-108251313D01*
X144486054Y-107593341D01*
X144279931Y-107095716D01*
X144011001Y-106994605D01*
X143023605Y-107982000D01*
X142664395Y-107982000D01*
X141676999Y-106994605D01*
X141574000Y-107033330D01*
X141471001Y-106994605D01*
X140483605Y-107982000D01*
X140124395Y-107982000D01*
X139136999Y-106994605D01*
X138868069Y-107095716D01*
X138865615Y-107102302D01*
X138578312Y-106814999D01*
X139316605Y-106814999D01*
X140304000Y-107802395D01*
X141291395Y-106814999D01*
X141856605Y-106814999D01*
X142844000Y-107802395D01*
X143831395Y-106814999D01*
X143730284Y-106546069D01*
X143113313Y-106316206D01*
X142455341Y-106339946D01*
X141957716Y-106546069D01*
X141856605Y-106814999D01*
X141291395Y-106814999D01*
X141190284Y-106546069D01*
X140573313Y-106316206D01*
X139915341Y-106339946D01*
X139417716Y-106546069D01*
X139316605Y-106814999D01*
X138578312Y-106814999D01*
X138557603Y-106794290D01*
X138042676Y-106581000D01*
X137485324Y-106581000D01*
X136970397Y-106794290D01*
X136576290Y-107188397D01*
X136494000Y-107387062D01*
X136411710Y-107188397D01*
X136017603Y-106794290D01*
X135730000Y-106675161D01*
X135730000Y-100047649D01*
X143935500Y-100047649D01*
X143935500Y-100358351D01*
X144054400Y-100645401D01*
X144274099Y-100865100D01*
X144561149Y-100984000D01*
X144871851Y-100984000D01*
X145158901Y-100865100D01*
X145315001Y-100709000D01*
X157869363Y-100709000D01*
X157919197Y-100718913D01*
X157969031Y-100709000D01*
X157969032Y-100709000D01*
X158116628Y-100679641D01*
X158284003Y-100567806D01*
X158312236Y-100525553D01*
X159644055Y-99193734D01*
X159686306Y-99165503D01*
X159798141Y-98998128D01*
X159827500Y-98850532D01*
X159827500Y-98850531D01*
X159837413Y-98800697D01*
X159827500Y-98750863D01*
X159827500Y-98665039D01*
X160115103Y-98545910D01*
X160509210Y-98151803D01*
X160722500Y-97636876D01*
X160722500Y-97079524D01*
X160509210Y-96564597D01*
X160115103Y-96170490D01*
X159600176Y-95957200D01*
X159042824Y-95957200D01*
X158527897Y-96170490D01*
X158133790Y-96564597D01*
X157920500Y-97079524D01*
X157920500Y-97636876D01*
X158133790Y-98151803D01*
X158527897Y-98545910D01*
X158763221Y-98643384D01*
X157709606Y-99697000D01*
X145315001Y-99697000D01*
X145158901Y-99540900D01*
X144871851Y-99422000D01*
X144561149Y-99422000D01*
X144274099Y-99540900D01*
X144054400Y-99760599D01*
X143935500Y-100047649D01*
X135730000Y-100047649D01*
X135730000Y-94093591D01*
X137090881Y-92732711D01*
X137090881Y-97605541D01*
X137080967Y-97655380D01*
X137098336Y-97742694D01*
X137120240Y-97852811D01*
X137232075Y-98020186D01*
X137274325Y-98048416D01*
X137585500Y-98359591D01*
X137585500Y-98580351D01*
X137704400Y-98867401D01*
X137924099Y-99087100D01*
X138211149Y-99206000D01*
X138521851Y-99206000D01*
X138808901Y-99087100D01*
X139028600Y-98867401D01*
X139147500Y-98580351D01*
X139147500Y-98269649D01*
X139028600Y-97982599D01*
X138808901Y-97762900D01*
X138521851Y-97644000D01*
X138301091Y-97644000D01*
X138102880Y-97445789D01*
X138102880Y-95366000D01*
X143461536Y-95366000D01*
X143461536Y-97166000D01*
X143491106Y-97314659D01*
X143575314Y-97440686D01*
X143701341Y-97524894D01*
X143850000Y-97554464D01*
X145450000Y-97554464D01*
X145598659Y-97524894D01*
X145724686Y-97440686D01*
X145808894Y-97314659D01*
X145838464Y-97166000D01*
X145838464Y-95366000D01*
X145808894Y-95217341D01*
X145724686Y-95091314D01*
X145598659Y-95007106D01*
X145495087Y-94986504D01*
X145610556Y-94871036D01*
X145652806Y-94842806D01*
X145764641Y-94675431D01*
X145794000Y-94527835D01*
X145794000Y-94527834D01*
X145803913Y-94478001D01*
X145794000Y-94428167D01*
X145794000Y-93816501D01*
X145950100Y-93660401D01*
X146069000Y-93373351D01*
X146069000Y-93062649D01*
X145950100Y-92775599D01*
X145730401Y-92555900D01*
X145443351Y-92437000D01*
X145132649Y-92437000D01*
X144845599Y-92555900D01*
X144625900Y-92775599D01*
X144507000Y-93062649D01*
X144507000Y-93373351D01*
X144625900Y-93660401D01*
X144782001Y-93816502D01*
X144782000Y-94268408D01*
X144327445Y-94722964D01*
X144285195Y-94751194D01*
X144223983Y-94842806D01*
X144173360Y-94918569D01*
X144161630Y-94977536D01*
X143850000Y-94977536D01*
X143701341Y-95007106D01*
X143575314Y-95091314D01*
X143491106Y-95217341D01*
X143461536Y-95366000D01*
X138102880Y-95366000D01*
X138102880Y-90829001D01*
X143538605Y-90829001D01*
X143639716Y-91097931D01*
X144256687Y-91327794D01*
X144914659Y-91304054D01*
X145412284Y-91097931D01*
X145513395Y-90829001D01*
X144526000Y-89841605D01*
X143538605Y-90829001D01*
X138102880Y-90829001D01*
X138102880Y-89392687D01*
X142860206Y-89392687D01*
X142883946Y-90050659D01*
X143090069Y-90548284D01*
X143358999Y-90649395D01*
X144346395Y-89662000D01*
X143358999Y-88674605D01*
X143090069Y-88775716D01*
X142860206Y-89392687D01*
X138102880Y-89392687D01*
X138102880Y-86924798D01*
X138124320Y-86892711D01*
X138163593Y-86695281D01*
X138124320Y-86497849D01*
X138012485Y-86330475D01*
X137916488Y-86266332D01*
X137344917Y-85694763D01*
X137344917Y-85046890D01*
X137315347Y-84898231D01*
X137231139Y-84772204D01*
X137105112Y-84687996D01*
X136956453Y-84658426D01*
X135356453Y-84658426D01*
X135207794Y-84687996D01*
X135081767Y-84772204D01*
X134997559Y-84898231D01*
X134967989Y-85046890D01*
X134967989Y-86846890D01*
X134997559Y-86995549D01*
X135081767Y-87121576D01*
X135207794Y-87205784D01*
X135356453Y-87235354D01*
X136956453Y-87235354D01*
X137090880Y-87208615D01*
X137090880Y-90782288D01*
X134060539Y-87751948D01*
X134032306Y-87709694D01*
X133864931Y-87597859D01*
X133717335Y-87568500D01*
X133717334Y-87568500D01*
X133667500Y-87558587D01*
X133617666Y-87568500D01*
X129727655Y-87568500D01*
X128612045Y-86452890D01*
X132167989Y-86452890D01*
X132167989Y-86846890D01*
X132197559Y-86995549D01*
X132281767Y-87121576D01*
X132407794Y-87205784D01*
X132556453Y-87235354D01*
X134156453Y-87235354D01*
X134305112Y-87205784D01*
X134431139Y-87121576D01*
X134515347Y-86995549D01*
X134544917Y-86846890D01*
X134544917Y-85046890D01*
X134515347Y-84898231D01*
X134431139Y-84772204D01*
X134305112Y-84687996D01*
X134156453Y-84658426D01*
X132556453Y-84658426D01*
X132407794Y-84687996D01*
X132281767Y-84772204D01*
X132197559Y-84898231D01*
X132167989Y-85046890D01*
X132167989Y-85440890D01*
X128935665Y-85440890D01*
X128989347Y-85360549D01*
X129018917Y-85211890D01*
X129018917Y-84661890D01*
X128994053Y-84536890D01*
X129018917Y-84411890D01*
X129018917Y-83861890D01*
X129015138Y-83842890D01*
X131217827Y-83842890D01*
X131267661Y-83852803D01*
X131317495Y-83842890D01*
X131317496Y-83842890D01*
X131465092Y-83813531D01*
X131632467Y-83701696D01*
X131660700Y-83659443D01*
X133104818Y-82215325D01*
X133162474Y-82354518D01*
X133522825Y-82714869D01*
X133993646Y-82909890D01*
X134503260Y-82909890D01*
X134974081Y-82714869D01*
X135334432Y-82354518D01*
X135529453Y-81883697D01*
X135529453Y-81374083D01*
X135334432Y-80903262D01*
X134974081Y-80542911D01*
X134503260Y-80347890D01*
X133993646Y-80347890D01*
X133522825Y-80542911D01*
X133162474Y-80903262D01*
X133071501Y-81122890D01*
X133025496Y-81122890D01*
X132975661Y-81112977D01*
X132778229Y-81152249D01*
X132725915Y-81187204D01*
X132610855Y-81264084D01*
X132582624Y-81306335D01*
X131058070Y-82830890D01*
X129265453Y-82830890D01*
X129265453Y-82822640D01*
X129106703Y-82663890D01*
X128007453Y-82663890D01*
X128007453Y-82673426D01*
X127753453Y-82673426D01*
X127753453Y-82663890D01*
X126654203Y-82663890D01*
X126495453Y-82822640D01*
X126495453Y-82938200D01*
X126592126Y-83171589D01*
X126741989Y-83321451D01*
X126741989Y-83611890D01*
X126766853Y-83736890D01*
X126741989Y-83861890D01*
X126741989Y-84411890D01*
X126766853Y-84536890D01*
X126755105Y-84595951D01*
X123686453Y-81527299D01*
X123686453Y-80912454D01*
X123700099Y-80926100D01*
X123987149Y-81045000D01*
X124297851Y-81045000D01*
X124584901Y-80926100D01*
X124804600Y-80706401D01*
X124923500Y-80419351D01*
X124923500Y-80108649D01*
X124804600Y-79821599D01*
X124648500Y-79665499D01*
X124648500Y-78975354D01*
X125055453Y-78975354D01*
X125180453Y-78950490D01*
X125305453Y-78975354D01*
X125855453Y-78975354D01*
X125980453Y-78950490D01*
X126105453Y-78975354D01*
X126359434Y-78975354D01*
X126333388Y-79014335D01*
X125686985Y-79660739D01*
X125614114Y-79709429D01*
X125502279Y-79876804D01*
X125466171Y-80058328D01*
X125321900Y-80202599D01*
X125203000Y-80489649D01*
X125203000Y-80800351D01*
X125321900Y-81087401D01*
X125541599Y-81307100D01*
X125828649Y-81426000D01*
X126139351Y-81426000D01*
X126426401Y-81307100D01*
X126646100Y-81087401D01*
X126741989Y-80855904D01*
X126741989Y-81211890D01*
X126766853Y-81336890D01*
X126741989Y-81461890D01*
X126741989Y-81752329D01*
X126592126Y-81902191D01*
X126495453Y-82135580D01*
X126495453Y-82251140D01*
X126654203Y-82409890D01*
X127753453Y-82409890D01*
X127753453Y-82400354D01*
X128007453Y-82400354D01*
X128007453Y-82409890D01*
X129106703Y-82409890D01*
X129265453Y-82251140D01*
X129265453Y-82243611D01*
X129311661Y-82252803D01*
X129361495Y-82242890D01*
X129361496Y-82242890D01*
X129509092Y-82213531D01*
X129676467Y-82101696D01*
X129704700Y-82059442D01*
X132850818Y-78913325D01*
X132908474Y-79052518D01*
X133268825Y-79412869D01*
X133739646Y-79607890D01*
X134249260Y-79607890D01*
X134720081Y-79412869D01*
X135080432Y-79052518D01*
X135275453Y-78581697D01*
X135275453Y-78072083D01*
X135080432Y-77601262D01*
X134720081Y-77240911D01*
X134249260Y-77045890D01*
X133739646Y-77045890D01*
X133268825Y-77240911D01*
X132908474Y-77601262D01*
X132817501Y-77820890D01*
X132771494Y-77820890D01*
X132721660Y-77810977D01*
X132671826Y-77820890D01*
X132524230Y-77850249D01*
X132356855Y-77962084D01*
X132328624Y-78004335D01*
X131603718Y-78729242D01*
X131593854Y-78679656D01*
X131593854Y-75460835D01*
X131733046Y-75518490D01*
X132242660Y-75518490D01*
X132713481Y-75323469D01*
X133073832Y-74963118D01*
X133268853Y-74492297D01*
X133268853Y-73982683D01*
X133073832Y-73511862D01*
X132713481Y-73151511D01*
X132242660Y-72956490D01*
X131733046Y-72956490D01*
X131262225Y-73151511D01*
X130901874Y-73511862D01*
X130706853Y-73982683D01*
X130706853Y-74492297D01*
X130797826Y-74711926D01*
X130765301Y-74744451D01*
X130723048Y-74772683D01*
X130611213Y-74940059D01*
X130588101Y-75056249D01*
X130571941Y-75137489D01*
X130581854Y-75187323D01*
X130581855Y-78519896D01*
X129461454Y-79640298D01*
X129461454Y-75778917D01*
X129471367Y-75729083D01*
X129450400Y-75623676D01*
X129432095Y-75531652D01*
X129320260Y-75364277D01*
X129278010Y-75336047D01*
X128789687Y-74847725D01*
X128928881Y-74790069D01*
X129289232Y-74429718D01*
X129484253Y-73958897D01*
X129484253Y-73449283D01*
X129289232Y-72978462D01*
X128928881Y-72618111D01*
X128458060Y-72423090D01*
X127948446Y-72423090D01*
X127477625Y-72618111D01*
X127117274Y-72978462D01*
X126922253Y-73449283D01*
X126922253Y-73958897D01*
X127117274Y-74429718D01*
X127477625Y-74790069D01*
X127697254Y-74881043D01*
X127697254Y-74927043D01*
X127687340Y-74976882D01*
X127703128Y-75056249D01*
X127726613Y-75174313D01*
X127838448Y-75341688D01*
X127880698Y-75369918D01*
X128449454Y-75938675D01*
X128449454Y-76326809D01*
X128424100Y-76265599D01*
X128204401Y-76045900D01*
X127917351Y-75927000D01*
X127606649Y-75927000D01*
X127319599Y-76045900D01*
X127099900Y-76265599D01*
X127003556Y-76498195D01*
X126778791Y-76722959D01*
X126655453Y-76698426D01*
X126105453Y-76698426D01*
X126086453Y-76702205D01*
X126086453Y-72304638D01*
X127908092Y-70483000D01*
X133327006Y-70483000D01*
X146380721Y-83536716D01*
X146145397Y-83634190D01*
X145751290Y-84028297D01*
X145669000Y-84226962D01*
X145586710Y-84028297D01*
X145192603Y-83634190D01*
X144677676Y-83420900D01*
X144120324Y-83420900D01*
X143605397Y-83634190D01*
X143211290Y-84028297D01*
X142998000Y-84543224D01*
X142998000Y-85100576D01*
X143211290Y-85615503D01*
X143605397Y-86009610D01*
X143641940Y-86024747D01*
X143338290Y-86328397D01*
X143125000Y-86843324D01*
X143125000Y-87400676D01*
X143338290Y-87915603D01*
X143646108Y-88223421D01*
X143639716Y-88226069D01*
X143538605Y-88494999D01*
X144526000Y-89482395D01*
X145513395Y-88494999D01*
X145412284Y-88226069D01*
X145405698Y-88223615D01*
X145713710Y-87915603D01*
X145796000Y-87716938D01*
X145878290Y-87915603D01*
X146272397Y-88309710D01*
X146471062Y-88392000D01*
X146272397Y-88474290D01*
X145964579Y-88782108D01*
X145961931Y-88775716D01*
X145693001Y-88674605D01*
X144705605Y-89662000D01*
X145693001Y-90649395D01*
X145961931Y-90548284D01*
X145964385Y-90541698D01*
X146272397Y-90849710D01*
X146787324Y-91063000D01*
X147344676Y-91063000D01*
X147632279Y-90943871D01*
X148174001Y-91485593D01*
X148174002Y-94726406D01*
X147922872Y-94977536D01*
X146650000Y-94977536D01*
X146501341Y-95007106D01*
X146375314Y-95091314D01*
X146291106Y-95217341D01*
X146261536Y-95366000D01*
X146261536Y-97166000D01*
X146291106Y-97314659D01*
X146375314Y-97440686D01*
X146501341Y-97524894D01*
X146650000Y-97554464D01*
X148250000Y-97554464D01*
X148398659Y-97524894D01*
X148524686Y-97440686D01*
X148608894Y-97314659D01*
X148638464Y-97166000D01*
X148638464Y-97054124D01*
X154605800Y-97054124D01*
X154605800Y-97611476D01*
X154819090Y-98126403D01*
X155213197Y-98520510D01*
X155728124Y-98733800D01*
X156285476Y-98733800D01*
X156800403Y-98520510D01*
X157194510Y-98126403D01*
X157407800Y-97611476D01*
X157407800Y-97054124D01*
X157194510Y-96539197D01*
X156800403Y-96145090D01*
X156285476Y-95931800D01*
X155728124Y-95931800D01*
X155213197Y-96145090D01*
X154819090Y-96539197D01*
X154605800Y-97054124D01*
X148638464Y-97054124D01*
X148638464Y-95693128D01*
X149002556Y-95329036D01*
X149044807Y-95300805D01*
X149156642Y-95133430D01*
X149186001Y-94985834D01*
X149195914Y-94936000D01*
X149186001Y-94886166D01*
X149186001Y-93066324D01*
X152650000Y-93066324D01*
X152650000Y-93623676D01*
X152863290Y-94138603D01*
X153257397Y-94532710D01*
X153772324Y-94746000D01*
X154329676Y-94746000D01*
X154844603Y-94532710D01*
X154865312Y-94512001D01*
X160683605Y-94512001D01*
X160784716Y-94780931D01*
X161401687Y-95010794D01*
X162059659Y-94987054D01*
X162557284Y-94780931D01*
X162658395Y-94512001D01*
X161671000Y-93524605D01*
X160683605Y-94512001D01*
X154865312Y-94512001D01*
X155238710Y-94138603D01*
X155452000Y-93623676D01*
X155452000Y-93075687D01*
X160005206Y-93075687D01*
X160028946Y-93733659D01*
X160235069Y-94231284D01*
X160503999Y-94332395D01*
X161491395Y-93345000D01*
X161850605Y-93345000D01*
X162838001Y-94332395D01*
X163106931Y-94231284D01*
X163336794Y-93614313D01*
X163313054Y-92956341D01*
X163106931Y-92458716D01*
X162838001Y-92357605D01*
X161850605Y-93345000D01*
X161491395Y-93345000D01*
X160503999Y-92357605D01*
X160235069Y-92458716D01*
X160005206Y-93075687D01*
X155452000Y-93075687D01*
X155452000Y-93066324D01*
X155238710Y-92551397D01*
X154865312Y-92177999D01*
X160683605Y-92177999D01*
X161671000Y-93165395D01*
X162658395Y-92177999D01*
X162557284Y-91909069D01*
X161940313Y-91679206D01*
X161282341Y-91702946D01*
X160784716Y-91909069D01*
X160683605Y-92177999D01*
X154865312Y-92177999D01*
X154844603Y-92157290D01*
X154329676Y-91944000D01*
X153772324Y-91944000D01*
X153257397Y-92157290D01*
X152863290Y-92551397D01*
X152650000Y-93066324D01*
X149186001Y-93066324D01*
X149186001Y-91325834D01*
X149195914Y-91276000D01*
X149167746Y-91134393D01*
X149156642Y-91078570D01*
X149044807Y-90911195D01*
X149002557Y-90882965D01*
X148347871Y-90228279D01*
X148467000Y-89940676D01*
X148467000Y-89383324D01*
X148253710Y-88868397D01*
X147859603Y-88474290D01*
X147660938Y-88392000D01*
X147859603Y-88309710D01*
X148253710Y-87915603D01*
X148467000Y-87400676D01*
X148467000Y-86843324D01*
X148253710Y-86328397D01*
X147859603Y-85934290D01*
X147823060Y-85919153D01*
X148126710Y-85615503D01*
X148340000Y-85100576D01*
X148340000Y-84543224D01*
X148126710Y-84028297D01*
X147732603Y-83634190D01*
X147445000Y-83515061D01*
X147445000Y-83429236D01*
X147454913Y-83379402D01*
X147434265Y-83275600D01*
X147415641Y-83181972D01*
X147303806Y-83014597D01*
X147261555Y-82986366D01*
X140323513Y-76048324D01*
X145030000Y-76048324D01*
X145030000Y-76605676D01*
X145243290Y-77120603D01*
X145637397Y-77514710D01*
X146152324Y-77728000D01*
X146709676Y-77728000D01*
X147224603Y-77514710D01*
X147618710Y-77120603D01*
X147832000Y-76605676D01*
X147832000Y-76234000D01*
X149968687Y-76234000D01*
X150267397Y-76532710D01*
X150782324Y-76746000D01*
X151339676Y-76746000D01*
X151854603Y-76532710D01*
X152248710Y-76138603D01*
X152462000Y-75623676D01*
X152462000Y-75066324D01*
X152248710Y-74551397D01*
X152022314Y-74325001D01*
X163325088Y-74325001D01*
X163364361Y-74522432D01*
X163447967Y-74647558D01*
X163579129Y-74778721D01*
X163460000Y-75066324D01*
X163460000Y-75623676D01*
X163673290Y-76138603D01*
X164067397Y-76532710D01*
X164582324Y-76746000D01*
X165139676Y-76746000D01*
X165654603Y-76532710D01*
X166048710Y-76138603D01*
X166262000Y-75623676D01*
X166262000Y-75066324D01*
X166048710Y-74551397D01*
X165654603Y-74157290D01*
X165139676Y-73944000D01*
X164582324Y-73944000D01*
X164294721Y-74063129D01*
X164163558Y-73931967D01*
X164038432Y-73848361D01*
X163841001Y-73809088D01*
X163643570Y-73848361D01*
X163476196Y-73960196D01*
X163364361Y-74127570D01*
X163325088Y-74325001D01*
X152022314Y-74325001D01*
X151854603Y-74157290D01*
X151339676Y-73944000D01*
X150782324Y-73944000D01*
X150267397Y-74157290D01*
X149968687Y-74456000D01*
X147500555Y-74456000D01*
X147413000Y-74438584D01*
X147325445Y-74456000D01*
X147325444Y-74456000D01*
X147066130Y-74507581D01*
X146772067Y-74704067D01*
X146722471Y-74778294D01*
X146574764Y-74926000D01*
X146152324Y-74926000D01*
X145637397Y-75139290D01*
X145243290Y-75533397D01*
X145030000Y-76048324D01*
X140323513Y-76048324D01*
X133929636Y-69654448D01*
X133901403Y-69612194D01*
X133734028Y-69500359D01*
X133586432Y-69471000D01*
X133586431Y-69471000D01*
X133536597Y-69461087D01*
X133486763Y-69471000D01*
X127748335Y-69471000D01*
X127698500Y-69461087D01*
X127501068Y-69500359D01*
X127446281Y-69536967D01*
X127333694Y-69612194D01*
X127305463Y-69654445D01*
X125286453Y-71673456D01*
X125286453Y-69712288D01*
X125296366Y-69662453D01*
X125257094Y-69465021D01*
X125183782Y-69355302D01*
X125145259Y-69297647D01*
X125103009Y-69269417D01*
X124261916Y-68428324D01*
X145030000Y-68428324D01*
X145030000Y-68985676D01*
X145243290Y-69500603D01*
X145637397Y-69894710D01*
X146152324Y-70108000D01*
X146709676Y-70108000D01*
X147224603Y-69894710D01*
X147618710Y-69500603D01*
X147832000Y-68985676D01*
X147832000Y-68428324D01*
X147618710Y-67913397D01*
X147224603Y-67519290D01*
X146709676Y-67306000D01*
X146152324Y-67306000D01*
X145637397Y-67519290D01*
X145243290Y-67913397D01*
X145030000Y-68428324D01*
X124261916Y-68428324D01*
X119588038Y-63754447D01*
X119559805Y-63712193D01*
X119392430Y-63600358D01*
X119244834Y-63570999D01*
X119244833Y-63570999D01*
X119194999Y-63561086D01*
X119145165Y-63570999D01*
X115893000Y-63570999D01*
X115893000Y-63461704D01*
X115766488Y-63156276D01*
X115532724Y-62922512D01*
X115227296Y-62796000D01*
X114896704Y-62796000D01*
X114591276Y-62922512D01*
X114427000Y-63086788D01*
X114262724Y-62922512D01*
X113957296Y-62796000D01*
X113626704Y-62796000D01*
X113321276Y-62922512D01*
X113157000Y-63086788D01*
X112992724Y-62922512D01*
X112687296Y-62796000D01*
X112356704Y-62796000D01*
X112051276Y-62922512D01*
X111817512Y-63156276D01*
X111757538Y-63301067D01*
X111431605Y-63627000D01*
X111445748Y-63641143D01*
X111266143Y-63820748D01*
X111252000Y-63806605D01*
X111237858Y-63820748D01*
X111058253Y-63641143D01*
X111072395Y-63627000D01*
X110746462Y-63301067D01*
X110686488Y-63156276D01*
X110452724Y-62922512D01*
X110333807Y-62873255D01*
X110677860Y-62873255D01*
X111252000Y-63447395D01*
X111826140Y-62873255D01*
X111795197Y-62663288D01*
X111385052Y-62528774D01*
X110954651Y-62561454D01*
X110708803Y-62663288D01*
X110677860Y-62873255D01*
X110333807Y-62873255D01*
X110147296Y-62796000D01*
X109816704Y-62796000D01*
X109511276Y-62922512D01*
X109277512Y-63156276D01*
X109151000Y-63461704D01*
X109151000Y-63792296D01*
X109277512Y-64097724D01*
X109441788Y-64262000D01*
X109277512Y-64426276D01*
X109151000Y-64731704D01*
X109151000Y-65062296D01*
X109277512Y-65367724D01*
X109511276Y-65601488D01*
X109816704Y-65728000D01*
X110147296Y-65728000D01*
X110452724Y-65601488D01*
X110617000Y-65437212D01*
X110781276Y-65601488D01*
X111086704Y-65728000D01*
X111417296Y-65728000D01*
X111722724Y-65601488D01*
X111887000Y-65437212D01*
X112051276Y-65601488D01*
X112356704Y-65728000D01*
X112687296Y-65728000D01*
X112992724Y-65601488D01*
X113157000Y-65437212D01*
X113321276Y-65601488D01*
X113626704Y-65728000D01*
X113957296Y-65728000D01*
X114262724Y-65601488D01*
X114427000Y-65437212D01*
X114591276Y-65601488D01*
X114896704Y-65728000D01*
X115227296Y-65728000D01*
X115532724Y-65601488D01*
X115766488Y-65367724D01*
X115893000Y-65062296D01*
X115893000Y-64731704D01*
X115831405Y-64582999D01*
X118985408Y-64582999D01*
X124274453Y-69872045D01*
X124274454Y-76702205D01*
X124255453Y-76698426D01*
X123705453Y-76698426D01*
X123580453Y-76723290D01*
X123455453Y-76698426D01*
X122905453Y-76698426D01*
X122886453Y-76702205D01*
X122886453Y-76625219D01*
X122896366Y-76575385D01*
X122877843Y-76482268D01*
X122857094Y-76377955D01*
X122745259Y-76210580D01*
X122743500Y-76209405D01*
X122743500Y-73265335D01*
X122753413Y-73215500D01*
X122714141Y-73018069D01*
X122630535Y-72892942D01*
X122602306Y-72850694D01*
X122560059Y-72822466D01*
X120687599Y-70950008D01*
X120682141Y-70922569D01*
X120570306Y-70755194D01*
X120402931Y-70643359D01*
X120255335Y-70614000D01*
X120191834Y-70614000D01*
X120142000Y-70604087D01*
X120092166Y-70614000D01*
X107491835Y-70614000D01*
X107442000Y-70604087D01*
X107244568Y-70643359D01*
X107189781Y-70679967D01*
X107077194Y-70755194D01*
X107048963Y-70797445D01*
X105341445Y-72504963D01*
X105299195Y-72533194D01*
X105267587Y-72580500D01*
X105187360Y-72700569D01*
X105148087Y-72898000D01*
X100357000Y-72898000D01*
X100357000Y-64960132D01*
X100429419Y-63927766D01*
X100653030Y-62885825D01*
X101021229Y-61885771D01*
X101526654Y-60947590D01*
X102159233Y-60089975D01*
X102906336Y-59330053D01*
X103753061Y-58682977D01*
X104682517Y-58161659D01*
X105676156Y-57776504D01*
X106714138Y-57535199D01*
X107757188Y-57444175D01*
X107851828Y-57463000D01*
G36*
X120274453Y-74635046D02*
X120274454Y-76783014D01*
X120230767Y-76812204D01*
X120146559Y-76938231D01*
X120116989Y-77086890D01*
X120116989Y-78586890D01*
X120138476Y-78694913D01*
X120030453Y-78673426D01*
X118530453Y-78673426D01*
X118381794Y-78702996D01*
X118255767Y-78787204D01*
X118226577Y-78830890D01*
X116124963Y-78830890D01*
X116124963Y-77418233D01*
X116134876Y-77368399D01*
X116123962Y-77313531D01*
X116095604Y-77170969D01*
X115983769Y-77003594D01*
X115941519Y-76975364D01*
X115412513Y-76446358D01*
X115433139Y-76432576D01*
X115517347Y-76306549D01*
X115546917Y-76157890D01*
X115546917Y-74907890D01*
X115517347Y-74759231D01*
X115433139Y-74633204D01*
X115307112Y-74548996D01*
X115158453Y-74519426D01*
X114158453Y-74519426D01*
X114009794Y-74548996D01*
X113883767Y-74633204D01*
X113799559Y-74759231D01*
X113793453Y-74789928D01*
X113793453Y-74781580D01*
X113696780Y-74548191D01*
X113518151Y-74369563D01*
X113284762Y-74272890D01*
X112944203Y-74272890D01*
X112785453Y-74431640D01*
X112785453Y-75405890D01*
X112805453Y-75405890D01*
X112805453Y-75659890D01*
X112785453Y-75659890D01*
X112785453Y-76634140D01*
X112944203Y-76792890D01*
X113284762Y-76792890D01*
X113518151Y-76696217D01*
X113696780Y-76517589D01*
X113793453Y-76284200D01*
X113793453Y-76275852D01*
X113799559Y-76306549D01*
X113883767Y-76432576D01*
X114009794Y-76516784D01*
X114158453Y-76546354D01*
X114170083Y-76546354D01*
X114175858Y-76575385D01*
X114181813Y-76605321D01*
X114293648Y-76772696D01*
X114335898Y-76800926D01*
X115112963Y-77577992D01*
X115112964Y-78892244D01*
X115007800Y-78997408D01*
X115007800Y-78683750D01*
X114849050Y-78525000D01*
X113799800Y-78525000D01*
X113799800Y-78545000D01*
X113545800Y-78545000D01*
X113545800Y-78525000D01*
X113525800Y-78525000D01*
X113525800Y-78271000D01*
X113545800Y-78271000D01*
X113545800Y-77321750D01*
X113799800Y-77321750D01*
X113799800Y-78271000D01*
X114849050Y-78271000D01*
X115007800Y-78112250D01*
X115007800Y-77671690D01*
X114911127Y-77438301D01*
X114732498Y-77259673D01*
X114499109Y-77163000D01*
X113958550Y-77163000D01*
X113799800Y-77321750D01*
X113545800Y-77321750D01*
X113387050Y-77163000D01*
X112846491Y-77163000D01*
X112613102Y-77259673D01*
X112434473Y-77438301D01*
X112409714Y-77498075D01*
X112321459Y-77439106D01*
X112172800Y-77409536D01*
X111099927Y-77409536D01*
X110862453Y-77172062D01*
X110862453Y-76545161D01*
X111005112Y-76516784D01*
X111131139Y-76432576D01*
X111215347Y-76306549D01*
X111244917Y-76157890D01*
X111244917Y-75818640D01*
X111523453Y-75818640D01*
X111523453Y-76284200D01*
X111620126Y-76517589D01*
X111798755Y-76696217D01*
X112032144Y-76792890D01*
X112372703Y-76792890D01*
X112531453Y-76634140D01*
X112531453Y-75659890D01*
X111682203Y-75659890D01*
X111523453Y-75818640D01*
X111244917Y-75818640D01*
X111244917Y-74907890D01*
X111219793Y-74781580D01*
X111523453Y-74781580D01*
X111523453Y-75247140D01*
X111682203Y-75405890D01*
X112531453Y-75405890D01*
X112531453Y-74431640D01*
X112372703Y-74272890D01*
X112032144Y-74272890D01*
X111798755Y-74369563D01*
X111620126Y-74548191D01*
X111523453Y-74781580D01*
X111219793Y-74781580D01*
X111215347Y-74759231D01*
X111131139Y-74633204D01*
X111005112Y-74548996D01*
X110856453Y-74519426D01*
X109856453Y-74519426D01*
X109707794Y-74548996D01*
X109581767Y-74633204D01*
X109497559Y-74759231D01*
X109491453Y-74789928D01*
X109491453Y-74781580D01*
X109394780Y-74548191D01*
X109216151Y-74369563D01*
X108982762Y-74272890D01*
X108642203Y-74272890D01*
X108483453Y-74431640D01*
X108483453Y-75405890D01*
X108503453Y-75405890D01*
X108503453Y-75659890D01*
X108483453Y-75659890D01*
X108483453Y-76634140D01*
X108642203Y-76792890D01*
X108982762Y-76792890D01*
X109216151Y-76696217D01*
X109394780Y-76517589D01*
X109491453Y-76284200D01*
X109491453Y-76275852D01*
X109497559Y-76306549D01*
X109581767Y-76432576D01*
X109707794Y-76516784D01*
X109850454Y-76545161D01*
X109850454Y-77331814D01*
X109840540Y-77381653D01*
X109877177Y-77565831D01*
X109879813Y-77579084D01*
X109991648Y-77746459D01*
X110033898Y-77774689D01*
X110238567Y-77979358D01*
X110157994Y-78033194D01*
X110129763Y-78075445D01*
X109659447Y-78545762D01*
X109617194Y-78573994D01*
X109505359Y-78741370D01*
X109476514Y-78886380D01*
X109466087Y-78938800D01*
X109476000Y-78988634D01*
X109476001Y-80518961D01*
X109466087Y-80568800D01*
X109493459Y-80706401D01*
X109505360Y-80766231D01*
X109617195Y-80933606D01*
X109659445Y-80961836D01*
X110198563Y-81500955D01*
X110226794Y-81543206D01*
X110352038Y-81626890D01*
X110394169Y-81655041D01*
X110591600Y-81694313D01*
X110641435Y-81684400D01*
X115393056Y-81684400D01*
X115442890Y-81694313D01*
X115492724Y-81684400D01*
X115492725Y-81684400D01*
X115538642Y-81675266D01*
X115508409Y-81705500D01*
X115287649Y-81705500D01*
X115000599Y-81824400D01*
X114780900Y-82044099D01*
X114662000Y-82331149D01*
X114662000Y-82641851D01*
X114780900Y-82928901D01*
X115000599Y-83148600D01*
X115287649Y-83267500D01*
X115508408Y-83267500D01*
X115626543Y-83385635D01*
X115654774Y-83427886D01*
X115822149Y-83539721D01*
X115969745Y-83569080D01*
X116019579Y-83578993D01*
X116069413Y-83569080D01*
X117125446Y-83569080D01*
X117175280Y-83578993D01*
X117225114Y-83569080D01*
X117225115Y-83569080D01*
X117372711Y-83539721D01*
X117540086Y-83427886D01*
X117568318Y-83385633D01*
X117899132Y-83054819D01*
X118054203Y-83209890D01*
X119153453Y-83209890D01*
X119153453Y-83200354D01*
X119407453Y-83200354D01*
X119407453Y-83209890D01*
X120506703Y-83209890D01*
X120665453Y-83051140D01*
X120665453Y-82935580D01*
X120568780Y-82702191D01*
X120418917Y-82552329D01*
X120418917Y-82521451D01*
X120568780Y-82371589D01*
X120665453Y-82138200D01*
X120665453Y-82022640D01*
X120506703Y-81863890D01*
X119407453Y-81863890D01*
X119407453Y-81873426D01*
X119153453Y-81873426D01*
X119153453Y-81863890D01*
X118054203Y-81863890D01*
X117895453Y-82022640D01*
X117895453Y-82030890D01*
X117751303Y-82030890D01*
X117701469Y-82020977D01*
X117651635Y-82030890D01*
X117504039Y-82060249D01*
X117336664Y-82172084D01*
X117308433Y-82214335D01*
X116965689Y-82557080D01*
X116229172Y-82557080D01*
X116224000Y-82551908D01*
X116224000Y-82421091D01*
X117202202Y-81442890D01*
X117895453Y-81442890D01*
X117895453Y-81451140D01*
X118054203Y-81609890D01*
X119153453Y-81609890D01*
X119153453Y-81600354D01*
X119407453Y-81600354D01*
X119407453Y-81609890D01*
X120506703Y-81609890D01*
X120665453Y-81451140D01*
X120665453Y-81335580D01*
X120568780Y-81102191D01*
X120418917Y-80952329D01*
X120418917Y-80661890D01*
X120394053Y-80536890D01*
X120418917Y-80411890D01*
X120418917Y-79861890D01*
X120394053Y-79736890D01*
X120418917Y-79611890D01*
X120418917Y-79061890D01*
X120397430Y-78953867D01*
X120505453Y-78975354D01*
X121055453Y-78975354D01*
X121180453Y-78950490D01*
X121305453Y-78975354D01*
X121855453Y-78975354D01*
X121980453Y-78950490D01*
X122105453Y-78975354D01*
X122655453Y-78975354D01*
X122674454Y-78971575D01*
X122674453Y-81687056D01*
X122664540Y-81736890D01*
X122674453Y-81786724D01*
X122703812Y-81934320D01*
X122815647Y-82101696D01*
X122857901Y-82129929D01*
X126039514Y-85311542D01*
X125980453Y-85323290D01*
X125855453Y-85298426D01*
X125305453Y-85298426D01*
X125180453Y-85323290D01*
X125055453Y-85298426D01*
X124505453Y-85298426D01*
X124380453Y-85323290D01*
X124255453Y-85298426D01*
X123705453Y-85298426D01*
X123670218Y-85305435D01*
X123657094Y-85239458D01*
X123608948Y-85167403D01*
X123545259Y-85072084D01*
X123503006Y-85043852D01*
X123372601Y-84913447D01*
X123344368Y-84871193D01*
X123176993Y-84759358D01*
X123029397Y-84729999D01*
X123029396Y-84729999D01*
X122979562Y-84720086D01*
X122955000Y-84724972D01*
X122955000Y-84680649D01*
X122836100Y-84393599D01*
X122616401Y-84173900D01*
X122329351Y-84055000D01*
X122018649Y-84055000D01*
X121731599Y-84173900D01*
X121511900Y-84393599D01*
X121393000Y-84680649D01*
X121393000Y-84991351D01*
X121511900Y-85278401D01*
X121531925Y-85298426D01*
X121305453Y-85298426D01*
X121180453Y-85323290D01*
X121055453Y-85298426D01*
X120505453Y-85298426D01*
X120397430Y-85319913D01*
X120418917Y-85211890D01*
X120418917Y-84661890D01*
X120394053Y-84536890D01*
X120418917Y-84411890D01*
X120418917Y-84121451D01*
X120568780Y-83971589D01*
X120665453Y-83738200D01*
X120665453Y-83622640D01*
X120506703Y-83463890D01*
X119407453Y-83463890D01*
X119407453Y-83473426D01*
X119153453Y-83473426D01*
X119153453Y-83463890D01*
X118054203Y-83463890D01*
X117895453Y-83622640D01*
X117895453Y-83630890D01*
X116045078Y-83630890D01*
X115995244Y-83620977D01*
X115945410Y-83630890D01*
X115797814Y-83660249D01*
X115630439Y-83772084D01*
X115602208Y-83814335D01*
X115462399Y-83954144D01*
X115411379Y-83830972D01*
X115051028Y-83470621D01*
X114580207Y-83275600D01*
X114070593Y-83275600D01*
X113599772Y-83470621D01*
X113239421Y-83830972D01*
X113044400Y-84301793D01*
X113044400Y-84811407D01*
X113239421Y-85282228D01*
X113599772Y-85642579D01*
X114070593Y-85837600D01*
X114580207Y-85837600D01*
X115051028Y-85642579D01*
X115411379Y-85282228D01*
X115460593Y-85163414D01*
X115480645Y-85167403D01*
X115530479Y-85157490D01*
X115530480Y-85157490D01*
X115678076Y-85128131D01*
X115845451Y-85016296D01*
X115873683Y-84974043D01*
X116204837Y-84642890D01*
X118145768Y-84642890D01*
X118141989Y-84661890D01*
X118141989Y-85211890D01*
X118171559Y-85360549D01*
X118255767Y-85486576D01*
X118381794Y-85570784D01*
X118530453Y-85600354D01*
X118774453Y-85600354D01*
X118774454Y-86757954D01*
X117667409Y-87865000D01*
X117446649Y-87865000D01*
X117159599Y-87983900D01*
X116939900Y-88203599D01*
X116821000Y-88490649D01*
X116821000Y-88801351D01*
X116939900Y-89088401D01*
X117159599Y-89308100D01*
X117446649Y-89427000D01*
X117757351Y-89427000D01*
X117933867Y-89353885D01*
X115039297Y-92248455D01*
X115039294Y-92248457D01*
X114936288Y-92351463D01*
X114716660Y-92260490D01*
X114207046Y-92260490D01*
X113736225Y-92455511D01*
X113375874Y-92815862D01*
X113180853Y-93286683D01*
X113180853Y-93357900D01*
X107630500Y-87807548D01*
X107630500Y-76751616D01*
X107730144Y-76792890D01*
X108070703Y-76792890D01*
X108229453Y-76634140D01*
X108229453Y-75659890D01*
X108209453Y-75659890D01*
X108209453Y-75405890D01*
X108229453Y-75405890D01*
X108229453Y-74431640D01*
X108070703Y-74272890D01*
X107730144Y-74272890D01*
X107630500Y-74314164D01*
X107630500Y-74060091D01*
X108604092Y-73086500D01*
X118725909Y-73086500D01*
X120274453Y-74635046D01*
X120274453Y-74635046D01*
G37*
X120274453Y-74635046D02*
X120274454Y-76783014D01*
X120230767Y-76812204D01*
X120146559Y-76938231D01*
X120116989Y-77086890D01*
X120116989Y-78586890D01*
X120138476Y-78694913D01*
X120030453Y-78673426D01*
X118530453Y-78673426D01*
X118381794Y-78702996D01*
X118255767Y-78787204D01*
X118226577Y-78830890D01*
X116124963Y-78830890D01*
X116124963Y-77418233D01*
X116134876Y-77368399D01*
X116123962Y-77313531D01*
X116095604Y-77170969D01*
X115983769Y-77003594D01*
X115941519Y-76975364D01*
X115412513Y-76446358D01*
X115433139Y-76432576D01*
X115517347Y-76306549D01*
X115546917Y-76157890D01*
X115546917Y-74907890D01*
X115517347Y-74759231D01*
X115433139Y-74633204D01*
X115307112Y-74548996D01*
X115158453Y-74519426D01*
X114158453Y-74519426D01*
X114009794Y-74548996D01*
X113883767Y-74633204D01*
X113799559Y-74759231D01*
X113793453Y-74789928D01*
X113793453Y-74781580D01*
X113696780Y-74548191D01*
X113518151Y-74369563D01*
X113284762Y-74272890D01*
X112944203Y-74272890D01*
X112785453Y-74431640D01*
X112785453Y-75405890D01*
X112805453Y-75405890D01*
X112805453Y-75659890D01*
X112785453Y-75659890D01*
X112785453Y-76634140D01*
X112944203Y-76792890D01*
X113284762Y-76792890D01*
X113518151Y-76696217D01*
X113696780Y-76517589D01*
X113793453Y-76284200D01*
X113793453Y-76275852D01*
X113799559Y-76306549D01*
X113883767Y-76432576D01*
X114009794Y-76516784D01*
X114158453Y-76546354D01*
X114170083Y-76546354D01*
X114175858Y-76575385D01*
X114181813Y-76605321D01*
X114293648Y-76772696D01*
X114335898Y-76800926D01*
X115112963Y-77577992D01*
X115112964Y-78892244D01*
X115007800Y-78997408D01*
X115007800Y-78683750D01*
X114849050Y-78525000D01*
X113799800Y-78525000D01*
X113799800Y-78545000D01*
X113545800Y-78545000D01*
X113545800Y-78525000D01*
X113525800Y-78525000D01*
X113525800Y-78271000D01*
X113545800Y-78271000D01*
X113545800Y-77321750D01*
X113799800Y-77321750D01*
X113799800Y-78271000D01*
X114849050Y-78271000D01*
X115007800Y-78112250D01*
X115007800Y-77671690D01*
X114911127Y-77438301D01*
X114732498Y-77259673D01*
X114499109Y-77163000D01*
X113958550Y-77163000D01*
X113799800Y-77321750D01*
X113545800Y-77321750D01*
X113387050Y-77163000D01*
X112846491Y-77163000D01*
X112613102Y-77259673D01*
X112434473Y-77438301D01*
X112409714Y-77498075D01*
X112321459Y-77439106D01*
X112172800Y-77409536D01*
X111099927Y-77409536D01*
X110862453Y-77172062D01*
X110862453Y-76545161D01*
X111005112Y-76516784D01*
X111131139Y-76432576D01*
X111215347Y-76306549D01*
X111244917Y-76157890D01*
X111244917Y-75818640D01*
X111523453Y-75818640D01*
X111523453Y-76284200D01*
X111620126Y-76517589D01*
X111798755Y-76696217D01*
X112032144Y-76792890D01*
X112372703Y-76792890D01*
X112531453Y-76634140D01*
X112531453Y-75659890D01*
X111682203Y-75659890D01*
X111523453Y-75818640D01*
X111244917Y-75818640D01*
X111244917Y-74907890D01*
X111219793Y-74781580D01*
X111523453Y-74781580D01*
X111523453Y-75247140D01*
X111682203Y-75405890D01*
X112531453Y-75405890D01*
X112531453Y-74431640D01*
X112372703Y-74272890D01*
X112032144Y-74272890D01*
X111798755Y-74369563D01*
X111620126Y-74548191D01*
X111523453Y-74781580D01*
X111219793Y-74781580D01*
X111215347Y-74759231D01*
X111131139Y-74633204D01*
X111005112Y-74548996D01*
X110856453Y-74519426D01*
X109856453Y-74519426D01*
X109707794Y-74548996D01*
X109581767Y-74633204D01*
X109497559Y-74759231D01*
X109491453Y-74789928D01*
X109491453Y-74781580D01*
X109394780Y-74548191D01*
X109216151Y-74369563D01*
X108982762Y-74272890D01*
X108642203Y-74272890D01*
X108483453Y-74431640D01*
X108483453Y-75405890D01*
X108503453Y-75405890D01*
X108503453Y-75659890D01*
X108483453Y-75659890D01*
X108483453Y-76634140D01*
X108642203Y-76792890D01*
X108982762Y-76792890D01*
X109216151Y-76696217D01*
X109394780Y-76517589D01*
X109491453Y-76284200D01*
X109491453Y-76275852D01*
X109497559Y-76306549D01*
X109581767Y-76432576D01*
X109707794Y-76516784D01*
X109850454Y-76545161D01*
X109850454Y-77331814D01*
X109840540Y-77381653D01*
X109877177Y-77565831D01*
X109879813Y-77579084D01*
X109991648Y-77746459D01*
X110033898Y-77774689D01*
X110238567Y-77979358D01*
X110157994Y-78033194D01*
X110129763Y-78075445D01*
X109659447Y-78545762D01*
X109617194Y-78573994D01*
X109505359Y-78741370D01*
X109476514Y-78886380D01*
X109466087Y-78938800D01*
X109476000Y-78988634D01*
X109476001Y-80518961D01*
X109466087Y-80568800D01*
X109493459Y-80706401D01*
X109505360Y-80766231D01*
X109617195Y-80933606D01*
X109659445Y-80961836D01*
X110198563Y-81500955D01*
X110226794Y-81543206D01*
X110352038Y-81626890D01*
X110394169Y-81655041D01*
X110591600Y-81694313D01*
X110641435Y-81684400D01*
X115393056Y-81684400D01*
X115442890Y-81694313D01*
X115492724Y-81684400D01*
X115492725Y-81684400D01*
X115538642Y-81675266D01*
X115508409Y-81705500D01*
X115287649Y-81705500D01*
X115000599Y-81824400D01*
X114780900Y-82044099D01*
X114662000Y-82331149D01*
X114662000Y-82641851D01*
X114780900Y-82928901D01*
X115000599Y-83148600D01*
X115287649Y-83267500D01*
X115508408Y-83267500D01*
X115626543Y-83385635D01*
X115654774Y-83427886D01*
X115822149Y-83539721D01*
X115969745Y-83569080D01*
X116019579Y-83578993D01*
X116069413Y-83569080D01*
X117125446Y-83569080D01*
X117175280Y-83578993D01*
X117225114Y-83569080D01*
X117225115Y-83569080D01*
X117372711Y-83539721D01*
X117540086Y-83427886D01*
X117568318Y-83385633D01*
X117899132Y-83054819D01*
X118054203Y-83209890D01*
X119153453Y-83209890D01*
X119153453Y-83200354D01*
X119407453Y-83200354D01*
X119407453Y-83209890D01*
X120506703Y-83209890D01*
X120665453Y-83051140D01*
X120665453Y-82935580D01*
X120568780Y-82702191D01*
X120418917Y-82552329D01*
X120418917Y-82521451D01*
X120568780Y-82371589D01*
X120665453Y-82138200D01*
X120665453Y-82022640D01*
X120506703Y-81863890D01*
X119407453Y-81863890D01*
X119407453Y-81873426D01*
X119153453Y-81873426D01*
X119153453Y-81863890D01*
X118054203Y-81863890D01*
X117895453Y-82022640D01*
X117895453Y-82030890D01*
X117751303Y-82030890D01*
X117701469Y-82020977D01*
X117651635Y-82030890D01*
X117504039Y-82060249D01*
X117336664Y-82172084D01*
X117308433Y-82214335D01*
X116965689Y-82557080D01*
X116229172Y-82557080D01*
X116224000Y-82551908D01*
X116224000Y-82421091D01*
X117202202Y-81442890D01*
X117895453Y-81442890D01*
X117895453Y-81451140D01*
X118054203Y-81609890D01*
X119153453Y-81609890D01*
X119153453Y-81600354D01*
X119407453Y-81600354D01*
X119407453Y-81609890D01*
X120506703Y-81609890D01*
X120665453Y-81451140D01*
X120665453Y-81335580D01*
X120568780Y-81102191D01*
X120418917Y-80952329D01*
X120418917Y-80661890D01*
X120394053Y-80536890D01*
X120418917Y-80411890D01*
X120418917Y-79861890D01*
X120394053Y-79736890D01*
X120418917Y-79611890D01*
X120418917Y-79061890D01*
X120397430Y-78953867D01*
X120505453Y-78975354D01*
X121055453Y-78975354D01*
X121180453Y-78950490D01*
X121305453Y-78975354D01*
X121855453Y-78975354D01*
X121980453Y-78950490D01*
X122105453Y-78975354D01*
X122655453Y-78975354D01*
X122674454Y-78971575D01*
X122674453Y-81687056D01*
X122664540Y-81736890D01*
X122674453Y-81786724D01*
X122703812Y-81934320D01*
X122815647Y-82101696D01*
X122857901Y-82129929D01*
X126039514Y-85311542D01*
X125980453Y-85323290D01*
X125855453Y-85298426D01*
X125305453Y-85298426D01*
X125180453Y-85323290D01*
X125055453Y-85298426D01*
X124505453Y-85298426D01*
X124380453Y-85323290D01*
X124255453Y-85298426D01*
X123705453Y-85298426D01*
X123670218Y-85305435D01*
X123657094Y-85239458D01*
X123608948Y-85167403D01*
X123545259Y-85072084D01*
X123503006Y-85043852D01*
X123372601Y-84913447D01*
X123344368Y-84871193D01*
X123176993Y-84759358D01*
X123029397Y-84729999D01*
X123029396Y-84729999D01*
X122979562Y-84720086D01*
X122955000Y-84724972D01*
X122955000Y-84680649D01*
X122836100Y-84393599D01*
X122616401Y-84173900D01*
X122329351Y-84055000D01*
X122018649Y-84055000D01*
X121731599Y-84173900D01*
X121511900Y-84393599D01*
X121393000Y-84680649D01*
X121393000Y-84991351D01*
X121511900Y-85278401D01*
X121531925Y-85298426D01*
X121305453Y-85298426D01*
X121180453Y-85323290D01*
X121055453Y-85298426D01*
X120505453Y-85298426D01*
X120397430Y-85319913D01*
X120418917Y-85211890D01*
X120418917Y-84661890D01*
X120394053Y-84536890D01*
X120418917Y-84411890D01*
X120418917Y-84121451D01*
X120568780Y-83971589D01*
X120665453Y-83738200D01*
X120665453Y-83622640D01*
X120506703Y-83463890D01*
X119407453Y-83463890D01*
X119407453Y-83473426D01*
X119153453Y-83473426D01*
X119153453Y-83463890D01*
X118054203Y-83463890D01*
X117895453Y-83622640D01*
X117895453Y-83630890D01*
X116045078Y-83630890D01*
X115995244Y-83620977D01*
X115945410Y-83630890D01*
X115797814Y-83660249D01*
X115630439Y-83772084D01*
X115602208Y-83814335D01*
X115462399Y-83954144D01*
X115411379Y-83830972D01*
X115051028Y-83470621D01*
X114580207Y-83275600D01*
X114070593Y-83275600D01*
X113599772Y-83470621D01*
X113239421Y-83830972D01*
X113044400Y-84301793D01*
X113044400Y-84811407D01*
X113239421Y-85282228D01*
X113599772Y-85642579D01*
X114070593Y-85837600D01*
X114580207Y-85837600D01*
X115051028Y-85642579D01*
X115411379Y-85282228D01*
X115460593Y-85163414D01*
X115480645Y-85167403D01*
X115530479Y-85157490D01*
X115530480Y-85157490D01*
X115678076Y-85128131D01*
X115845451Y-85016296D01*
X115873683Y-84974043D01*
X116204837Y-84642890D01*
X118145768Y-84642890D01*
X118141989Y-84661890D01*
X118141989Y-85211890D01*
X118171559Y-85360549D01*
X118255767Y-85486576D01*
X118381794Y-85570784D01*
X118530453Y-85600354D01*
X118774453Y-85600354D01*
X118774454Y-86757954D01*
X117667409Y-87865000D01*
X117446649Y-87865000D01*
X117159599Y-87983900D01*
X116939900Y-88203599D01*
X116821000Y-88490649D01*
X116821000Y-88801351D01*
X116939900Y-89088401D01*
X117159599Y-89308100D01*
X117446649Y-89427000D01*
X117757351Y-89427000D01*
X117933867Y-89353885D01*
X115039297Y-92248455D01*
X115039294Y-92248457D01*
X114936288Y-92351463D01*
X114716660Y-92260490D01*
X114207046Y-92260490D01*
X113736225Y-92455511D01*
X113375874Y-92815862D01*
X113180853Y-93286683D01*
X113180853Y-93357900D01*
X107630500Y-87807548D01*
X107630500Y-76751616D01*
X107730144Y-76792890D01*
X108070703Y-76792890D01*
X108229453Y-76634140D01*
X108229453Y-75659890D01*
X108209453Y-75659890D01*
X108209453Y-75405890D01*
X108229453Y-75405890D01*
X108229453Y-74431640D01*
X108070703Y-74272890D01*
X107730144Y-74272890D01*
X107630500Y-74314164D01*
X107630500Y-74060091D01*
X108604092Y-73086500D01*
X118725909Y-73086500D01*
X120274453Y-74635046D01*
G36*
X111599800Y-79971000D02*
X111619800Y-79971000D01*
X111619800Y-80225000D01*
X111599800Y-80225000D01*
X111599800Y-80245000D01*
X111345800Y-80245000D01*
X111345800Y-80225000D01*
X111325800Y-80225000D01*
X111325800Y-79971000D01*
X111345800Y-79971000D01*
X111345800Y-79951000D01*
X111599800Y-79951000D01*
X111599800Y-79971000D01*
X111599800Y-79971000D01*
G37*
X111599800Y-79971000D02*
X111619800Y-79971000D01*
X111619800Y-80225000D01*
X111599800Y-80225000D01*
X111599800Y-80245000D01*
X111345800Y-80245000D01*
X111345800Y-80225000D01*
X111325800Y-80225000D01*
X111325800Y-79971000D01*
X111345800Y-79971000D01*
X111345800Y-79951000D01*
X111599800Y-79951000D01*
X111599800Y-79971000D01*
G04 #@! TD*
M02*
