M48
;DRILL file {KiCad (5.0.2)-1} date 12/26/2018 7:39:05 PM
;FORMAT={-:-/ absolute / inch / decimal}
FMAT,2
INCH,TZ
T1C0.0157
T2C0.0177
T3C0.0402
%
G90
G05
T1
X4.4275Y-2.895
X4.545Y-3.2475
X4.63Y-3.49
X4.81Y-3.34
X4.84Y-3.28
X4.8875Y-3.16
X4.94Y-3.26
X4.96Y-3.175
X5.03Y-3.02
X5.0925Y-3.8625
X5.4475Y-3.875
X5.6975Y-3.945
X5.72Y-3.67
X5.825Y-3.6075
T2
X4.33Y-2.505
X4.33Y-2.555
X4.38Y-2.505
X4.38Y-2.555
X4.43Y-2.505
X4.43Y-2.555
X4.48Y-2.505
X4.48Y-2.555
X4.53Y-2.505
X4.53Y-2.555
T3
X6.142Y-3.832
X6.2725Y-3.833
X4.9238Y-4.2513
X5.0238Y-4.2513
X5.1238Y-4.2513
X5.2238Y-4.2513
X5.3238Y-4.2513
X5.4238Y-4.2513
X5.5238Y-4.2513
X5.6238Y-4.2513
X5.9473Y-2.9663
X6.065Y-3.675
X6.365Y-3.675
X6.4906Y-2.9663
X5.685Y-3.3394
X5.69Y-3.43
X5.69Y-3.53
X5.785Y-3.3394
X5.79Y-3.43
X5.79Y-3.53
X5.765Y-2.705
X5.765Y-3.005
T0
M30
