G04 #@! TF.GenerationSoftware,KiCad,Pcbnew,(5.0.2)-1*
G04 #@! TF.CreationDate,2018-12-26T19:39:09+05:30*
G04 #@! TF.ProjectId,Air Pollution,41697220-506f-46c6-9c75-74696f6e2e6b,rev?*
G04 #@! TF.SameCoordinates,Original*
G04 #@! TF.FileFunction,Copper,L1,Top*
G04 #@! TF.FilePolarity,Positive*
%FSLAX46Y46*%
G04 Gerber Fmt 4.6, Leading zero omitted, Abs format (unit mm)*
G04 Created by KiCad (PCBNEW (5.0.2)-1) date 12/26/2018 7:39:09 PM*
%MOMM*%
%LPD*%
G01*
G04 APERTURE LIST*
G04 #@! TA.AperFunction,ComponentPad*
%ADD10C,2.040000*%
G04 #@! TD*
G04 #@! TA.AperFunction,SMDPad,CuDef*
%ADD11R,1.524000X1.524000*%
G04 #@! TD*
G04 #@! TA.AperFunction,ComponentPad*
%ADD12C,0.900000*%
G04 #@! TD*
G04 #@! TA.AperFunction,ViaPad*
%ADD13C,0.800000*%
G04 #@! TD*
G04 #@! TA.AperFunction,Conductor*
%ADD14C,0.250000*%
G04 #@! TD*
G04 #@! TA.AperFunction,Conductor*
%ADD15C,1.016000*%
G04 #@! TD*
G04 #@! TA.AperFunction,Conductor*
%ADD16C,0.254000*%
G04 #@! TD*
G04 APERTURE END LIST*
D10*
G04 #@! TO.P,U3,3*
G04 #@! TO.N,GNDREF*
X161671000Y-93345000D03*
G04 #@! TO.P,U3,4*
G04 #@! TO.N,Net-(U3-Pad4)*
X154051000Y-93345000D03*
G04 #@! TO.P,U3,2*
G04 #@! TO.N,Net-(U1-Pad1)*
X151061000Y-75345000D03*
G04 #@! TO.P,U3,1*
G04 #@! TO.N,Net-(R1-Pad2)*
X164861000Y-75345000D03*
G04 #@! TD*
D11*
G04 #@! TO.P,U2,1*
G04 #@! TO.N,Net-(SW1-Pad1)*
X103378000Y-60579000D03*
G04 #@! TO.P,U2,2*
G04 #@! TO.N,Net-(U1-Pad1)*
X155378000Y-60198000D03*
G04 #@! TD*
D10*
G04 #@! TO.P,U1,1*
G04 #@! TO.N,Net-(U1-Pad1)*
X146431000Y-76327000D03*
G04 #@! TO.P,U1,2*
G04 #@! TO.N,Net-(SW1-Pad1)*
X146431000Y-68707000D03*
G04 #@! TD*
D12*
G04 #@! TO.P,U7,9*
G04 #@! TO.N,Net-(U4-Pad14)*
X115062000Y-63627000D03*
G04 #@! TO.P,U7,7*
G04 #@! TO.N,Net-(U7-Pad7)*
X113792000Y-63627000D03*
G04 #@! TO.P,U7,4*
G04 #@! TO.N,Net-(U7-Pad4)*
X111252000Y-64897000D03*
G04 #@! TO.P,U7,1*
G04 #@! TO.N,Net-(U3-Pad4)*
X109982000Y-63627000D03*
G04 #@! TO.P,U7,6*
G04 #@! TO.N,Net-(U7-Pad6)*
X112522000Y-64897000D03*
G04 #@! TO.P,U7,10*
G04 #@! TO.N,Net-(U7-Pad10)*
X115062000Y-64897000D03*
G04 #@! TO.P,U7,3*
G04 #@! TO.N,GNDREF*
X111252000Y-63627000D03*
G04 #@! TO.P,U7,5*
G04 #@! TO.N,Net-(U7-Pad5)*
X112522000Y-63627000D03*
G04 #@! TO.P,U7,2*
G04 #@! TO.N,Net-(U7-Pad2)*
X109982000Y-64897000D03*
G04 #@! TO.P,U7,8*
G04 #@! TO.N,Net-(U7-Pad8)*
X113792000Y-64897000D03*
G04 #@! TD*
D10*
G04 #@! TO.P,U6,1*
G04 #@! TO.N,Net-(U4-Pad16)*
X144399000Y-84821900D03*
G04 #@! TO.P,U6,4*
G04 #@! TO.N,Net-(U4-Pad29)*
X147066000Y-87122000D03*
G04 #@! TO.P,U6,3*
G04 #@! TO.N,Net-(U4-Pad17)*
X144526000Y-87122000D03*
G04 #@! TO.P,U6,2*
G04 #@! TO.N,Net-(U4-Pad15)*
X146939000Y-84821900D03*
G04 #@! TO.P,U6,5*
G04 #@! TO.N,GNDREF*
X144526000Y-89662000D03*
G04 #@! TO.P,U6,6*
G04 #@! TO.N,Net-(R2-Pad2)*
X147066000Y-89662000D03*
G04 #@! TD*
G04 #@! TO.P,SW1,2*
G04 #@! TO.N,Net-(R1-Pad2)*
X159321500Y-97358200D03*
G04 #@! TO.P,SW1,1*
G04 #@! TO.N,Net-(SW1-Pad1)*
X156006800Y-97332800D03*
G04 #@! TD*
G04 #@! TO.P,U5,1*
G04 #@! TO.N,Net-(U4-Pad11)*
X125064000Y-107982000D03*
G04 #@! TO.P,U5,2*
G04 #@! TO.N,Net-(U4-Pad10)*
X127604000Y-107982000D03*
G04 #@! TO.P,U5,3*
G04 #@! TO.N,Net-(U4-Pad9)*
X130144000Y-107982000D03*
G04 #@! TO.P,U5,4*
G04 #@! TO.N,Net-(U4-Pad13)*
X132684000Y-107982000D03*
G04 #@! TO.P,U5,5*
G04 #@! TO.N,Net-(U4-Pad12)*
X135224000Y-107982000D03*
G04 #@! TO.P,U5,6*
G04 #@! TO.N,Net-(U3-Pad4)*
X137764000Y-107982000D03*
G04 #@! TO.P,U5,7*
G04 #@! TO.N,GNDREF*
X140304000Y-107982000D03*
G04 #@! TO.P,U5,8*
X142844000Y-107982000D03*
G04 #@! TD*
D13*
G04 #@! TO.N,GNDREF*
X112458500Y-73533000D03*
X147955000Y-91630500D03*
X122936000Y-83312000D03*
X125476000Y-82804000D03*
G04 #@! TO.N,Net-(R1-Pad2)*
X144716500Y-100203000D03*
X138366500Y-98425000D03*
G04 #@! TO.N,Net-(U4-Pad13)*
X129349500Y-98107500D03*
X124142500Y-80264000D03*
G04 #@! TO.N,Net-(U4-Pad16)*
X127762000Y-76708000D03*
G04 #@! TO.N,Net-(U4-Pad17)*
X125984000Y-80645000D03*
G04 #@! TO.N,Net-(U4-Pad29)*
X122174000Y-84836000D03*
G04 #@! TO.N,Net-(U3-Pad4)*
X115443000Y-82486500D03*
G04 #@! TO.N,Net-(R2-Pad1)*
X117602000Y-88646000D03*
X145288000Y-93218000D03*
G04 #@! TD*
D14*
G04 #@! TO.N,GNDREF*
X112458500Y-73533000D02*
X112458500Y-73533000D01*
X150177500Y-82613500D02*
X150177500Y-89408000D01*
X150177500Y-89408000D02*
X147955000Y-91630500D01*
X147955000Y-91630500D02*
X147955000Y-91630500D01*
X124968000Y-83312000D02*
X125476000Y-82804000D01*
X122936000Y-83312000D02*
X124968000Y-83312000D01*
X113619280Y-72372220D02*
X112458500Y-73533000D01*
X112649000Y-62230000D02*
X116141500Y-62230000D01*
X111252000Y-63627000D02*
X112649000Y-62230000D01*
X116141500Y-62230000D02*
X117665500Y-63754000D01*
X117665500Y-63754000D02*
X117665500Y-65021460D01*
X117665500Y-65021460D02*
X113619280Y-69067680D01*
X113619280Y-69067680D02*
X113619280Y-72372220D01*
X113024185Y-73533000D02*
X113496625Y-74005440D01*
X112458500Y-73533000D02*
X113024185Y-73533000D01*
X113496625Y-74005440D02*
X117541040Y-74005440D01*
X141467840Y-73903840D02*
X141518640Y-73954640D01*
X117642640Y-73903840D02*
X141467840Y-73903840D01*
X117541040Y-74005440D02*
X117642640Y-73903840D01*
X141518640Y-73954640D02*
X150177500Y-82613500D01*
D15*
G04 #@! TO.N,Net-(R1-Pad2)*
X159321500Y-97358200D02*
X159321500Y-78041500D01*
X162018000Y-75345000D02*
X164861000Y-75345000D01*
X159321500Y-78041500D02*
X162018000Y-75345000D01*
D14*
X143388080Y-98874580D02*
X144843500Y-100330000D01*
X143338499Y-98824999D02*
X143388080Y-98874580D01*
X138766499Y-98824999D02*
X143338499Y-98824999D01*
X138366500Y-98425000D02*
X138766499Y-98824999D01*
D15*
G04 #@! TO.N,Net-(SW1-Pad1)*
X138303000Y-60579000D02*
X146431000Y-68707000D01*
X103378000Y-60579000D02*
X138303000Y-60579000D01*
X156006800Y-95890303D02*
X156006800Y-97332800D01*
X156006800Y-82848242D02*
X156006800Y-95890303D01*
X146431000Y-73272442D02*
X156006800Y-82848242D01*
X146431000Y-68707000D02*
X146431000Y-73272442D01*
G04 #@! TO.N,Net-(U1-Pad1)*
X155378000Y-71028000D02*
X155378000Y-60198000D01*
X151061000Y-75345000D02*
X155378000Y-71028000D01*
D14*
G04 #@! TO.N,Net-(U4-Pad13)*
X124142500Y-80264000D02*
X124142500Y-80264000D01*
X125820001Y-81370001D02*
X131826000Y-87376000D01*
X124142500Y-80264000D02*
X125248501Y-81370001D01*
X125248501Y-81370001D02*
X125820001Y-81370001D01*
X131826000Y-92598240D02*
X131826000Y-94254320D01*
X131826000Y-92598240D02*
X131826000Y-92740480D01*
X131826000Y-87376000D02*
X131826000Y-92598240D01*
X129349500Y-96730820D02*
X129349500Y-98107500D01*
X131826000Y-94254320D02*
X129349500Y-96730820D01*
G04 #@! TO.N,Net-(U4-Pad14)*
X115062000Y-63627000D02*
X115511999Y-64076999D01*
G04 #@! TO.N,Net-(U4-Pad15)*
X146939000Y-84821900D02*
X146389602Y-84821900D01*
G04 #@! TO.N,Net-(U4-Pad16)*
X127762000Y-76708000D02*
X127762000Y-76708000D01*
X143379001Y-83801901D02*
X144399000Y-84821900D01*
X143379001Y-79371001D02*
X143379001Y-83801901D01*
X140716000Y-76708000D02*
X143379001Y-79371001D01*
X127762000Y-76708000D02*
X140716000Y-76708000D01*
G04 #@! TO.N,Net-(U4-Pad17)*
X144526000Y-86685502D02*
X144399000Y-86558502D01*
X144526000Y-87122000D02*
X144526000Y-86685502D01*
X143506001Y-86102001D02*
X138997501Y-86102001D01*
X144526000Y-87122000D02*
X143506001Y-86102001D01*
X138997501Y-86102001D02*
X131441001Y-86102001D01*
X131441001Y-86102001D02*
X125984000Y-80645000D01*
X125984000Y-80645000D02*
X125984000Y-80645000D01*
G04 #@! TO.N,Net-(U4-Pad29)*
X149034500Y-85153500D02*
X149034500Y-83312000D01*
X147066000Y-87122000D02*
X149034500Y-85153500D01*
X149034500Y-83312000D02*
X140081000Y-74358500D01*
X140081000Y-74358500D02*
X127825500Y-74358500D01*
X127825500Y-74358500D02*
X123126500Y-79057500D01*
X123126500Y-79057500D02*
X122110500Y-79057500D01*
X122110500Y-79057500D02*
X121412000Y-79756000D01*
X121412000Y-79756000D02*
X121412000Y-82232500D01*
X121412000Y-82232500D02*
X121412000Y-84074000D01*
X121412000Y-84074000D02*
X122174000Y-84836000D01*
X122174000Y-84836000D02*
X122174000Y-84836000D01*
D15*
G04 #@! TO.N,Net-(U3-Pad4)*
X109982000Y-63627000D02*
X109345604Y-63627000D01*
X116332000Y-101727000D02*
X106045000Y-91440000D01*
X107569000Y-63627000D02*
X109982000Y-63627000D01*
X106045000Y-65151000D02*
X107569000Y-63627000D01*
D14*
X106045000Y-87058500D02*
X106426000Y-87058500D01*
D15*
X106045000Y-87058500D02*
X106045000Y-65151000D01*
X106045000Y-91440000D02*
X106045000Y-87058500D01*
D14*
X106426000Y-87058500D02*
X110998000Y-82486500D01*
X110998000Y-82486500D02*
X115443000Y-82486500D01*
X115443000Y-82486500D02*
X115570000Y-82486500D01*
D15*
X153031001Y-94364999D02*
X154051000Y-93345000D01*
X144272000Y-101727000D02*
X145669000Y-101727000D01*
X144272000Y-101727000D02*
X140335000Y-101727000D01*
X145542000Y-101727000D02*
X144272000Y-101727000D01*
X145669000Y-101727000D02*
X153031001Y-94364999D01*
D14*
X137764000Y-103937320D02*
X139974320Y-101727000D01*
X137764000Y-107982000D02*
X137764000Y-103937320D01*
D15*
X140335000Y-101727000D02*
X139974320Y-101727000D01*
X139974320Y-101727000D02*
X116332000Y-101727000D01*
D14*
G04 #@! TO.N,Net-(R2-Pad1)*
X133604000Y-95758000D02*
X130529499Y-98832501D01*
X130529499Y-98832501D02*
X129286000Y-100076000D01*
X129286000Y-100076000D02*
X122682000Y-100076000D01*
X122682000Y-100076000D02*
X117602000Y-94996000D01*
X117602000Y-94996000D02*
X117602000Y-88646000D01*
X117602000Y-88646000D02*
X117602000Y-88646000D01*
X143655999Y-92818001D02*
X140716000Y-95758000D01*
X144888001Y-92818001D02*
X143655999Y-92818001D01*
X145288000Y-93218000D02*
X144888001Y-92818001D01*
X140716000Y-95758000D02*
X133604000Y-95758000D01*
G04 #@! TD*
D16*
G04 #@! TO.N,GNDREF*
G36*
X107851828Y-57463000D02*
X155804897Y-57463000D01*
X155811641Y-57463996D01*
X155826712Y-57465102D01*
X157176975Y-57542958D01*
X158482037Y-57770727D01*
X159752258Y-58146984D01*
X160970813Y-58666742D01*
X162121560Y-59323115D01*
X163189234Y-60107400D01*
X164159696Y-61009208D01*
X165020069Y-62016574D01*
X165758959Y-63116159D01*
X166366569Y-64293382D01*
X166834846Y-65532643D01*
X167157580Y-66817500D01*
X167331158Y-68135955D01*
X167356095Y-68816031D01*
X167344436Y-68873198D01*
X167184177Y-101949842D01*
X167188344Y-101971332D01*
X167118784Y-102962934D01*
X166895170Y-104004881D01*
X166526974Y-105004929D01*
X166021549Y-105943110D01*
X165388970Y-106800725D01*
X164641864Y-107560650D01*
X163795134Y-108207728D01*
X162865684Y-108729042D01*
X161872049Y-109114195D01*
X160834065Y-109355501D01*
X159758162Y-109449392D01*
X159595792Y-109450206D01*
X159595676Y-109450215D01*
X143620364Y-109463461D01*
X143730284Y-109417931D01*
X143831395Y-109149001D01*
X142844000Y-108161605D01*
X141856605Y-109149001D01*
X141957716Y-109417931D01*
X142083344Y-109464736D01*
X141075269Y-109465572D01*
X141190284Y-109417931D01*
X141291395Y-109149001D01*
X140304000Y-108161605D01*
X139316605Y-109149001D01*
X139417716Y-109417931D01*
X139548984Y-109466837D01*
X111420630Y-109490161D01*
X111417265Y-109489519D01*
X111402254Y-109487782D01*
X110056427Y-109353450D01*
X108762061Y-109071234D01*
X107508708Y-108642114D01*
X106312973Y-108071779D01*
X105190735Y-107367799D01*
X104156835Y-106539490D01*
X103224992Y-105597839D01*
X102407556Y-104555323D01*
X101715360Y-103425762D01*
X101157583Y-102224136D01*
X100741609Y-100966347D01*
X100472963Y-99669102D01*
X100354300Y-98339508D01*
X100350145Y-98075035D01*
X100357000Y-98040573D01*
X100357000Y-64960132D01*
X100429419Y-63927766D01*
X100653030Y-62885825D01*
X101021229Y-61885771D01*
X101526654Y-60947590D01*
X102159233Y-60089975D01*
X102227536Y-60020500D01*
X102227536Y-61341000D01*
X102257106Y-61489659D01*
X102341314Y-61615686D01*
X102467341Y-61699894D01*
X102616000Y-61729464D01*
X104140000Y-61729464D01*
X104288659Y-61699894D01*
X104414686Y-61615686D01*
X104498894Y-61489659D01*
X104503202Y-61468000D01*
X137934765Y-61468000D01*
X145030000Y-68563236D01*
X145030000Y-68985676D01*
X145243290Y-69500603D01*
X145542000Y-69799313D01*
X145542001Y-73184883D01*
X145524584Y-73272442D01*
X145593582Y-73619312D01*
X145790068Y-73913375D01*
X145864294Y-73962971D01*
X146910512Y-75009189D01*
X146709676Y-74926000D01*
X146152324Y-74926000D01*
X145637397Y-75139290D01*
X145243290Y-75533397D01*
X145030000Y-76048324D01*
X145030000Y-76605676D01*
X145243290Y-77120603D01*
X145637397Y-77514710D01*
X146152324Y-77728000D01*
X146709676Y-77728000D01*
X147224603Y-77514710D01*
X147618710Y-77120603D01*
X147832000Y-76605676D01*
X147832000Y-76048324D01*
X147748811Y-75847488D01*
X155117800Y-83216478D01*
X155117801Y-92430488D01*
X154844603Y-92157290D01*
X154329676Y-91944000D01*
X153772324Y-91944000D01*
X153257397Y-92157290D01*
X152863290Y-92551397D01*
X152650000Y-93066324D01*
X152650000Y-93488765D01*
X152464297Y-93674468D01*
X152464294Y-93674470D01*
X145300765Y-100838000D01*
X145186001Y-100838000D01*
X145378600Y-100645401D01*
X145497500Y-100358351D01*
X145497500Y-100047649D01*
X145378600Y-99760599D01*
X145158901Y-99540900D01*
X144871851Y-99422000D01*
X144651092Y-99422000D01*
X143731538Y-98502447D01*
X143703305Y-98460193D01*
X143535930Y-98348358D01*
X143388334Y-98318999D01*
X143388333Y-98318999D01*
X143338499Y-98309086D01*
X143288665Y-98318999D01*
X139147500Y-98318999D01*
X139147500Y-98269649D01*
X139028600Y-97982599D01*
X138808901Y-97762900D01*
X138521851Y-97644000D01*
X138211149Y-97644000D01*
X137924099Y-97762900D01*
X137704400Y-97982599D01*
X137585500Y-98269649D01*
X137585500Y-98580351D01*
X137704400Y-98867401D01*
X137924099Y-99087100D01*
X138211149Y-99206000D01*
X138425931Y-99206000D01*
X138569068Y-99301640D01*
X138716664Y-99330999D01*
X138766498Y-99340912D01*
X138816332Y-99330999D01*
X143128908Y-99330999D01*
X143935500Y-100137592D01*
X143935500Y-100358351D01*
X144054400Y-100645401D01*
X144246999Y-100838000D01*
X116700236Y-100838000D01*
X106934000Y-91071765D01*
X106934000Y-88490649D01*
X116821000Y-88490649D01*
X116821000Y-88801351D01*
X116939900Y-89088401D01*
X117096001Y-89244502D01*
X117096000Y-94946166D01*
X117086087Y-94996000D01*
X117096000Y-95045834D01*
X117125359Y-95193430D01*
X117237194Y-95360806D01*
X117279448Y-95389039D01*
X122288963Y-100398555D01*
X122317194Y-100440806D01*
X122484569Y-100552641D01*
X122632165Y-100582000D01*
X122632166Y-100582000D01*
X122682000Y-100591913D01*
X122731834Y-100582000D01*
X129236166Y-100582000D01*
X129286000Y-100591913D01*
X129335834Y-100582000D01*
X129335835Y-100582000D01*
X129483431Y-100552641D01*
X129650806Y-100440806D01*
X129679038Y-100398553D01*
X130922533Y-99155059D01*
X130922535Y-99155056D01*
X133813592Y-96264000D01*
X140666166Y-96264000D01*
X140716000Y-96273913D01*
X140765834Y-96264000D01*
X140765835Y-96264000D01*
X140913431Y-96234641D01*
X141080806Y-96122806D01*
X141109039Y-96080552D01*
X143865591Y-93324001D01*
X144507000Y-93324001D01*
X144507000Y-93373351D01*
X144625900Y-93660401D01*
X144845599Y-93880100D01*
X145132649Y-93999000D01*
X145443351Y-93999000D01*
X145730401Y-93880100D01*
X145950100Y-93660401D01*
X146069000Y-93373351D01*
X146069000Y-93062649D01*
X145950100Y-92775599D01*
X145730401Y-92555900D01*
X145443351Y-92437000D01*
X145228569Y-92437000D01*
X145085432Y-92341360D01*
X144937836Y-92312001D01*
X144937835Y-92312001D01*
X144888001Y-92302088D01*
X144838167Y-92312001D01*
X143705832Y-92312001D01*
X143655998Y-92302088D01*
X143606164Y-92312001D01*
X143458568Y-92341360D01*
X143291193Y-92453195D01*
X143262962Y-92495446D01*
X140506409Y-95252000D01*
X133653833Y-95252000D01*
X133603999Y-95242087D01*
X133554165Y-95252000D01*
X133406569Y-95281359D01*
X133239194Y-95393194D01*
X133210963Y-95435445D01*
X130206944Y-98439465D01*
X130206941Y-98439467D01*
X129076409Y-99570000D01*
X122891592Y-99570000D01*
X118108000Y-94786409D01*
X118108000Y-89244501D01*
X118264100Y-89088401D01*
X118383000Y-88801351D01*
X118383000Y-88490649D01*
X118264100Y-88203599D01*
X118044401Y-87983900D01*
X117757351Y-87865000D01*
X117446649Y-87865000D01*
X117159599Y-87983900D01*
X116939900Y-88203599D01*
X116821000Y-88490649D01*
X106934000Y-88490649D01*
X106934000Y-87266091D01*
X111207592Y-82992500D01*
X114844499Y-82992500D01*
X115000599Y-83148600D01*
X115287649Y-83267500D01*
X115598351Y-83267500D01*
X115885401Y-83148600D01*
X116105100Y-82928901D01*
X116224000Y-82641851D01*
X116224000Y-82331149D01*
X116105100Y-82044099D01*
X115885401Y-81824400D01*
X115598351Y-81705500D01*
X115287649Y-81705500D01*
X115000599Y-81824400D01*
X114844499Y-81980500D01*
X111047833Y-81980500D01*
X110997999Y-81970587D01*
X110948165Y-81980500D01*
X110800569Y-82009859D01*
X110633194Y-82121694D01*
X110604963Y-82163945D01*
X106934000Y-85834909D01*
X106934000Y-79756000D01*
X120896087Y-79756000D01*
X120906000Y-79805834D01*
X120906001Y-82182661D01*
X120906000Y-82182666D01*
X120906001Y-84024161D01*
X120896087Y-84074000D01*
X120935360Y-84271431D01*
X121047195Y-84438806D01*
X121089445Y-84467036D01*
X121393000Y-84770591D01*
X121393000Y-84991351D01*
X121511900Y-85278401D01*
X121731599Y-85498100D01*
X122018649Y-85617000D01*
X122329351Y-85617000D01*
X122616401Y-85498100D01*
X122836100Y-85278401D01*
X122955000Y-84991351D01*
X122955000Y-84680649D01*
X122836100Y-84393599D01*
X122616401Y-84173900D01*
X122329351Y-84055000D01*
X122108591Y-84055000D01*
X121918000Y-83864409D01*
X121918000Y-79965591D01*
X122320092Y-79563500D01*
X123076666Y-79563500D01*
X123126500Y-79573413D01*
X123176334Y-79563500D01*
X123176335Y-79563500D01*
X123323931Y-79534141D01*
X123491306Y-79422306D01*
X123519539Y-79380052D01*
X128035093Y-74864500D01*
X139871409Y-74864500D01*
X148528501Y-83521593D01*
X148528500Y-84943908D01*
X148317491Y-85154917D01*
X148340000Y-85100576D01*
X148340000Y-84543224D01*
X148126710Y-84028297D01*
X147732603Y-83634190D01*
X147217676Y-83420900D01*
X146660324Y-83420900D01*
X146145397Y-83634190D01*
X145751290Y-84028297D01*
X145669000Y-84226962D01*
X145586710Y-84028297D01*
X145192603Y-83634190D01*
X144677676Y-83420900D01*
X144120324Y-83420900D01*
X143885001Y-83518374D01*
X143885001Y-79420834D01*
X143894914Y-79371000D01*
X143868873Y-79240087D01*
X143855642Y-79173570D01*
X143743807Y-79006195D01*
X143701557Y-78977965D01*
X141109039Y-76385448D01*
X141080806Y-76343194D01*
X140913431Y-76231359D01*
X140765835Y-76202000D01*
X140765834Y-76202000D01*
X140716000Y-76192087D01*
X140666166Y-76202000D01*
X128360501Y-76202000D01*
X128204401Y-76045900D01*
X127917351Y-75927000D01*
X127606649Y-75927000D01*
X127319599Y-76045900D01*
X127099900Y-76265599D01*
X126981000Y-76552649D01*
X126981000Y-76863351D01*
X127099900Y-77150401D01*
X127319599Y-77370100D01*
X127606649Y-77489000D01*
X127917351Y-77489000D01*
X128204401Y-77370100D01*
X128360501Y-77214000D01*
X140506409Y-77214000D01*
X142873001Y-79580593D01*
X142873002Y-83752062D01*
X142863088Y-83801901D01*
X142902361Y-83999332D01*
X143014196Y-84166707D01*
X143056446Y-84194937D01*
X143117129Y-84255621D01*
X142998000Y-84543224D01*
X142998000Y-85100576D01*
X143203212Y-85596001D01*
X131650593Y-85596001D01*
X126765000Y-80710409D01*
X126765000Y-80489649D01*
X126646100Y-80202599D01*
X126426401Y-79982900D01*
X126139351Y-79864000D01*
X125828649Y-79864000D01*
X125541599Y-79982900D01*
X125321900Y-80202599D01*
X125203000Y-80489649D01*
X125203000Y-80608908D01*
X124923500Y-80329409D01*
X124923500Y-80108649D01*
X124804600Y-79821599D01*
X124584901Y-79601900D01*
X124297851Y-79483000D01*
X123987149Y-79483000D01*
X123700099Y-79601900D01*
X123480400Y-79821599D01*
X123361500Y-80108649D01*
X123361500Y-80419351D01*
X123480400Y-80706401D01*
X123700099Y-80926100D01*
X123987149Y-81045000D01*
X124207909Y-81045000D01*
X124855464Y-81692556D01*
X124883695Y-81734807D01*
X124996282Y-81810034D01*
X125051069Y-81846642D01*
X125248501Y-81885914D01*
X125298336Y-81876001D01*
X125610410Y-81876001D01*
X131320000Y-87585592D01*
X131320001Y-92548401D01*
X131320000Y-92548406D01*
X131320001Y-94044727D01*
X129026948Y-96337781D01*
X128984694Y-96366014D01*
X128872859Y-96533390D01*
X128844014Y-96678400D01*
X128833587Y-96730820D01*
X128843500Y-96780654D01*
X128843501Y-97508998D01*
X128687400Y-97665099D01*
X128568500Y-97952149D01*
X128568500Y-98262851D01*
X128687400Y-98549901D01*
X128907099Y-98769600D01*
X129194149Y-98888500D01*
X129504851Y-98888500D01*
X129791901Y-98769600D01*
X130011600Y-98549901D01*
X130130500Y-98262851D01*
X130130500Y-97952149D01*
X130011600Y-97665099D01*
X129855500Y-97508999D01*
X129855500Y-96940411D01*
X132148555Y-94647357D01*
X132190806Y-94619126D01*
X132302641Y-94451751D01*
X132332000Y-94304155D01*
X132332000Y-94304154D01*
X132341913Y-94254320D01*
X132332000Y-94204486D01*
X132332000Y-90829001D01*
X143538605Y-90829001D01*
X143639716Y-91097931D01*
X144256687Y-91327794D01*
X144914659Y-91304054D01*
X145412284Y-91097931D01*
X145513395Y-90829001D01*
X144526000Y-89841605D01*
X143538605Y-90829001D01*
X132332000Y-90829001D01*
X132332000Y-89392687D01*
X142860206Y-89392687D01*
X142883946Y-90050659D01*
X143090069Y-90548284D01*
X143358999Y-90649395D01*
X144346395Y-89662000D01*
X143358999Y-88674605D01*
X143090069Y-88775716D01*
X142860206Y-89392687D01*
X132332000Y-89392687D01*
X132332000Y-87425833D01*
X132341913Y-87375999D01*
X132331486Y-87323579D01*
X132302641Y-87178569D01*
X132190806Y-87011194D01*
X132148556Y-86982964D01*
X131773593Y-86608001D01*
X143222474Y-86608001D01*
X143125000Y-86843324D01*
X143125000Y-87400676D01*
X143338290Y-87915603D01*
X143646108Y-88223421D01*
X143639716Y-88226069D01*
X143538605Y-88494999D01*
X144526000Y-89482395D01*
X145513395Y-88494999D01*
X145412284Y-88226069D01*
X145405698Y-88223615D01*
X145713710Y-87915603D01*
X145796000Y-87716938D01*
X145878290Y-87915603D01*
X146272397Y-88309710D01*
X146471062Y-88392000D01*
X146272397Y-88474290D01*
X145964579Y-88782108D01*
X145961931Y-88775716D01*
X145693001Y-88674605D01*
X144705605Y-89662000D01*
X145693001Y-90649395D01*
X145961931Y-90548284D01*
X145964385Y-90541698D01*
X146272397Y-90849710D01*
X146787324Y-91063000D01*
X147344676Y-91063000D01*
X147859603Y-90849710D01*
X148253710Y-90455603D01*
X148467000Y-89940676D01*
X148467000Y-89383324D01*
X148253710Y-88868397D01*
X147859603Y-88474290D01*
X147660938Y-88392000D01*
X147859603Y-88309710D01*
X148253710Y-87915603D01*
X148467000Y-87400676D01*
X148467000Y-86843324D01*
X148347871Y-86555721D01*
X149357056Y-85546536D01*
X149399306Y-85518306D01*
X149511141Y-85350931D01*
X149540500Y-85203335D01*
X149540500Y-85203334D01*
X149550413Y-85153501D01*
X149540500Y-85103667D01*
X149540500Y-83361833D01*
X149550413Y-83311999D01*
X149517910Y-83148600D01*
X149511141Y-83114569D01*
X149399306Y-82947194D01*
X149357055Y-82918963D01*
X140474039Y-74035948D01*
X140445806Y-73993694D01*
X140278431Y-73881859D01*
X140130835Y-73852500D01*
X140130834Y-73852500D01*
X140081000Y-73842587D01*
X140031166Y-73852500D01*
X127875335Y-73852500D01*
X127825500Y-73842587D01*
X127775665Y-73852500D01*
X127628069Y-73881859D01*
X127460694Y-73993694D01*
X127432465Y-74035942D01*
X122916909Y-78551500D01*
X122160333Y-78551500D01*
X122110499Y-78541587D01*
X122060665Y-78551500D01*
X121913069Y-78580859D01*
X121745694Y-78692694D01*
X121717463Y-78734945D01*
X121089447Y-79362962D01*
X121047194Y-79391194D01*
X120935359Y-79558570D01*
X120906514Y-79703580D01*
X120896087Y-79756000D01*
X106934000Y-79756000D01*
X106934000Y-65519235D01*
X107937236Y-64516000D01*
X109240347Y-64516000D01*
X109151000Y-64731704D01*
X109151000Y-65062296D01*
X109277512Y-65367724D01*
X109511276Y-65601488D01*
X109816704Y-65728000D01*
X110147296Y-65728000D01*
X110452724Y-65601488D01*
X110617000Y-65437212D01*
X110781276Y-65601488D01*
X111086704Y-65728000D01*
X111417296Y-65728000D01*
X111722724Y-65601488D01*
X111887000Y-65437212D01*
X112051276Y-65601488D01*
X112356704Y-65728000D01*
X112687296Y-65728000D01*
X112992724Y-65601488D01*
X113157000Y-65437212D01*
X113321276Y-65601488D01*
X113626704Y-65728000D01*
X113957296Y-65728000D01*
X114262724Y-65601488D01*
X114427000Y-65437212D01*
X114591276Y-65601488D01*
X114896704Y-65728000D01*
X115227296Y-65728000D01*
X115532724Y-65601488D01*
X115766488Y-65367724D01*
X115893000Y-65062296D01*
X115893000Y-64731704D01*
X115795439Y-64496170D01*
X115876804Y-64441804D01*
X115988640Y-64274430D01*
X116027912Y-64076999D01*
X115988640Y-63879567D01*
X115905033Y-63754441D01*
X115893000Y-63742408D01*
X115893000Y-63461704D01*
X115766488Y-63156276D01*
X115532724Y-62922512D01*
X115227296Y-62796000D01*
X114896704Y-62796000D01*
X114591276Y-62922512D01*
X114427000Y-63086788D01*
X114262724Y-62922512D01*
X113957296Y-62796000D01*
X113626704Y-62796000D01*
X113321276Y-62922512D01*
X113157000Y-63086788D01*
X112992724Y-62922512D01*
X112687296Y-62796000D01*
X112356704Y-62796000D01*
X112051276Y-62922512D01*
X111817512Y-63156276D01*
X111757538Y-63301067D01*
X111431605Y-63627000D01*
X111445748Y-63641143D01*
X111266143Y-63820748D01*
X111252000Y-63806605D01*
X111237858Y-63820748D01*
X111058253Y-63641143D01*
X111072395Y-63627000D01*
X110842733Y-63397338D01*
X110819419Y-63280130D01*
X110622933Y-62986067D01*
X110454098Y-62873255D01*
X110677860Y-62873255D01*
X111252000Y-63447395D01*
X111826140Y-62873255D01*
X111795197Y-62663288D01*
X111385052Y-62528774D01*
X110954651Y-62561454D01*
X110708803Y-62663288D01*
X110677860Y-62873255D01*
X110454098Y-62873255D01*
X110328870Y-62789581D01*
X110069556Y-62738000D01*
X107656550Y-62738000D01*
X107568999Y-62720585D01*
X107481448Y-62738000D01*
X107481444Y-62738000D01*
X107222130Y-62789581D01*
X106928067Y-62986067D01*
X106878471Y-63060293D01*
X105478294Y-64460471D01*
X105404068Y-64510067D01*
X105354472Y-64584293D01*
X105354471Y-64584294D01*
X105207582Y-64804130D01*
X105138584Y-65151000D01*
X105156001Y-65238560D01*
X105156000Y-87146055D01*
X105156001Y-87146060D01*
X105156000Y-91352445D01*
X105138584Y-91440000D01*
X105156000Y-91527555D01*
X105207581Y-91786869D01*
X105404067Y-92080933D01*
X105478296Y-92130531D01*
X115641471Y-102293707D01*
X115691067Y-102367933D01*
X115985130Y-102564419D01*
X116244444Y-102616000D01*
X116244445Y-102616000D01*
X116332000Y-102633416D01*
X116419555Y-102616000D01*
X138369728Y-102616000D01*
X137441445Y-103544284D01*
X137399195Y-103572514D01*
X137323779Y-103685384D01*
X137287360Y-103739889D01*
X137248087Y-103937320D01*
X137258001Y-103987159D01*
X137258000Y-106675161D01*
X136970397Y-106794290D01*
X136576290Y-107188397D01*
X136494000Y-107387062D01*
X136411710Y-107188397D01*
X136017603Y-106794290D01*
X135502676Y-106581000D01*
X134945324Y-106581000D01*
X134430397Y-106794290D01*
X134036290Y-107188397D01*
X133954000Y-107387062D01*
X133871710Y-107188397D01*
X133477603Y-106794290D01*
X132962676Y-106581000D01*
X132405324Y-106581000D01*
X131890397Y-106794290D01*
X131496290Y-107188397D01*
X131414000Y-107387062D01*
X131331710Y-107188397D01*
X130937603Y-106794290D01*
X130422676Y-106581000D01*
X129865324Y-106581000D01*
X129350397Y-106794290D01*
X128956290Y-107188397D01*
X128874000Y-107387062D01*
X128791710Y-107188397D01*
X128397603Y-106794290D01*
X127882676Y-106581000D01*
X127325324Y-106581000D01*
X126810397Y-106794290D01*
X126416290Y-107188397D01*
X126334000Y-107387062D01*
X126251710Y-107188397D01*
X125857603Y-106794290D01*
X125342676Y-106581000D01*
X124785324Y-106581000D01*
X124270397Y-106794290D01*
X123876290Y-107188397D01*
X123663000Y-107703324D01*
X123663000Y-108260676D01*
X123876290Y-108775603D01*
X124270397Y-109169710D01*
X124785324Y-109383000D01*
X125342676Y-109383000D01*
X125857603Y-109169710D01*
X126251710Y-108775603D01*
X126334000Y-108576938D01*
X126416290Y-108775603D01*
X126810397Y-109169710D01*
X127325324Y-109383000D01*
X127882676Y-109383000D01*
X128397603Y-109169710D01*
X128791710Y-108775603D01*
X128874000Y-108576938D01*
X128956290Y-108775603D01*
X129350397Y-109169710D01*
X129865324Y-109383000D01*
X130422676Y-109383000D01*
X130937603Y-109169710D01*
X131331710Y-108775603D01*
X131414000Y-108576938D01*
X131496290Y-108775603D01*
X131890397Y-109169710D01*
X132405324Y-109383000D01*
X132962676Y-109383000D01*
X133477603Y-109169710D01*
X133871710Y-108775603D01*
X133954000Y-108576938D01*
X134036290Y-108775603D01*
X134430397Y-109169710D01*
X134945324Y-109383000D01*
X135502676Y-109383000D01*
X136017603Y-109169710D01*
X136411710Y-108775603D01*
X136494000Y-108576938D01*
X136576290Y-108775603D01*
X136970397Y-109169710D01*
X137485324Y-109383000D01*
X138042676Y-109383000D01*
X138557603Y-109169710D01*
X138865421Y-108861892D01*
X138868069Y-108868284D01*
X139136999Y-108969395D01*
X140124395Y-107982000D01*
X140483605Y-107982000D01*
X141471001Y-108969395D01*
X141574000Y-108930670D01*
X141676999Y-108969395D01*
X142664395Y-107982000D01*
X143023605Y-107982000D01*
X144011001Y-108969395D01*
X144279931Y-108868284D01*
X144509794Y-108251313D01*
X144486054Y-107593341D01*
X144279931Y-107095716D01*
X144011001Y-106994605D01*
X143023605Y-107982000D01*
X142664395Y-107982000D01*
X141676999Y-106994605D01*
X141574000Y-107033330D01*
X141471001Y-106994605D01*
X140483605Y-107982000D01*
X140124395Y-107982000D01*
X139136999Y-106994605D01*
X138868069Y-107095716D01*
X138865615Y-107102302D01*
X138578312Y-106814999D01*
X139316605Y-106814999D01*
X140304000Y-107802395D01*
X141291395Y-106814999D01*
X141856605Y-106814999D01*
X142844000Y-107802395D01*
X143831395Y-106814999D01*
X143730284Y-106546069D01*
X143113313Y-106316206D01*
X142455341Y-106339946D01*
X141957716Y-106546069D01*
X141856605Y-106814999D01*
X141291395Y-106814999D01*
X141190284Y-106546069D01*
X140573313Y-106316206D01*
X139915341Y-106339946D01*
X139417716Y-106546069D01*
X139316605Y-106814999D01*
X138578312Y-106814999D01*
X138557603Y-106794290D01*
X138270000Y-106675161D01*
X138270000Y-104146911D01*
X139800913Y-102616000D01*
X145581445Y-102616000D01*
X145669000Y-102633416D01*
X145756555Y-102616000D01*
X145756556Y-102616000D01*
X146015870Y-102564419D01*
X146309933Y-102367933D01*
X146359531Y-102293704D01*
X153721530Y-94931706D01*
X153721532Y-94931703D01*
X153907235Y-94746000D01*
X154329676Y-94746000D01*
X154844603Y-94532710D01*
X155117801Y-94259512D01*
X155117801Y-95802743D01*
X155117800Y-95802748D01*
X155117800Y-96240487D01*
X154819090Y-96539197D01*
X154605800Y-97054124D01*
X154605800Y-97611476D01*
X154819090Y-98126403D01*
X155213197Y-98520510D01*
X155728124Y-98733800D01*
X156285476Y-98733800D01*
X156800403Y-98520510D01*
X157194510Y-98126403D01*
X157407800Y-97611476D01*
X157407800Y-97079524D01*
X157920500Y-97079524D01*
X157920500Y-97636876D01*
X158133790Y-98151803D01*
X158527897Y-98545910D01*
X159042824Y-98759200D01*
X159600176Y-98759200D01*
X160115103Y-98545910D01*
X160509210Y-98151803D01*
X160722500Y-97636876D01*
X160722500Y-97079524D01*
X160509210Y-96564597D01*
X160210500Y-96265887D01*
X160210500Y-94512001D01*
X160683605Y-94512001D01*
X160784716Y-94780931D01*
X161401687Y-95010794D01*
X162059659Y-94987054D01*
X162557284Y-94780931D01*
X162658395Y-94512001D01*
X161671000Y-93524605D01*
X160683605Y-94512001D01*
X160210500Y-94512001D01*
X160210500Y-94171969D01*
X160235069Y-94231284D01*
X160503999Y-94332395D01*
X161491395Y-93345000D01*
X161850605Y-93345000D01*
X162838001Y-94332395D01*
X163106931Y-94231284D01*
X163336794Y-93614313D01*
X163313054Y-92956341D01*
X163106931Y-92458716D01*
X162838001Y-92357605D01*
X161850605Y-93345000D01*
X161491395Y-93345000D01*
X160503999Y-92357605D01*
X160235069Y-92458716D01*
X160210500Y-92524661D01*
X160210500Y-92177999D01*
X160683605Y-92177999D01*
X161671000Y-93165395D01*
X162658395Y-92177999D01*
X162557284Y-91909069D01*
X161940313Y-91679206D01*
X161282341Y-91702946D01*
X160784716Y-91909069D01*
X160683605Y-92177999D01*
X160210500Y-92177999D01*
X160210500Y-78409735D01*
X162386236Y-76234000D01*
X163768687Y-76234000D01*
X164067397Y-76532710D01*
X164582324Y-76746000D01*
X165139676Y-76746000D01*
X165654603Y-76532710D01*
X166048710Y-76138603D01*
X166262000Y-75623676D01*
X166262000Y-75066324D01*
X166048710Y-74551397D01*
X165654603Y-74157290D01*
X165139676Y-73944000D01*
X164582324Y-73944000D01*
X164067397Y-74157290D01*
X163768687Y-74456000D01*
X162105555Y-74456000D01*
X162018000Y-74438584D01*
X161930445Y-74456000D01*
X161930444Y-74456000D01*
X161671130Y-74507581D01*
X161377067Y-74704067D01*
X161327471Y-74778293D01*
X158754794Y-77350971D01*
X158680568Y-77400567D01*
X158630972Y-77474793D01*
X158630971Y-77474794D01*
X158484082Y-77694630D01*
X158415084Y-78041500D01*
X158432501Y-78129060D01*
X158432500Y-96265887D01*
X158133790Y-96564597D01*
X157920500Y-97079524D01*
X157407800Y-97079524D01*
X157407800Y-97054124D01*
X157194510Y-96539197D01*
X156895800Y-96240487D01*
X156895800Y-82935792D01*
X156913215Y-82848241D01*
X156895800Y-82760690D01*
X156895800Y-82760686D01*
X156844219Y-82501372D01*
X156647733Y-82207309D01*
X156573507Y-82157713D01*
X151161793Y-76746000D01*
X151339676Y-76746000D01*
X151854603Y-76532710D01*
X152248710Y-76138603D01*
X152462000Y-75623676D01*
X152462000Y-75201235D01*
X155944707Y-71718529D01*
X156018933Y-71668933D01*
X156215419Y-71374870D01*
X156267000Y-71115556D01*
X156267000Y-71115555D01*
X156284416Y-71028000D01*
X156267000Y-70940445D01*
X156267000Y-61323202D01*
X156288659Y-61318894D01*
X156414686Y-61234686D01*
X156498894Y-61108659D01*
X156528464Y-60960000D01*
X156528464Y-59436000D01*
X156498894Y-59287341D01*
X156414686Y-59161314D01*
X156288659Y-59077106D01*
X156140000Y-59047536D01*
X154616000Y-59047536D01*
X154467341Y-59077106D01*
X154341314Y-59161314D01*
X154257106Y-59287341D01*
X154227536Y-59436000D01*
X154227536Y-60960000D01*
X154257106Y-61108659D01*
X154341314Y-61234686D01*
X154467341Y-61318894D01*
X154489001Y-61323202D01*
X154489000Y-70659764D01*
X151204765Y-73944000D01*
X150782324Y-73944000D01*
X150267397Y-74157290D01*
X149873290Y-74551397D01*
X149660000Y-75066324D01*
X149660000Y-75244207D01*
X147320000Y-72904207D01*
X147320000Y-69799313D01*
X147618710Y-69500603D01*
X147832000Y-68985676D01*
X147832000Y-68428324D01*
X147618710Y-67913397D01*
X147224603Y-67519290D01*
X146709676Y-67306000D01*
X146287236Y-67306000D01*
X138993531Y-60012296D01*
X138943933Y-59938067D01*
X138649870Y-59741581D01*
X138390556Y-59690000D01*
X138390555Y-59690000D01*
X138303000Y-59672584D01*
X138215445Y-59690000D01*
X104503202Y-59690000D01*
X104498894Y-59668341D01*
X104414686Y-59542314D01*
X104288659Y-59458106D01*
X104140000Y-59428536D01*
X102809514Y-59428536D01*
X102906336Y-59330053D01*
X103753061Y-58682977D01*
X104682517Y-58161659D01*
X105676156Y-57776504D01*
X106714138Y-57535199D01*
X107757188Y-57444175D01*
X107851828Y-57463000D01*
X107851828Y-57463000D01*
G37*
X107851828Y-57463000D02*
X155804897Y-57463000D01*
X155811641Y-57463996D01*
X155826712Y-57465102D01*
X157176975Y-57542958D01*
X158482037Y-57770727D01*
X159752258Y-58146984D01*
X160970813Y-58666742D01*
X162121560Y-59323115D01*
X163189234Y-60107400D01*
X164159696Y-61009208D01*
X165020069Y-62016574D01*
X165758959Y-63116159D01*
X166366569Y-64293382D01*
X166834846Y-65532643D01*
X167157580Y-66817500D01*
X167331158Y-68135955D01*
X167356095Y-68816031D01*
X167344436Y-68873198D01*
X167184177Y-101949842D01*
X167188344Y-101971332D01*
X167118784Y-102962934D01*
X166895170Y-104004881D01*
X166526974Y-105004929D01*
X166021549Y-105943110D01*
X165388970Y-106800725D01*
X164641864Y-107560650D01*
X163795134Y-108207728D01*
X162865684Y-108729042D01*
X161872049Y-109114195D01*
X160834065Y-109355501D01*
X159758162Y-109449392D01*
X159595792Y-109450206D01*
X159595676Y-109450215D01*
X143620364Y-109463461D01*
X143730284Y-109417931D01*
X143831395Y-109149001D01*
X142844000Y-108161605D01*
X141856605Y-109149001D01*
X141957716Y-109417931D01*
X142083344Y-109464736D01*
X141075269Y-109465572D01*
X141190284Y-109417931D01*
X141291395Y-109149001D01*
X140304000Y-108161605D01*
X139316605Y-109149001D01*
X139417716Y-109417931D01*
X139548984Y-109466837D01*
X111420630Y-109490161D01*
X111417265Y-109489519D01*
X111402254Y-109487782D01*
X110056427Y-109353450D01*
X108762061Y-109071234D01*
X107508708Y-108642114D01*
X106312973Y-108071779D01*
X105190735Y-107367799D01*
X104156835Y-106539490D01*
X103224992Y-105597839D01*
X102407556Y-104555323D01*
X101715360Y-103425762D01*
X101157583Y-102224136D01*
X100741609Y-100966347D01*
X100472963Y-99669102D01*
X100354300Y-98339508D01*
X100350145Y-98075035D01*
X100357000Y-98040573D01*
X100357000Y-64960132D01*
X100429419Y-63927766D01*
X100653030Y-62885825D01*
X101021229Y-61885771D01*
X101526654Y-60947590D01*
X102159233Y-60089975D01*
X102227536Y-60020500D01*
X102227536Y-61341000D01*
X102257106Y-61489659D01*
X102341314Y-61615686D01*
X102467341Y-61699894D01*
X102616000Y-61729464D01*
X104140000Y-61729464D01*
X104288659Y-61699894D01*
X104414686Y-61615686D01*
X104498894Y-61489659D01*
X104503202Y-61468000D01*
X137934765Y-61468000D01*
X145030000Y-68563236D01*
X145030000Y-68985676D01*
X145243290Y-69500603D01*
X145542000Y-69799313D01*
X145542001Y-73184883D01*
X145524584Y-73272442D01*
X145593582Y-73619312D01*
X145790068Y-73913375D01*
X145864294Y-73962971D01*
X146910512Y-75009189D01*
X146709676Y-74926000D01*
X146152324Y-74926000D01*
X145637397Y-75139290D01*
X145243290Y-75533397D01*
X145030000Y-76048324D01*
X145030000Y-76605676D01*
X145243290Y-77120603D01*
X145637397Y-77514710D01*
X146152324Y-77728000D01*
X146709676Y-77728000D01*
X147224603Y-77514710D01*
X147618710Y-77120603D01*
X147832000Y-76605676D01*
X147832000Y-76048324D01*
X147748811Y-75847488D01*
X155117800Y-83216478D01*
X155117801Y-92430488D01*
X154844603Y-92157290D01*
X154329676Y-91944000D01*
X153772324Y-91944000D01*
X153257397Y-92157290D01*
X152863290Y-92551397D01*
X152650000Y-93066324D01*
X152650000Y-93488765D01*
X152464297Y-93674468D01*
X152464294Y-93674470D01*
X145300765Y-100838000D01*
X145186001Y-100838000D01*
X145378600Y-100645401D01*
X145497500Y-100358351D01*
X145497500Y-100047649D01*
X145378600Y-99760599D01*
X145158901Y-99540900D01*
X144871851Y-99422000D01*
X144651092Y-99422000D01*
X143731538Y-98502447D01*
X143703305Y-98460193D01*
X143535930Y-98348358D01*
X143388334Y-98318999D01*
X143388333Y-98318999D01*
X143338499Y-98309086D01*
X143288665Y-98318999D01*
X139147500Y-98318999D01*
X139147500Y-98269649D01*
X139028600Y-97982599D01*
X138808901Y-97762900D01*
X138521851Y-97644000D01*
X138211149Y-97644000D01*
X137924099Y-97762900D01*
X137704400Y-97982599D01*
X137585500Y-98269649D01*
X137585500Y-98580351D01*
X137704400Y-98867401D01*
X137924099Y-99087100D01*
X138211149Y-99206000D01*
X138425931Y-99206000D01*
X138569068Y-99301640D01*
X138716664Y-99330999D01*
X138766498Y-99340912D01*
X138816332Y-99330999D01*
X143128908Y-99330999D01*
X143935500Y-100137592D01*
X143935500Y-100358351D01*
X144054400Y-100645401D01*
X144246999Y-100838000D01*
X116700236Y-100838000D01*
X106934000Y-91071765D01*
X106934000Y-88490649D01*
X116821000Y-88490649D01*
X116821000Y-88801351D01*
X116939900Y-89088401D01*
X117096001Y-89244502D01*
X117096000Y-94946166D01*
X117086087Y-94996000D01*
X117096000Y-95045834D01*
X117125359Y-95193430D01*
X117237194Y-95360806D01*
X117279448Y-95389039D01*
X122288963Y-100398555D01*
X122317194Y-100440806D01*
X122484569Y-100552641D01*
X122632165Y-100582000D01*
X122632166Y-100582000D01*
X122682000Y-100591913D01*
X122731834Y-100582000D01*
X129236166Y-100582000D01*
X129286000Y-100591913D01*
X129335834Y-100582000D01*
X129335835Y-100582000D01*
X129483431Y-100552641D01*
X129650806Y-100440806D01*
X129679038Y-100398553D01*
X130922533Y-99155059D01*
X130922535Y-99155056D01*
X133813592Y-96264000D01*
X140666166Y-96264000D01*
X140716000Y-96273913D01*
X140765834Y-96264000D01*
X140765835Y-96264000D01*
X140913431Y-96234641D01*
X141080806Y-96122806D01*
X141109039Y-96080552D01*
X143865591Y-93324001D01*
X144507000Y-93324001D01*
X144507000Y-93373351D01*
X144625900Y-93660401D01*
X144845599Y-93880100D01*
X145132649Y-93999000D01*
X145443351Y-93999000D01*
X145730401Y-93880100D01*
X145950100Y-93660401D01*
X146069000Y-93373351D01*
X146069000Y-93062649D01*
X145950100Y-92775599D01*
X145730401Y-92555900D01*
X145443351Y-92437000D01*
X145228569Y-92437000D01*
X145085432Y-92341360D01*
X144937836Y-92312001D01*
X144937835Y-92312001D01*
X144888001Y-92302088D01*
X144838167Y-92312001D01*
X143705832Y-92312001D01*
X143655998Y-92302088D01*
X143606164Y-92312001D01*
X143458568Y-92341360D01*
X143291193Y-92453195D01*
X143262962Y-92495446D01*
X140506409Y-95252000D01*
X133653833Y-95252000D01*
X133603999Y-95242087D01*
X133554165Y-95252000D01*
X133406569Y-95281359D01*
X133239194Y-95393194D01*
X133210963Y-95435445D01*
X130206944Y-98439465D01*
X130206941Y-98439467D01*
X129076409Y-99570000D01*
X122891592Y-99570000D01*
X118108000Y-94786409D01*
X118108000Y-89244501D01*
X118264100Y-89088401D01*
X118383000Y-88801351D01*
X118383000Y-88490649D01*
X118264100Y-88203599D01*
X118044401Y-87983900D01*
X117757351Y-87865000D01*
X117446649Y-87865000D01*
X117159599Y-87983900D01*
X116939900Y-88203599D01*
X116821000Y-88490649D01*
X106934000Y-88490649D01*
X106934000Y-87266091D01*
X111207592Y-82992500D01*
X114844499Y-82992500D01*
X115000599Y-83148600D01*
X115287649Y-83267500D01*
X115598351Y-83267500D01*
X115885401Y-83148600D01*
X116105100Y-82928901D01*
X116224000Y-82641851D01*
X116224000Y-82331149D01*
X116105100Y-82044099D01*
X115885401Y-81824400D01*
X115598351Y-81705500D01*
X115287649Y-81705500D01*
X115000599Y-81824400D01*
X114844499Y-81980500D01*
X111047833Y-81980500D01*
X110997999Y-81970587D01*
X110948165Y-81980500D01*
X110800569Y-82009859D01*
X110633194Y-82121694D01*
X110604963Y-82163945D01*
X106934000Y-85834909D01*
X106934000Y-79756000D01*
X120896087Y-79756000D01*
X120906000Y-79805834D01*
X120906001Y-82182661D01*
X120906000Y-82182666D01*
X120906001Y-84024161D01*
X120896087Y-84074000D01*
X120935360Y-84271431D01*
X121047195Y-84438806D01*
X121089445Y-84467036D01*
X121393000Y-84770591D01*
X121393000Y-84991351D01*
X121511900Y-85278401D01*
X121731599Y-85498100D01*
X122018649Y-85617000D01*
X122329351Y-85617000D01*
X122616401Y-85498100D01*
X122836100Y-85278401D01*
X122955000Y-84991351D01*
X122955000Y-84680649D01*
X122836100Y-84393599D01*
X122616401Y-84173900D01*
X122329351Y-84055000D01*
X122108591Y-84055000D01*
X121918000Y-83864409D01*
X121918000Y-79965591D01*
X122320092Y-79563500D01*
X123076666Y-79563500D01*
X123126500Y-79573413D01*
X123176334Y-79563500D01*
X123176335Y-79563500D01*
X123323931Y-79534141D01*
X123491306Y-79422306D01*
X123519539Y-79380052D01*
X128035093Y-74864500D01*
X139871409Y-74864500D01*
X148528501Y-83521593D01*
X148528500Y-84943908D01*
X148317491Y-85154917D01*
X148340000Y-85100576D01*
X148340000Y-84543224D01*
X148126710Y-84028297D01*
X147732603Y-83634190D01*
X147217676Y-83420900D01*
X146660324Y-83420900D01*
X146145397Y-83634190D01*
X145751290Y-84028297D01*
X145669000Y-84226962D01*
X145586710Y-84028297D01*
X145192603Y-83634190D01*
X144677676Y-83420900D01*
X144120324Y-83420900D01*
X143885001Y-83518374D01*
X143885001Y-79420834D01*
X143894914Y-79371000D01*
X143868873Y-79240087D01*
X143855642Y-79173570D01*
X143743807Y-79006195D01*
X143701557Y-78977965D01*
X141109039Y-76385448D01*
X141080806Y-76343194D01*
X140913431Y-76231359D01*
X140765835Y-76202000D01*
X140765834Y-76202000D01*
X140716000Y-76192087D01*
X140666166Y-76202000D01*
X128360501Y-76202000D01*
X128204401Y-76045900D01*
X127917351Y-75927000D01*
X127606649Y-75927000D01*
X127319599Y-76045900D01*
X127099900Y-76265599D01*
X126981000Y-76552649D01*
X126981000Y-76863351D01*
X127099900Y-77150401D01*
X127319599Y-77370100D01*
X127606649Y-77489000D01*
X127917351Y-77489000D01*
X128204401Y-77370100D01*
X128360501Y-77214000D01*
X140506409Y-77214000D01*
X142873001Y-79580593D01*
X142873002Y-83752062D01*
X142863088Y-83801901D01*
X142902361Y-83999332D01*
X143014196Y-84166707D01*
X143056446Y-84194937D01*
X143117129Y-84255621D01*
X142998000Y-84543224D01*
X142998000Y-85100576D01*
X143203212Y-85596001D01*
X131650593Y-85596001D01*
X126765000Y-80710409D01*
X126765000Y-80489649D01*
X126646100Y-80202599D01*
X126426401Y-79982900D01*
X126139351Y-79864000D01*
X125828649Y-79864000D01*
X125541599Y-79982900D01*
X125321900Y-80202599D01*
X125203000Y-80489649D01*
X125203000Y-80608908D01*
X124923500Y-80329409D01*
X124923500Y-80108649D01*
X124804600Y-79821599D01*
X124584901Y-79601900D01*
X124297851Y-79483000D01*
X123987149Y-79483000D01*
X123700099Y-79601900D01*
X123480400Y-79821599D01*
X123361500Y-80108649D01*
X123361500Y-80419351D01*
X123480400Y-80706401D01*
X123700099Y-80926100D01*
X123987149Y-81045000D01*
X124207909Y-81045000D01*
X124855464Y-81692556D01*
X124883695Y-81734807D01*
X124996282Y-81810034D01*
X125051069Y-81846642D01*
X125248501Y-81885914D01*
X125298336Y-81876001D01*
X125610410Y-81876001D01*
X131320000Y-87585592D01*
X131320001Y-92548401D01*
X131320000Y-92548406D01*
X131320001Y-94044727D01*
X129026948Y-96337781D01*
X128984694Y-96366014D01*
X128872859Y-96533390D01*
X128844014Y-96678400D01*
X128833587Y-96730820D01*
X128843500Y-96780654D01*
X128843501Y-97508998D01*
X128687400Y-97665099D01*
X128568500Y-97952149D01*
X128568500Y-98262851D01*
X128687400Y-98549901D01*
X128907099Y-98769600D01*
X129194149Y-98888500D01*
X129504851Y-98888500D01*
X129791901Y-98769600D01*
X130011600Y-98549901D01*
X130130500Y-98262851D01*
X130130500Y-97952149D01*
X130011600Y-97665099D01*
X129855500Y-97508999D01*
X129855500Y-96940411D01*
X132148555Y-94647357D01*
X132190806Y-94619126D01*
X132302641Y-94451751D01*
X132332000Y-94304155D01*
X132332000Y-94304154D01*
X132341913Y-94254320D01*
X132332000Y-94204486D01*
X132332000Y-90829001D01*
X143538605Y-90829001D01*
X143639716Y-91097931D01*
X144256687Y-91327794D01*
X144914659Y-91304054D01*
X145412284Y-91097931D01*
X145513395Y-90829001D01*
X144526000Y-89841605D01*
X143538605Y-90829001D01*
X132332000Y-90829001D01*
X132332000Y-89392687D01*
X142860206Y-89392687D01*
X142883946Y-90050659D01*
X143090069Y-90548284D01*
X143358999Y-90649395D01*
X144346395Y-89662000D01*
X143358999Y-88674605D01*
X143090069Y-88775716D01*
X142860206Y-89392687D01*
X132332000Y-89392687D01*
X132332000Y-87425833D01*
X132341913Y-87375999D01*
X132331486Y-87323579D01*
X132302641Y-87178569D01*
X132190806Y-87011194D01*
X132148556Y-86982964D01*
X131773593Y-86608001D01*
X143222474Y-86608001D01*
X143125000Y-86843324D01*
X143125000Y-87400676D01*
X143338290Y-87915603D01*
X143646108Y-88223421D01*
X143639716Y-88226069D01*
X143538605Y-88494999D01*
X144526000Y-89482395D01*
X145513395Y-88494999D01*
X145412284Y-88226069D01*
X145405698Y-88223615D01*
X145713710Y-87915603D01*
X145796000Y-87716938D01*
X145878290Y-87915603D01*
X146272397Y-88309710D01*
X146471062Y-88392000D01*
X146272397Y-88474290D01*
X145964579Y-88782108D01*
X145961931Y-88775716D01*
X145693001Y-88674605D01*
X144705605Y-89662000D01*
X145693001Y-90649395D01*
X145961931Y-90548284D01*
X145964385Y-90541698D01*
X146272397Y-90849710D01*
X146787324Y-91063000D01*
X147344676Y-91063000D01*
X147859603Y-90849710D01*
X148253710Y-90455603D01*
X148467000Y-89940676D01*
X148467000Y-89383324D01*
X148253710Y-88868397D01*
X147859603Y-88474290D01*
X147660938Y-88392000D01*
X147859603Y-88309710D01*
X148253710Y-87915603D01*
X148467000Y-87400676D01*
X148467000Y-86843324D01*
X148347871Y-86555721D01*
X149357056Y-85546536D01*
X149399306Y-85518306D01*
X149511141Y-85350931D01*
X149540500Y-85203335D01*
X149540500Y-85203334D01*
X149550413Y-85153501D01*
X149540500Y-85103667D01*
X149540500Y-83361833D01*
X149550413Y-83311999D01*
X149517910Y-83148600D01*
X149511141Y-83114569D01*
X149399306Y-82947194D01*
X149357055Y-82918963D01*
X140474039Y-74035948D01*
X140445806Y-73993694D01*
X140278431Y-73881859D01*
X140130835Y-73852500D01*
X140130834Y-73852500D01*
X140081000Y-73842587D01*
X140031166Y-73852500D01*
X127875335Y-73852500D01*
X127825500Y-73842587D01*
X127775665Y-73852500D01*
X127628069Y-73881859D01*
X127460694Y-73993694D01*
X127432465Y-74035942D01*
X122916909Y-78551500D01*
X122160333Y-78551500D01*
X122110499Y-78541587D01*
X122060665Y-78551500D01*
X121913069Y-78580859D01*
X121745694Y-78692694D01*
X121717463Y-78734945D01*
X121089447Y-79362962D01*
X121047194Y-79391194D01*
X120935359Y-79558570D01*
X120906514Y-79703580D01*
X120896087Y-79756000D01*
X106934000Y-79756000D01*
X106934000Y-65519235D01*
X107937236Y-64516000D01*
X109240347Y-64516000D01*
X109151000Y-64731704D01*
X109151000Y-65062296D01*
X109277512Y-65367724D01*
X109511276Y-65601488D01*
X109816704Y-65728000D01*
X110147296Y-65728000D01*
X110452724Y-65601488D01*
X110617000Y-65437212D01*
X110781276Y-65601488D01*
X111086704Y-65728000D01*
X111417296Y-65728000D01*
X111722724Y-65601488D01*
X111887000Y-65437212D01*
X112051276Y-65601488D01*
X112356704Y-65728000D01*
X112687296Y-65728000D01*
X112992724Y-65601488D01*
X113157000Y-65437212D01*
X113321276Y-65601488D01*
X113626704Y-65728000D01*
X113957296Y-65728000D01*
X114262724Y-65601488D01*
X114427000Y-65437212D01*
X114591276Y-65601488D01*
X114896704Y-65728000D01*
X115227296Y-65728000D01*
X115532724Y-65601488D01*
X115766488Y-65367724D01*
X115893000Y-65062296D01*
X115893000Y-64731704D01*
X115795439Y-64496170D01*
X115876804Y-64441804D01*
X115988640Y-64274430D01*
X116027912Y-64076999D01*
X115988640Y-63879567D01*
X115905033Y-63754441D01*
X115893000Y-63742408D01*
X115893000Y-63461704D01*
X115766488Y-63156276D01*
X115532724Y-62922512D01*
X115227296Y-62796000D01*
X114896704Y-62796000D01*
X114591276Y-62922512D01*
X114427000Y-63086788D01*
X114262724Y-62922512D01*
X113957296Y-62796000D01*
X113626704Y-62796000D01*
X113321276Y-62922512D01*
X113157000Y-63086788D01*
X112992724Y-62922512D01*
X112687296Y-62796000D01*
X112356704Y-62796000D01*
X112051276Y-62922512D01*
X111817512Y-63156276D01*
X111757538Y-63301067D01*
X111431605Y-63627000D01*
X111445748Y-63641143D01*
X111266143Y-63820748D01*
X111252000Y-63806605D01*
X111237858Y-63820748D01*
X111058253Y-63641143D01*
X111072395Y-63627000D01*
X110842733Y-63397338D01*
X110819419Y-63280130D01*
X110622933Y-62986067D01*
X110454098Y-62873255D01*
X110677860Y-62873255D01*
X111252000Y-63447395D01*
X111826140Y-62873255D01*
X111795197Y-62663288D01*
X111385052Y-62528774D01*
X110954651Y-62561454D01*
X110708803Y-62663288D01*
X110677860Y-62873255D01*
X110454098Y-62873255D01*
X110328870Y-62789581D01*
X110069556Y-62738000D01*
X107656550Y-62738000D01*
X107568999Y-62720585D01*
X107481448Y-62738000D01*
X107481444Y-62738000D01*
X107222130Y-62789581D01*
X106928067Y-62986067D01*
X106878471Y-63060293D01*
X105478294Y-64460471D01*
X105404068Y-64510067D01*
X105354472Y-64584293D01*
X105354471Y-64584294D01*
X105207582Y-64804130D01*
X105138584Y-65151000D01*
X105156001Y-65238560D01*
X105156000Y-87146055D01*
X105156001Y-87146060D01*
X105156000Y-91352445D01*
X105138584Y-91440000D01*
X105156000Y-91527555D01*
X105207581Y-91786869D01*
X105404067Y-92080933D01*
X105478296Y-92130531D01*
X115641471Y-102293707D01*
X115691067Y-102367933D01*
X115985130Y-102564419D01*
X116244444Y-102616000D01*
X116244445Y-102616000D01*
X116332000Y-102633416D01*
X116419555Y-102616000D01*
X138369728Y-102616000D01*
X137441445Y-103544284D01*
X137399195Y-103572514D01*
X137323779Y-103685384D01*
X137287360Y-103739889D01*
X137248087Y-103937320D01*
X137258001Y-103987159D01*
X137258000Y-106675161D01*
X136970397Y-106794290D01*
X136576290Y-107188397D01*
X136494000Y-107387062D01*
X136411710Y-107188397D01*
X136017603Y-106794290D01*
X135502676Y-106581000D01*
X134945324Y-106581000D01*
X134430397Y-106794290D01*
X134036290Y-107188397D01*
X133954000Y-107387062D01*
X133871710Y-107188397D01*
X133477603Y-106794290D01*
X132962676Y-106581000D01*
X132405324Y-106581000D01*
X131890397Y-106794290D01*
X131496290Y-107188397D01*
X131414000Y-107387062D01*
X131331710Y-107188397D01*
X130937603Y-106794290D01*
X130422676Y-106581000D01*
X129865324Y-106581000D01*
X129350397Y-106794290D01*
X128956290Y-107188397D01*
X128874000Y-107387062D01*
X128791710Y-107188397D01*
X128397603Y-106794290D01*
X127882676Y-106581000D01*
X127325324Y-106581000D01*
X126810397Y-106794290D01*
X126416290Y-107188397D01*
X126334000Y-107387062D01*
X126251710Y-107188397D01*
X125857603Y-106794290D01*
X125342676Y-106581000D01*
X124785324Y-106581000D01*
X124270397Y-106794290D01*
X123876290Y-107188397D01*
X123663000Y-107703324D01*
X123663000Y-108260676D01*
X123876290Y-108775603D01*
X124270397Y-109169710D01*
X124785324Y-109383000D01*
X125342676Y-109383000D01*
X125857603Y-109169710D01*
X126251710Y-108775603D01*
X126334000Y-108576938D01*
X126416290Y-108775603D01*
X126810397Y-109169710D01*
X127325324Y-109383000D01*
X127882676Y-109383000D01*
X128397603Y-109169710D01*
X128791710Y-108775603D01*
X128874000Y-108576938D01*
X128956290Y-108775603D01*
X129350397Y-109169710D01*
X129865324Y-109383000D01*
X130422676Y-109383000D01*
X130937603Y-109169710D01*
X131331710Y-108775603D01*
X131414000Y-108576938D01*
X131496290Y-108775603D01*
X131890397Y-109169710D01*
X132405324Y-109383000D01*
X132962676Y-109383000D01*
X133477603Y-109169710D01*
X133871710Y-108775603D01*
X133954000Y-108576938D01*
X134036290Y-108775603D01*
X134430397Y-109169710D01*
X134945324Y-109383000D01*
X135502676Y-109383000D01*
X136017603Y-109169710D01*
X136411710Y-108775603D01*
X136494000Y-108576938D01*
X136576290Y-108775603D01*
X136970397Y-109169710D01*
X137485324Y-109383000D01*
X138042676Y-109383000D01*
X138557603Y-109169710D01*
X138865421Y-108861892D01*
X138868069Y-108868284D01*
X139136999Y-108969395D01*
X140124395Y-107982000D01*
X140483605Y-107982000D01*
X141471001Y-108969395D01*
X141574000Y-108930670D01*
X141676999Y-108969395D01*
X142664395Y-107982000D01*
X143023605Y-107982000D01*
X144011001Y-108969395D01*
X144279931Y-108868284D01*
X144509794Y-108251313D01*
X144486054Y-107593341D01*
X144279931Y-107095716D01*
X144011001Y-106994605D01*
X143023605Y-107982000D01*
X142664395Y-107982000D01*
X141676999Y-106994605D01*
X141574000Y-107033330D01*
X141471001Y-106994605D01*
X140483605Y-107982000D01*
X140124395Y-107982000D01*
X139136999Y-106994605D01*
X138868069Y-107095716D01*
X138865615Y-107102302D01*
X138578312Y-106814999D01*
X139316605Y-106814999D01*
X140304000Y-107802395D01*
X141291395Y-106814999D01*
X141856605Y-106814999D01*
X142844000Y-107802395D01*
X143831395Y-106814999D01*
X143730284Y-106546069D01*
X143113313Y-106316206D01*
X142455341Y-106339946D01*
X141957716Y-106546069D01*
X141856605Y-106814999D01*
X141291395Y-106814999D01*
X141190284Y-106546069D01*
X140573313Y-106316206D01*
X139915341Y-106339946D01*
X139417716Y-106546069D01*
X139316605Y-106814999D01*
X138578312Y-106814999D01*
X138557603Y-106794290D01*
X138270000Y-106675161D01*
X138270000Y-104146911D01*
X139800913Y-102616000D01*
X145581445Y-102616000D01*
X145669000Y-102633416D01*
X145756555Y-102616000D01*
X145756556Y-102616000D01*
X146015870Y-102564419D01*
X146309933Y-102367933D01*
X146359531Y-102293704D01*
X153721530Y-94931706D01*
X153721532Y-94931703D01*
X153907235Y-94746000D01*
X154329676Y-94746000D01*
X154844603Y-94532710D01*
X155117801Y-94259512D01*
X155117801Y-95802743D01*
X155117800Y-95802748D01*
X155117800Y-96240487D01*
X154819090Y-96539197D01*
X154605800Y-97054124D01*
X154605800Y-97611476D01*
X154819090Y-98126403D01*
X155213197Y-98520510D01*
X155728124Y-98733800D01*
X156285476Y-98733800D01*
X156800403Y-98520510D01*
X157194510Y-98126403D01*
X157407800Y-97611476D01*
X157407800Y-97079524D01*
X157920500Y-97079524D01*
X157920500Y-97636876D01*
X158133790Y-98151803D01*
X158527897Y-98545910D01*
X159042824Y-98759200D01*
X159600176Y-98759200D01*
X160115103Y-98545910D01*
X160509210Y-98151803D01*
X160722500Y-97636876D01*
X160722500Y-97079524D01*
X160509210Y-96564597D01*
X160210500Y-96265887D01*
X160210500Y-94512001D01*
X160683605Y-94512001D01*
X160784716Y-94780931D01*
X161401687Y-95010794D01*
X162059659Y-94987054D01*
X162557284Y-94780931D01*
X162658395Y-94512001D01*
X161671000Y-93524605D01*
X160683605Y-94512001D01*
X160210500Y-94512001D01*
X160210500Y-94171969D01*
X160235069Y-94231284D01*
X160503999Y-94332395D01*
X161491395Y-93345000D01*
X161850605Y-93345000D01*
X162838001Y-94332395D01*
X163106931Y-94231284D01*
X163336794Y-93614313D01*
X163313054Y-92956341D01*
X163106931Y-92458716D01*
X162838001Y-92357605D01*
X161850605Y-93345000D01*
X161491395Y-93345000D01*
X160503999Y-92357605D01*
X160235069Y-92458716D01*
X160210500Y-92524661D01*
X160210500Y-92177999D01*
X160683605Y-92177999D01*
X161671000Y-93165395D01*
X162658395Y-92177999D01*
X162557284Y-91909069D01*
X161940313Y-91679206D01*
X161282341Y-91702946D01*
X160784716Y-91909069D01*
X160683605Y-92177999D01*
X160210500Y-92177999D01*
X160210500Y-78409735D01*
X162386236Y-76234000D01*
X163768687Y-76234000D01*
X164067397Y-76532710D01*
X164582324Y-76746000D01*
X165139676Y-76746000D01*
X165654603Y-76532710D01*
X166048710Y-76138603D01*
X166262000Y-75623676D01*
X166262000Y-75066324D01*
X166048710Y-74551397D01*
X165654603Y-74157290D01*
X165139676Y-73944000D01*
X164582324Y-73944000D01*
X164067397Y-74157290D01*
X163768687Y-74456000D01*
X162105555Y-74456000D01*
X162018000Y-74438584D01*
X161930445Y-74456000D01*
X161930444Y-74456000D01*
X161671130Y-74507581D01*
X161377067Y-74704067D01*
X161327471Y-74778293D01*
X158754794Y-77350971D01*
X158680568Y-77400567D01*
X158630972Y-77474793D01*
X158630971Y-77474794D01*
X158484082Y-77694630D01*
X158415084Y-78041500D01*
X158432501Y-78129060D01*
X158432500Y-96265887D01*
X158133790Y-96564597D01*
X157920500Y-97079524D01*
X157407800Y-97079524D01*
X157407800Y-97054124D01*
X157194510Y-96539197D01*
X156895800Y-96240487D01*
X156895800Y-82935792D01*
X156913215Y-82848241D01*
X156895800Y-82760690D01*
X156895800Y-82760686D01*
X156844219Y-82501372D01*
X156647733Y-82207309D01*
X156573507Y-82157713D01*
X151161793Y-76746000D01*
X151339676Y-76746000D01*
X151854603Y-76532710D01*
X152248710Y-76138603D01*
X152462000Y-75623676D01*
X152462000Y-75201235D01*
X155944707Y-71718529D01*
X156018933Y-71668933D01*
X156215419Y-71374870D01*
X156267000Y-71115556D01*
X156267000Y-71115555D01*
X156284416Y-71028000D01*
X156267000Y-70940445D01*
X156267000Y-61323202D01*
X156288659Y-61318894D01*
X156414686Y-61234686D01*
X156498894Y-61108659D01*
X156528464Y-60960000D01*
X156528464Y-59436000D01*
X156498894Y-59287341D01*
X156414686Y-59161314D01*
X156288659Y-59077106D01*
X156140000Y-59047536D01*
X154616000Y-59047536D01*
X154467341Y-59077106D01*
X154341314Y-59161314D01*
X154257106Y-59287341D01*
X154227536Y-59436000D01*
X154227536Y-60960000D01*
X154257106Y-61108659D01*
X154341314Y-61234686D01*
X154467341Y-61318894D01*
X154489001Y-61323202D01*
X154489000Y-70659764D01*
X151204765Y-73944000D01*
X150782324Y-73944000D01*
X150267397Y-74157290D01*
X149873290Y-74551397D01*
X149660000Y-75066324D01*
X149660000Y-75244207D01*
X147320000Y-72904207D01*
X147320000Y-69799313D01*
X147618710Y-69500603D01*
X147832000Y-68985676D01*
X147832000Y-68428324D01*
X147618710Y-67913397D01*
X147224603Y-67519290D01*
X146709676Y-67306000D01*
X146287236Y-67306000D01*
X138993531Y-60012296D01*
X138943933Y-59938067D01*
X138649870Y-59741581D01*
X138390556Y-59690000D01*
X138390555Y-59690000D01*
X138303000Y-59672584D01*
X138215445Y-59690000D01*
X104503202Y-59690000D01*
X104498894Y-59668341D01*
X104414686Y-59542314D01*
X104288659Y-59458106D01*
X104140000Y-59428536D01*
X102809514Y-59428536D01*
X102906336Y-59330053D01*
X103753061Y-58682977D01*
X104682517Y-58161659D01*
X105676156Y-57776504D01*
X106714138Y-57535199D01*
X107757188Y-57444175D01*
X107851828Y-57463000D01*
G04 #@! TD*
M02*
