G04 #@! TF.GenerationSoftware,KiCad,Pcbnew,(5.0.2)-1*
G04 #@! TF.CreationDate,2018-12-26T19:39:09+05:30*
G04 #@! TF.ProjectId,Air Pollution,41697220-506f-46c6-9c75-74696f6e2e6b,rev?*
G04 #@! TF.SameCoordinates,Original*
G04 #@! TF.FileFunction,Legend,Top*
G04 #@! TF.FilePolarity,Positive*
%FSLAX46Y46*%
G04 Gerber Fmt 4.6, Leading zero omitted, Abs format (unit mm)*
G04 Created by KiCad (PCBNEW (5.0.2)-1) date 12/26/2018 7:39:09 PM*
%MOMM*%
%LPD*%
G01*
G04 APERTURE LIST*
%ADD10C,0.300000*%
%ADD11C,0.050000*%
%ADD12C,0.030000*%
%ADD13C,0.150000*%
G04 APERTURE END LIST*
D10*
X123523428Y-106342571D02*
X124380571Y-106342571D01*
X123952000Y-106342571D02*
X123952000Y-104842571D01*
X124094857Y-105056857D01*
X124237714Y-105199714D01*
X124380571Y-105271142D01*
X142636857Y-105739428D02*
X142779714Y-105668000D01*
X142851142Y-105596571D01*
X142922571Y-105453714D01*
X142922571Y-105382285D01*
X142851142Y-105239428D01*
X142779714Y-105168000D01*
X142636857Y-105096571D01*
X142351142Y-105096571D01*
X142208285Y-105168000D01*
X142136857Y-105239428D01*
X142065428Y-105382285D01*
X142065428Y-105453714D01*
X142136857Y-105596571D01*
X142208285Y-105668000D01*
X142351142Y-105739428D01*
X142636857Y-105739428D01*
X142779714Y-105810857D01*
X142851142Y-105882285D01*
X142922571Y-106025142D01*
X142922571Y-106310857D01*
X142851142Y-106453714D01*
X142779714Y-106525142D01*
X142636857Y-106596571D01*
X142351142Y-106596571D01*
X142208285Y-106525142D01*
X142136857Y-106453714D01*
X142065428Y-106310857D01*
X142065428Y-106025142D01*
X142136857Y-105882285D01*
X142208285Y-105810857D01*
X142351142Y-105739428D01*
X141882857Y-88586571D02*
X142597142Y-88586571D01*
X142668571Y-89300857D01*
X142597142Y-89229428D01*
X142454285Y-89158000D01*
X142097142Y-89158000D01*
X141954285Y-89229428D01*
X141882857Y-89300857D01*
X141811428Y-89443714D01*
X141811428Y-89800857D01*
X141882857Y-89943714D01*
X141954285Y-90015142D01*
X142097142Y-90086571D01*
X142454285Y-90086571D01*
X142597142Y-90015142D01*
X142668571Y-89943714D01*
X142740000Y-86554571D02*
X141811428Y-86554571D01*
X142311428Y-87126000D01*
X142097142Y-87126000D01*
X141954285Y-87197428D01*
X141882857Y-87268857D01*
X141811428Y-87411714D01*
X141811428Y-87768857D01*
X141882857Y-87911714D01*
X141954285Y-87983142D01*
X142097142Y-88054571D01*
X142525714Y-88054571D01*
X142668571Y-87983142D01*
X142740000Y-87911714D01*
X141811428Y-85260571D02*
X142668571Y-85260571D01*
X142240000Y-85260571D02*
X142240000Y-83760571D01*
X142382857Y-83974857D01*
X142525714Y-84117714D01*
X142668571Y-84189142D01*
X156603142Y-60305142D02*
X157746000Y-60305142D01*
X158246000Y-59376571D02*
X158746000Y-60876571D01*
X159246000Y-59376571D01*
X159746000Y-60090857D02*
X160246000Y-60090857D01*
X160460285Y-60876571D02*
X159746000Y-60876571D01*
X159746000Y-59376571D01*
X160460285Y-59376571D01*
X103294571Y-96939142D02*
X102580285Y-97439142D01*
X103294571Y-97796285D02*
X101794571Y-97796285D01*
X101794571Y-97224857D01*
X101866000Y-97082000D01*
X101937428Y-97010571D01*
X102080285Y-96939142D01*
X102294571Y-96939142D01*
X102437428Y-97010571D01*
X102508857Y-97082000D01*
X102580285Y-97224857D01*
X102580285Y-97796285D01*
X102866000Y-96367714D02*
X102866000Y-95653428D01*
X103294571Y-96510571D02*
X101794571Y-96010571D01*
X103294571Y-95510571D01*
X103294571Y-95010571D02*
X101794571Y-95010571D01*
X102866000Y-94510571D01*
X101794571Y-94010571D01*
X103294571Y-94010571D01*
X103294571Y-90939142D02*
X103294571Y-91010571D01*
X103223142Y-91153428D01*
X103008857Y-91367714D01*
X102580285Y-91724857D01*
X102366000Y-91867714D01*
X102151714Y-91939142D01*
X102008857Y-91939142D01*
X101866000Y-91867714D01*
X101794571Y-91724857D01*
X101794571Y-91653428D01*
X101866000Y-91510571D01*
X102008857Y-91439142D01*
X102080285Y-91439142D01*
X102223142Y-91510571D01*
X102294571Y-91582000D01*
X102580285Y-92010571D01*
X102651714Y-92082000D01*
X102794571Y-92153428D01*
X103008857Y-92153428D01*
X103151714Y-92082000D01*
X103223142Y-92010571D01*
X103294571Y-91867714D01*
X103294571Y-91653428D01*
X103223142Y-91510571D01*
X103151714Y-91439142D01*
X102866000Y-91224857D01*
X102651714Y-91153428D01*
X102508857Y-91153428D01*
X101794571Y-89153428D02*
X103008857Y-89153428D01*
X103151714Y-89082000D01*
X103223142Y-89010571D01*
X103294571Y-88867714D01*
X103294571Y-88582000D01*
X103223142Y-88439142D01*
X103151714Y-88367714D01*
X103008857Y-88296285D01*
X101794571Y-88296285D01*
X102508857Y-87082000D02*
X102580285Y-86867714D01*
X102651714Y-86796285D01*
X102794571Y-86724857D01*
X103008857Y-86724857D01*
X103151714Y-86796285D01*
X103223142Y-86867714D01*
X103294571Y-87010571D01*
X103294571Y-87582000D01*
X101794571Y-87582000D01*
X101794571Y-87082000D01*
X101866000Y-86939142D01*
X101937428Y-86867714D01*
X102080285Y-86796285D01*
X102223142Y-86796285D01*
X102366000Y-86867714D01*
X102437428Y-86939142D01*
X102508857Y-87082000D01*
X102508857Y-87582000D01*
X102866000Y-86153428D02*
X102866000Y-85439142D01*
X103294571Y-86296285D02*
X101794571Y-85796285D01*
X103294571Y-85296285D01*
X103294571Y-84796285D02*
X101794571Y-84796285D01*
X103294571Y-83224857D02*
X102580285Y-83724857D01*
X103294571Y-84082000D02*
X101794571Y-84082000D01*
X101794571Y-83510571D01*
X101866000Y-83367714D01*
X101937428Y-83296285D01*
X102080285Y-83224857D01*
X102294571Y-83224857D01*
X102437428Y-83296285D01*
X102508857Y-83367714D01*
X102580285Y-83510571D01*
X102580285Y-84082000D01*
X103294571Y-80224857D02*
X103294571Y-80296285D01*
X103223142Y-80439142D01*
X103008857Y-80653428D01*
X102580285Y-81010571D01*
X102366000Y-81153428D01*
X102151714Y-81224857D01*
X102008857Y-81224857D01*
X101866000Y-81153428D01*
X101794571Y-81010571D01*
X101794571Y-80939142D01*
X101866000Y-80796285D01*
X102008857Y-80724857D01*
X102080285Y-80724857D01*
X102223142Y-80796285D01*
X102294571Y-80867714D01*
X102580285Y-81296285D01*
X102651714Y-81367714D01*
X102794571Y-81439142D01*
X103008857Y-81439142D01*
X103151714Y-81367714D01*
X103223142Y-81296285D01*
X103294571Y-81153428D01*
X103294571Y-80939142D01*
X103223142Y-80796285D01*
X103151714Y-80724857D01*
X102866000Y-80510571D01*
X102651714Y-80439142D01*
X102508857Y-80439142D01*
X103294571Y-77724857D02*
X103294571Y-78439142D01*
X101794571Y-78439142D01*
X101794571Y-76939142D02*
X101794571Y-76653428D01*
X101866000Y-76510571D01*
X102008857Y-76367714D01*
X102294571Y-76296285D01*
X102794571Y-76296285D01*
X103080285Y-76367714D01*
X103223142Y-76510571D01*
X103294571Y-76653428D01*
X103294571Y-76939142D01*
X103223142Y-77082000D01*
X103080285Y-77224857D01*
X102794571Y-77296285D01*
X102294571Y-77296285D01*
X102008857Y-77224857D01*
X101866000Y-77082000D01*
X101794571Y-76939142D01*
X101794571Y-75867714D02*
X103294571Y-75367714D01*
X101794571Y-74867714D01*
X103294571Y-74367714D02*
X101794571Y-74367714D01*
X103223142Y-73724857D02*
X103294571Y-73510571D01*
X103294571Y-73153428D01*
X103223142Y-73010571D01*
X103151714Y-72939142D01*
X103008857Y-72867714D01*
X102866000Y-72867714D01*
X102723142Y-72939142D01*
X102651714Y-73010571D01*
X102580285Y-73153428D01*
X102508857Y-73439142D01*
X102437428Y-73582000D01*
X102366000Y-73653428D01*
X102223142Y-73724857D01*
X102080285Y-73724857D01*
X101937428Y-73653428D01*
X101866000Y-73582000D01*
X101794571Y-73439142D01*
X101794571Y-73082000D01*
X101866000Y-72867714D01*
X103294571Y-72224857D02*
X101794571Y-72224857D01*
X102508857Y-72224857D02*
X102508857Y-71367714D01*
X103294571Y-71367714D02*
X101794571Y-71367714D01*
D11*
G04 #@! TO.C,U3*
X149676000Y-95030000D02*
X149676000Y-74090000D01*
X166186000Y-95030000D02*
X166186000Y-74090000D01*
G04 #@! TO.C,U7*
X141740600Y-58452000D02*
X141740600Y-106452000D01*
X104696000Y-58452000D02*
X104696000Y-106452000D01*
D12*
G04 #@! TO.C,U6*
X148336000Y-91186000D02*
X148336000Y-83312000D01*
X143025600Y-91186000D02*
X143025600Y-83312000D01*
D13*
G04 #@! TO.C,SW1*
X154774900Y-98552000D02*
X154774900Y-96164400D01*
X160477200Y-98552000D02*
X160477200Y-96164400D01*
G04 #@! TO.C,U5*
X123886500Y-106807000D02*
X144018000Y-106807000D01*
X123886500Y-109156500D02*
X144018000Y-109156500D01*
X123888500Y-106807000D02*
X123888500Y-109157000D01*
X144018000Y-106807000D02*
X144018000Y-109156500D01*
G04 #@! TO.C,U3*
X161544095Y-78192380D02*
X161544095Y-79001904D01*
X161591714Y-79097142D01*
X161639333Y-79144761D01*
X161734571Y-79192380D01*
X161925047Y-79192380D01*
X162020285Y-79144761D01*
X162067904Y-79097142D01*
X162115523Y-79001904D01*
X162115523Y-78192380D01*
X162496476Y-78192380D02*
X163115523Y-78192380D01*
X162782190Y-78573333D01*
X162925047Y-78573333D01*
X163020285Y-78620952D01*
X163067904Y-78668571D01*
X163115523Y-78763809D01*
X163115523Y-79001904D01*
X163067904Y-79097142D01*
X163020285Y-79144761D01*
X162925047Y-79192380D01*
X162639333Y-79192380D01*
X162544095Y-79144761D01*
X162496476Y-79097142D01*
X151702190Y-89622380D02*
X152035523Y-90622380D01*
X152368857Y-89622380D01*
X152892666Y-89622380D02*
X153083142Y-89622380D01*
X153178380Y-89670000D01*
X153273619Y-89765238D01*
X153321238Y-89955714D01*
X153321238Y-90289047D01*
X153273619Y-90479523D01*
X153178380Y-90574761D01*
X153083142Y-90622380D01*
X152892666Y-90622380D01*
X152797428Y-90574761D01*
X152702190Y-90479523D01*
X152654571Y-90289047D01*
X152654571Y-89955714D01*
X152702190Y-89765238D01*
X152797428Y-89670000D01*
X152892666Y-89622380D01*
X153892666Y-90622380D02*
X153797428Y-90574761D01*
X153749809Y-90479523D01*
X153749809Y-89622380D01*
X154130761Y-89955714D02*
X154511714Y-89955714D01*
X154273619Y-89622380D02*
X154273619Y-90479523D01*
X154321238Y-90574761D01*
X154416476Y-90622380D01*
X154511714Y-90622380D01*
X155273619Y-90622380D02*
X155273619Y-90098571D01*
X155226000Y-90003333D01*
X155130761Y-89955714D01*
X154940285Y-89955714D01*
X154845047Y-90003333D01*
X155273619Y-90574761D02*
X155178380Y-90622380D01*
X154940285Y-90622380D01*
X154845047Y-90574761D01*
X154797428Y-90479523D01*
X154797428Y-90384285D01*
X154845047Y-90289047D01*
X154940285Y-90241428D01*
X155178380Y-90241428D01*
X155273619Y-90193809D01*
X156178380Y-89955714D02*
X156178380Y-90765238D01*
X156130761Y-90860476D01*
X156083142Y-90908095D01*
X155987904Y-90955714D01*
X155845047Y-90955714D01*
X155749809Y-90908095D01*
X156178380Y-90574761D02*
X156083142Y-90622380D01*
X155892666Y-90622380D01*
X155797428Y-90574761D01*
X155749809Y-90527142D01*
X155702190Y-90431904D01*
X155702190Y-90146190D01*
X155749809Y-90050952D01*
X155797428Y-90003333D01*
X155892666Y-89955714D01*
X156083142Y-89955714D01*
X156178380Y-90003333D01*
X157035523Y-90574761D02*
X156940285Y-90622380D01*
X156749809Y-90622380D01*
X156654571Y-90574761D01*
X156606952Y-90479523D01*
X156606952Y-90098571D01*
X156654571Y-90003333D01*
X156749809Y-89955714D01*
X156940285Y-89955714D01*
X157035523Y-90003333D01*
X157083142Y-90098571D01*
X157083142Y-90193809D01*
X156606952Y-90289047D01*
X157511714Y-90622380D02*
X157511714Y-89622380D01*
X157511714Y-90003333D02*
X157606952Y-89955714D01*
X157797428Y-89955714D01*
X157892666Y-90003333D01*
X157940285Y-90050952D01*
X157987904Y-90146190D01*
X157987904Y-90431904D01*
X157940285Y-90527142D01*
X157892666Y-90574761D01*
X157797428Y-90622380D01*
X157606952Y-90622380D01*
X157511714Y-90574761D01*
X158559333Y-90622380D02*
X158464095Y-90574761D01*
X158416476Y-90527142D01*
X158368857Y-90431904D01*
X158368857Y-90146190D01*
X158416476Y-90050952D01*
X158464095Y-90003333D01*
X158559333Y-89955714D01*
X158702190Y-89955714D01*
X158797428Y-90003333D01*
X158845047Y-90050952D01*
X158892666Y-90146190D01*
X158892666Y-90431904D01*
X158845047Y-90527142D01*
X158797428Y-90574761D01*
X158702190Y-90622380D01*
X158559333Y-90622380D01*
X159464095Y-90622380D02*
X159368857Y-90574761D01*
X159321238Y-90527142D01*
X159273619Y-90431904D01*
X159273619Y-90146190D01*
X159321238Y-90050952D01*
X159368857Y-90003333D01*
X159464095Y-89955714D01*
X159606952Y-89955714D01*
X159702190Y-90003333D01*
X159749809Y-90050952D01*
X159797428Y-90146190D01*
X159797428Y-90431904D01*
X159749809Y-90527142D01*
X159702190Y-90574761D01*
X159606952Y-90622380D01*
X159464095Y-90622380D01*
X160178380Y-90574761D02*
X160273619Y-90622380D01*
X160464095Y-90622380D01*
X160559333Y-90574761D01*
X160606952Y-90479523D01*
X160606952Y-90431904D01*
X160559333Y-90336666D01*
X160464095Y-90289047D01*
X160321238Y-90289047D01*
X160226000Y-90241428D01*
X160178380Y-90146190D01*
X160178380Y-90098571D01*
X160226000Y-90003333D01*
X160321238Y-89955714D01*
X160464095Y-89955714D01*
X160559333Y-90003333D01*
X160892666Y-89955714D02*
X161273619Y-89955714D01*
X161035523Y-89622380D02*
X161035523Y-90479523D01*
X161083142Y-90574761D01*
X161178380Y-90622380D01*
X161273619Y-90622380D01*
X161987904Y-90574761D02*
X161892666Y-90622380D01*
X161702190Y-90622380D01*
X161606952Y-90574761D01*
X161559333Y-90479523D01*
X161559333Y-90098571D01*
X161606952Y-90003333D01*
X161702190Y-89955714D01*
X161892666Y-89955714D01*
X161987904Y-90003333D01*
X162035523Y-90098571D01*
X162035523Y-90193809D01*
X161559333Y-90289047D01*
X162464095Y-90622380D02*
X162464095Y-89955714D01*
X162464095Y-90146190D02*
X162511714Y-90050952D01*
X162559333Y-90003333D01*
X162654571Y-89955714D01*
X162749809Y-89955714D01*
G04 #@! TO.C,U2*
X134834380Y-64769904D02*
X135643904Y-64769904D01*
X135739142Y-64722285D01*
X135786761Y-64674666D01*
X135834380Y-64579428D01*
X135834380Y-64388952D01*
X135786761Y-64293714D01*
X135739142Y-64246095D01*
X135643904Y-64198476D01*
X134834380Y-64198476D01*
X134929619Y-63769904D02*
X134882000Y-63722285D01*
X134834380Y-63627047D01*
X134834380Y-63388952D01*
X134882000Y-63293714D01*
X134929619Y-63246095D01*
X135024857Y-63198476D01*
X135120095Y-63198476D01*
X135262952Y-63246095D01*
X135834380Y-63817523D01*
X135834380Y-63198476D01*
G04 #@! TO.C,U7*
X106680095Y-76160380D02*
X106680095Y-76969904D01*
X106727714Y-77065142D01*
X106775333Y-77112761D01*
X106870571Y-77160380D01*
X107061047Y-77160380D01*
X107156285Y-77112761D01*
X107203904Y-77065142D01*
X107251523Y-76969904D01*
X107251523Y-76160380D01*
X107632476Y-76160380D02*
X108299142Y-76160380D01*
X107870571Y-77160380D01*
G04 #@! TO.C,U6*
X145034095Y-81494380D02*
X145034095Y-82303904D01*
X145081714Y-82399142D01*
X145129333Y-82446761D01*
X145224571Y-82494380D01*
X145415047Y-82494380D01*
X145510285Y-82446761D01*
X145557904Y-82399142D01*
X145605523Y-82303904D01*
X145605523Y-81494380D01*
X146510285Y-81494380D02*
X146319809Y-81494380D01*
X146224571Y-81542000D01*
X146176952Y-81589619D01*
X146081714Y-81732476D01*
X146034095Y-81922952D01*
X146034095Y-82303904D01*
X146081714Y-82399142D01*
X146129333Y-82446761D01*
X146224571Y-82494380D01*
X146415047Y-82494380D01*
X146510285Y-82446761D01*
X146557904Y-82399142D01*
X146605523Y-82303904D01*
X146605523Y-82065809D01*
X146557904Y-81970571D01*
X146510285Y-81922952D01*
X146415047Y-81875333D01*
X146224571Y-81875333D01*
X146129333Y-81922952D01*
X146081714Y-81970571D01*
X146034095Y-82065809D01*
G04 #@! TO.C,SW1*
X154648066Y-102792161D02*
X154790923Y-102839780D01*
X155029019Y-102839780D01*
X155124257Y-102792161D01*
X155171876Y-102744542D01*
X155219495Y-102649304D01*
X155219495Y-102554066D01*
X155171876Y-102458828D01*
X155124257Y-102411209D01*
X155029019Y-102363590D01*
X154838542Y-102315971D01*
X154743304Y-102268352D01*
X154695685Y-102220733D01*
X154648066Y-102125495D01*
X154648066Y-102030257D01*
X154695685Y-101935019D01*
X154743304Y-101887400D01*
X154838542Y-101839780D01*
X155076638Y-101839780D01*
X155219495Y-101887400D01*
X155552828Y-101839780D02*
X155790923Y-102839780D01*
X155981400Y-102125495D01*
X156171876Y-102839780D01*
X156409971Y-101839780D01*
X157314733Y-102839780D02*
X156743304Y-102839780D01*
X157029019Y-102839780D02*
X157029019Y-101839780D01*
X156933780Y-101982638D01*
X156838542Y-102077876D01*
X156743304Y-102125495D01*
G04 #@! TO.C,U5*
X131318095Y-105370380D02*
X131318095Y-106179904D01*
X131365714Y-106275142D01*
X131413333Y-106322761D01*
X131508571Y-106370380D01*
X131699047Y-106370380D01*
X131794285Y-106322761D01*
X131841904Y-106275142D01*
X131889523Y-106179904D01*
X131889523Y-105370380D01*
X132841904Y-105370380D02*
X132365714Y-105370380D01*
X132318095Y-105846571D01*
X132365714Y-105798952D01*
X132460952Y-105751333D01*
X132699047Y-105751333D01*
X132794285Y-105798952D01*
X132841904Y-105846571D01*
X132889523Y-105941809D01*
X132889523Y-106179904D01*
X132841904Y-106275142D01*
X132794285Y-106322761D01*
X132699047Y-106370380D01*
X132460952Y-106370380D01*
X132365714Y-106322761D01*
X132318095Y-106275142D01*
G04 #@! TD*
M02*
