G04 #@! TF.GenerationSoftware,KiCad,Pcbnew,(5.0.2)-1*
G04 #@! TF.CreationDate,2018-12-26T19:39:10+05:30*
G04 #@! TF.ProjectId,Air Pollution,41697220-506f-46c6-9c75-74696f6e2e6b,rev?*
G04 #@! TF.SameCoordinates,Original*
G04 #@! TF.FileFunction,Legend,Bot*
G04 #@! TF.FilePolarity,Positive*
%FSLAX46Y46*%
G04 Gerber Fmt 4.6, Leading zero omitted, Abs format (unit mm)*
G04 Created by KiCad (PCBNEW (5.0.2)-1) date 12/26/2018 7:39:10 PM*
%MOMM*%
%LPD*%
G01*
G04 APERTURE LIST*
%ADD10C,0.150000*%
%ADD11C,0.180000*%
%ADD12C,0.120000*%
%ADD13C,0.050000*%
%ADD14C,0.152400*%
%ADD15C,0.100000*%
G04 APERTURE END LIST*
D10*
G04 #@! TO.C,TP10*
X118148100Y-90170000D02*
X118148100Y-92557600D01*
X120688100Y-90170000D02*
X120688100Y-92557600D01*
G04 #@! TO.C,TP12*
X113093500Y-83337400D02*
X113093500Y-85725000D01*
X115633500Y-83337400D02*
X115633500Y-85725000D01*
D11*
G04 #@! TO.C,R1*
X132216453Y-87216890D02*
X132216453Y-84676890D01*
X137296453Y-87216890D02*
X132216453Y-87216890D01*
X137296453Y-84676890D02*
X137296453Y-87216890D01*
X132216453Y-84676890D02*
X137296453Y-84676890D01*
G04 #@! TO.C,R2*
X143510000Y-94996000D02*
X148590000Y-94996000D01*
X148590000Y-94996000D02*
X148590000Y-97536000D01*
X148590000Y-97536000D02*
X143510000Y-97536000D01*
X143510000Y-97536000D02*
X143510000Y-94996000D01*
D12*
G04 #@! TO.C,U8*
X110572800Y-80898000D02*
X110572800Y-77598000D01*
X110572800Y-77598000D02*
X114572800Y-77598000D01*
D13*
G04 #@! TO.C,U1*
X144746000Y-64192000D02*
X165686000Y-64192000D01*
X144746000Y-80702000D02*
X165686000Y-80702000D01*
D12*
G04 #@! TO.C,C1*
X109856453Y-76382890D02*
X108856453Y-76382890D01*
X108856453Y-74682890D02*
X109856453Y-74682890D01*
G04 #@! TO.C,C2*
X113158453Y-74682890D02*
X114158453Y-74682890D01*
X114158453Y-76382890D02*
X113158453Y-76382890D01*
D10*
G04 #@! TO.C,TP1*
X132762553Y-77107690D02*
X132762553Y-79495290D01*
X135302553Y-77107690D02*
X135302553Y-79495290D01*
G04 #@! TO.C,TP2*
X133295953Y-73018290D02*
X133295953Y-75405890D01*
X130755953Y-73018290D02*
X130755953Y-75405890D01*
G04 #@! TO.C,TP3*
X133016553Y-80409690D02*
X133016553Y-82797290D01*
X135556553Y-80409690D02*
X135556553Y-82797290D01*
G04 #@! TO.C,TP4*
X126971353Y-72484890D02*
X126971353Y-74872490D01*
X129511353Y-72484890D02*
X129511353Y-74872490D01*
G04 #@! TO.C,TP5*
X132651500Y-89623900D02*
X132651500Y-92011500D01*
X135191500Y-89623900D02*
X135191500Y-92011500D01*
G04 #@! TO.C,TP6*
X131127500Y-92290900D02*
X131127500Y-94678500D01*
X128587500Y-92290900D02*
X128587500Y-94678500D01*
G04 #@! TO.C,TP7*
X125421953Y-92322290D02*
X125421953Y-94709890D01*
X127961953Y-92322290D02*
X127961953Y-94709890D01*
G04 #@! TO.C,TP8*
X125167953Y-92322290D02*
X125167953Y-94709890D01*
X122627953Y-92322290D02*
X122627953Y-94709890D01*
G04 #@! TO.C,TP9*
X119833953Y-92322290D02*
X119833953Y-94709890D01*
X122373953Y-92322290D02*
X122373953Y-94709890D01*
G04 #@! TO.C,TP11*
X113229953Y-92322290D02*
X113229953Y-94709890D01*
X115769953Y-92322290D02*
X115769953Y-94709890D01*
D14*
G04 #@! TO.C,U4*
X126980453Y-85536890D02*
X126980453Y-78736890D01*
X126980453Y-78736890D02*
X120180453Y-78736890D01*
X120180453Y-78736890D02*
X120180453Y-85536890D01*
X120180453Y-85536890D02*
X126980453Y-85536890D01*
X121196453Y-84880090D02*
G75*
G03X121196453Y-84880090I-359200J0D01*
G01*
D15*
X119334453Y-85886890D02*
G75*
G03X119334453Y-85886890I-254000J0D01*
G01*
G04 #@! TO.C,TP10*
D10*
X121092695Y-88530180D02*
X120521266Y-88530180D01*
X120806980Y-89530180D02*
X120806980Y-88530180D01*
X120187933Y-89530180D02*
X120187933Y-88530180D01*
X119806980Y-88530180D01*
X119711742Y-88577800D01*
X119664123Y-88625419D01*
X119616504Y-88720657D01*
X119616504Y-88863514D01*
X119664123Y-88958752D01*
X119711742Y-89006371D01*
X119806980Y-89053990D01*
X120187933Y-89053990D01*
X118664123Y-89530180D02*
X119235552Y-89530180D01*
X118949838Y-89530180D02*
X118949838Y-88530180D01*
X119045076Y-88673038D01*
X119140314Y-88768276D01*
X119235552Y-88815895D01*
X118045076Y-88530180D02*
X117949838Y-88530180D01*
X117854600Y-88577800D01*
X117806980Y-88625419D01*
X117759361Y-88720657D01*
X117711742Y-88911133D01*
X117711742Y-89149228D01*
X117759361Y-89339704D01*
X117806980Y-89434942D01*
X117854600Y-89482561D01*
X117949838Y-89530180D01*
X118045076Y-89530180D01*
X118140314Y-89482561D01*
X118187933Y-89434942D01*
X118235552Y-89339704D01*
X118283171Y-89149228D01*
X118283171Y-88911133D01*
X118235552Y-88720657D01*
X118187933Y-88625419D01*
X118140314Y-88577800D01*
X118045076Y-88530180D01*
G04 #@! TO.C,TP12*
X116038095Y-81697580D02*
X115466666Y-81697580D01*
X115752380Y-82697580D02*
X115752380Y-81697580D01*
X115133333Y-82697580D02*
X115133333Y-81697580D01*
X114752380Y-81697580D01*
X114657142Y-81745200D01*
X114609523Y-81792819D01*
X114561904Y-81888057D01*
X114561904Y-82030914D01*
X114609523Y-82126152D01*
X114657142Y-82173771D01*
X114752380Y-82221390D01*
X115133333Y-82221390D01*
X113609523Y-82697580D02*
X114180952Y-82697580D01*
X113895238Y-82697580D02*
X113895238Y-81697580D01*
X113990476Y-81840438D01*
X114085714Y-81935676D01*
X114180952Y-81983295D01*
X113228571Y-81792819D02*
X113180952Y-81745200D01*
X113085714Y-81697580D01*
X112847619Y-81697580D01*
X112752380Y-81745200D01*
X112704761Y-81792819D01*
X112657142Y-81888057D01*
X112657142Y-81983295D01*
X112704761Y-82126152D01*
X113276190Y-82697580D01*
X112657142Y-82697580D01*
G04 #@! TO.C,R1*
D11*
X131035929Y-87550270D02*
X131369262Y-87074080D01*
X131607357Y-87550270D02*
X131607357Y-86550270D01*
X131226405Y-86550270D01*
X131131167Y-86597890D01*
X131083548Y-86645509D01*
X131035929Y-86740747D01*
X131035929Y-86883604D01*
X131083548Y-86978842D01*
X131131167Y-87026461D01*
X131226405Y-87074080D01*
X131607357Y-87074080D01*
X130083548Y-87550270D02*
X130654976Y-87550270D01*
X130369262Y-87550270D02*
X130369262Y-86550270D01*
X130464500Y-86693128D01*
X130559738Y-86788366D01*
X130654976Y-86835985D01*
G04 #@! TO.C,R2*
X142329476Y-97869380D02*
X142662809Y-97393190D01*
X142900904Y-97869380D02*
X142900904Y-96869380D01*
X142519952Y-96869380D01*
X142424714Y-96917000D01*
X142377095Y-96964619D01*
X142329476Y-97059857D01*
X142329476Y-97202714D01*
X142377095Y-97297952D01*
X142424714Y-97345571D01*
X142519952Y-97393190D01*
X142900904Y-97393190D01*
X141948523Y-96964619D02*
X141900904Y-96917000D01*
X141805666Y-96869380D01*
X141567571Y-96869380D01*
X141472333Y-96917000D01*
X141424714Y-96964619D01*
X141377095Y-97059857D01*
X141377095Y-97155095D01*
X141424714Y-97297952D01*
X141996142Y-97869380D01*
X141377095Y-97869380D01*
G04 #@! TO.C,U8*
D10*
X113334704Y-81150380D02*
X113334704Y-81959904D01*
X113287085Y-82055142D01*
X113239466Y-82102761D01*
X113144228Y-82150380D01*
X112953752Y-82150380D01*
X112858514Y-82102761D01*
X112810895Y-82055142D01*
X112763276Y-81959904D01*
X112763276Y-81150380D01*
X112144228Y-81578952D02*
X112239466Y-81531333D01*
X112287085Y-81483714D01*
X112334704Y-81388476D01*
X112334704Y-81340857D01*
X112287085Y-81245619D01*
X112239466Y-81198000D01*
X112144228Y-81150380D01*
X111953752Y-81150380D01*
X111858514Y-81198000D01*
X111810895Y-81245619D01*
X111763276Y-81340857D01*
X111763276Y-81388476D01*
X111810895Y-81483714D01*
X111858514Y-81531333D01*
X111953752Y-81578952D01*
X112144228Y-81578952D01*
X112239466Y-81626571D01*
X112287085Y-81674190D01*
X112334704Y-81769428D01*
X112334704Y-81959904D01*
X112287085Y-82055142D01*
X112239466Y-82102761D01*
X112144228Y-82150380D01*
X111953752Y-82150380D01*
X111858514Y-82102761D01*
X111810895Y-82055142D01*
X111763276Y-81959904D01*
X111763276Y-81769428D01*
X111810895Y-81674190D01*
X111858514Y-81626571D01*
X111953752Y-81578952D01*
G04 #@! TO.C,U1*
X166203380Y-71755095D02*
X167012904Y-71755095D01*
X167108142Y-71802714D01*
X167155761Y-71850333D01*
X167203380Y-71945571D01*
X167203380Y-72136047D01*
X167155761Y-72231285D01*
X167108142Y-72278904D01*
X167012904Y-72326523D01*
X166203380Y-72326523D01*
X167203380Y-73326523D02*
X167203380Y-72755095D01*
X167203380Y-73040809D02*
X166203380Y-73040809D01*
X166346238Y-72945571D01*
X166441476Y-72850333D01*
X166489095Y-72755095D01*
G04 #@! TO.C,C1*
X109523119Y-77390032D02*
X109570738Y-77437651D01*
X109713595Y-77485270D01*
X109808833Y-77485270D01*
X109951691Y-77437651D01*
X110046929Y-77342413D01*
X110094548Y-77247175D01*
X110142167Y-77056699D01*
X110142167Y-76913842D01*
X110094548Y-76723366D01*
X110046929Y-76628128D01*
X109951691Y-76532890D01*
X109808833Y-76485270D01*
X109713595Y-76485270D01*
X109570738Y-76532890D01*
X109523119Y-76580509D01*
X108570738Y-77485270D02*
X109142167Y-77485270D01*
X108856453Y-77485270D02*
X108856453Y-76485270D01*
X108951691Y-76628128D01*
X109046929Y-76723366D01*
X109142167Y-76770985D01*
G04 #@! TO.C,C2*
X113825119Y-77390032D02*
X113872738Y-77437651D01*
X114015595Y-77485270D01*
X114110833Y-77485270D01*
X114253691Y-77437651D01*
X114348929Y-77342413D01*
X114396548Y-77247175D01*
X114444167Y-77056699D01*
X114444167Y-76913842D01*
X114396548Y-76723366D01*
X114348929Y-76628128D01*
X114253691Y-76532890D01*
X114110833Y-76485270D01*
X114015595Y-76485270D01*
X113872738Y-76532890D01*
X113825119Y-76580509D01*
X113444167Y-76580509D02*
X113396548Y-76532890D01*
X113301310Y-76485270D01*
X113063214Y-76485270D01*
X112967976Y-76532890D01*
X112920357Y-76580509D01*
X112872738Y-76675747D01*
X112872738Y-76770985D01*
X112920357Y-76913842D01*
X113491786Y-77485270D01*
X112872738Y-77485270D01*
G04 #@! TO.C,TP1*
X135484957Y-75010670D02*
X134913529Y-75010670D01*
X135199243Y-76010670D02*
X135199243Y-75010670D01*
X134580195Y-76010670D02*
X134580195Y-75010670D01*
X134199243Y-75010670D01*
X134104005Y-75058290D01*
X134056386Y-75105909D01*
X134008767Y-75201147D01*
X134008767Y-75344004D01*
X134056386Y-75439242D01*
X134104005Y-75486861D01*
X134199243Y-75534480D01*
X134580195Y-75534480D01*
X133056386Y-76010670D02*
X133627814Y-76010670D01*
X133342100Y-76010670D02*
X133342100Y-75010670D01*
X133437338Y-75153528D01*
X133532576Y-75248766D01*
X133627814Y-75296385D01*
G04 #@! TO.C,TP2*
X133224357Y-71378470D02*
X132652929Y-71378470D01*
X132938643Y-72378470D02*
X132938643Y-71378470D01*
X132319595Y-72378470D02*
X132319595Y-71378470D01*
X131938643Y-71378470D01*
X131843405Y-71426090D01*
X131795786Y-71473709D01*
X131748167Y-71568947D01*
X131748167Y-71711804D01*
X131795786Y-71807042D01*
X131843405Y-71854661D01*
X131938643Y-71902280D01*
X132319595Y-71902280D01*
X131367214Y-71473709D02*
X131319595Y-71426090D01*
X131224357Y-71378470D01*
X130986262Y-71378470D01*
X130891024Y-71426090D01*
X130843405Y-71473709D01*
X130795786Y-71568947D01*
X130795786Y-71664185D01*
X130843405Y-71807042D01*
X131414833Y-72378470D01*
X130795786Y-72378470D01*
G04 #@! TO.C,TP3*
X135484957Y-78769870D02*
X134913529Y-78769870D01*
X135199243Y-79769870D02*
X135199243Y-78769870D01*
X134580195Y-79769870D02*
X134580195Y-78769870D01*
X134199243Y-78769870D01*
X134104005Y-78817490D01*
X134056386Y-78865109D01*
X134008767Y-78960347D01*
X134008767Y-79103204D01*
X134056386Y-79198442D01*
X134104005Y-79246061D01*
X134199243Y-79293680D01*
X134580195Y-79293680D01*
X133675433Y-78769870D02*
X133056386Y-78769870D01*
X133389719Y-79150823D01*
X133246862Y-79150823D01*
X133151624Y-79198442D01*
X133104005Y-79246061D01*
X133056386Y-79341299D01*
X133056386Y-79579394D01*
X133104005Y-79674632D01*
X133151624Y-79722251D01*
X133246862Y-79769870D01*
X133532576Y-79769870D01*
X133627814Y-79722251D01*
X133675433Y-79674632D01*
G04 #@! TO.C,TP4*
X129439757Y-70845070D02*
X128868329Y-70845070D01*
X129154043Y-71845070D02*
X129154043Y-70845070D01*
X128534995Y-71845070D02*
X128534995Y-70845070D01*
X128154043Y-70845070D01*
X128058805Y-70892690D01*
X128011186Y-70940309D01*
X127963567Y-71035547D01*
X127963567Y-71178404D01*
X128011186Y-71273642D01*
X128058805Y-71321261D01*
X128154043Y-71368880D01*
X128534995Y-71368880D01*
X127106424Y-71178404D02*
X127106424Y-71845070D01*
X127344519Y-70797451D02*
X127582614Y-71511737D01*
X126963567Y-71511737D01*
G04 #@! TO.C,TP5*
X135119904Y-87984080D02*
X134548476Y-87984080D01*
X134834190Y-88984080D02*
X134834190Y-87984080D01*
X134215142Y-88984080D02*
X134215142Y-87984080D01*
X133834190Y-87984080D01*
X133738952Y-88031700D01*
X133691333Y-88079319D01*
X133643714Y-88174557D01*
X133643714Y-88317414D01*
X133691333Y-88412652D01*
X133738952Y-88460271D01*
X133834190Y-88507890D01*
X134215142Y-88507890D01*
X132738952Y-87984080D02*
X133215142Y-87984080D01*
X133262761Y-88460271D01*
X133215142Y-88412652D01*
X133119904Y-88365033D01*
X132881809Y-88365033D01*
X132786571Y-88412652D01*
X132738952Y-88460271D01*
X132691333Y-88555509D01*
X132691333Y-88793604D01*
X132738952Y-88888842D01*
X132786571Y-88936461D01*
X132881809Y-88984080D01*
X133119904Y-88984080D01*
X133215142Y-88936461D01*
X133262761Y-88888842D01*
G04 #@! TO.C,TP6*
X131055904Y-90651080D02*
X130484476Y-90651080D01*
X130770190Y-91651080D02*
X130770190Y-90651080D01*
X130151142Y-91651080D02*
X130151142Y-90651080D01*
X129770190Y-90651080D01*
X129674952Y-90698700D01*
X129627333Y-90746319D01*
X129579714Y-90841557D01*
X129579714Y-90984414D01*
X129627333Y-91079652D01*
X129674952Y-91127271D01*
X129770190Y-91174890D01*
X130151142Y-91174890D01*
X128722571Y-90651080D02*
X128913047Y-90651080D01*
X129008285Y-90698700D01*
X129055904Y-90746319D01*
X129151142Y-90889176D01*
X129198761Y-91079652D01*
X129198761Y-91460604D01*
X129151142Y-91555842D01*
X129103523Y-91603461D01*
X129008285Y-91651080D01*
X128817809Y-91651080D01*
X128722571Y-91603461D01*
X128674952Y-91555842D01*
X128627333Y-91460604D01*
X128627333Y-91222509D01*
X128674952Y-91127271D01*
X128722571Y-91079652D01*
X128817809Y-91032033D01*
X129008285Y-91032033D01*
X129103523Y-91079652D01*
X129151142Y-91127271D01*
X129198761Y-91222509D01*
G04 #@! TO.C,TP7*
X127890357Y-90682470D02*
X127318929Y-90682470D01*
X127604643Y-91682470D02*
X127604643Y-90682470D01*
X126985595Y-91682470D02*
X126985595Y-90682470D01*
X126604643Y-90682470D01*
X126509405Y-90730090D01*
X126461786Y-90777709D01*
X126414167Y-90872947D01*
X126414167Y-91015804D01*
X126461786Y-91111042D01*
X126509405Y-91158661D01*
X126604643Y-91206280D01*
X126985595Y-91206280D01*
X126080833Y-90682470D02*
X125414167Y-90682470D01*
X125842738Y-91682470D01*
G04 #@! TO.C,TP8*
X125096357Y-90682470D02*
X124524929Y-90682470D01*
X124810643Y-91682470D02*
X124810643Y-90682470D01*
X124191595Y-91682470D02*
X124191595Y-90682470D01*
X123810643Y-90682470D01*
X123715405Y-90730090D01*
X123667786Y-90777709D01*
X123620167Y-90872947D01*
X123620167Y-91015804D01*
X123667786Y-91111042D01*
X123715405Y-91158661D01*
X123810643Y-91206280D01*
X124191595Y-91206280D01*
X123048738Y-91111042D02*
X123143976Y-91063423D01*
X123191595Y-91015804D01*
X123239214Y-90920566D01*
X123239214Y-90872947D01*
X123191595Y-90777709D01*
X123143976Y-90730090D01*
X123048738Y-90682470D01*
X122858262Y-90682470D01*
X122763024Y-90730090D01*
X122715405Y-90777709D01*
X122667786Y-90872947D01*
X122667786Y-90920566D01*
X122715405Y-91015804D01*
X122763024Y-91063423D01*
X122858262Y-91111042D01*
X123048738Y-91111042D01*
X123143976Y-91158661D01*
X123191595Y-91206280D01*
X123239214Y-91301518D01*
X123239214Y-91491994D01*
X123191595Y-91587232D01*
X123143976Y-91634851D01*
X123048738Y-91682470D01*
X122858262Y-91682470D01*
X122763024Y-91634851D01*
X122715405Y-91587232D01*
X122667786Y-91491994D01*
X122667786Y-91301518D01*
X122715405Y-91206280D01*
X122763024Y-91158661D01*
X122858262Y-91111042D01*
G04 #@! TO.C,TP9*
X122302357Y-90682470D02*
X121730929Y-90682470D01*
X122016643Y-91682470D02*
X122016643Y-90682470D01*
X121397595Y-91682470D02*
X121397595Y-90682470D01*
X121016643Y-90682470D01*
X120921405Y-90730090D01*
X120873786Y-90777709D01*
X120826167Y-90872947D01*
X120826167Y-91015804D01*
X120873786Y-91111042D01*
X120921405Y-91158661D01*
X121016643Y-91206280D01*
X121397595Y-91206280D01*
X120349976Y-91682470D02*
X120159500Y-91682470D01*
X120064262Y-91634851D01*
X120016643Y-91587232D01*
X119921405Y-91444375D01*
X119873786Y-91253899D01*
X119873786Y-90872947D01*
X119921405Y-90777709D01*
X119969024Y-90730090D01*
X120064262Y-90682470D01*
X120254738Y-90682470D01*
X120349976Y-90730090D01*
X120397595Y-90777709D01*
X120445214Y-90872947D01*
X120445214Y-91111042D01*
X120397595Y-91206280D01*
X120349976Y-91253899D01*
X120254738Y-91301518D01*
X120064262Y-91301518D01*
X119969024Y-91253899D01*
X119921405Y-91206280D01*
X119873786Y-91111042D01*
G04 #@! TO.C,TP11*
X116174548Y-90682470D02*
X115603119Y-90682470D01*
X115888833Y-91682470D02*
X115888833Y-90682470D01*
X115269786Y-91682470D02*
X115269786Y-90682470D01*
X114888833Y-90682470D01*
X114793595Y-90730090D01*
X114745976Y-90777709D01*
X114698357Y-90872947D01*
X114698357Y-91015804D01*
X114745976Y-91111042D01*
X114793595Y-91158661D01*
X114888833Y-91206280D01*
X115269786Y-91206280D01*
X113745976Y-91682470D02*
X114317405Y-91682470D01*
X114031691Y-91682470D02*
X114031691Y-90682470D01*
X114126929Y-90825328D01*
X114222167Y-90920566D01*
X114317405Y-90968185D01*
X112793595Y-91682470D02*
X113365024Y-91682470D01*
X113079310Y-91682470D02*
X113079310Y-90682470D01*
X113174548Y-90825328D01*
X113269786Y-90920566D01*
X113365024Y-90968185D01*
G04 #@! TO.C,U4*
D13*
X120113661Y-87831556D02*
X120113661Y-88351362D01*
X120083085Y-88412516D01*
X120052508Y-88443092D01*
X119991354Y-88473669D01*
X119869047Y-88473669D01*
X119807893Y-88443092D01*
X119777317Y-88412516D01*
X119746740Y-88351362D01*
X119746740Y-87831556D01*
X119165780Y-88045594D02*
X119165780Y-88473669D01*
X119318664Y-87800979D02*
X119471548Y-88259632D01*
X119074050Y-88259632D01*
X124007013Y-76126398D02*
X123701562Y-76126398D01*
X124068104Y-76309668D02*
X123854288Y-75668220D01*
X123640472Y-76309668D01*
X123518291Y-75668220D02*
X123151749Y-75668220D01*
X123335020Y-76309668D02*
X123335020Y-75668220D01*
X122937933Y-76309668D02*
X122937933Y-75882036D01*
X122937933Y-75943127D02*
X122907388Y-75912582D01*
X122846298Y-75882036D01*
X122754663Y-75882036D01*
X122693572Y-75912582D01*
X122663027Y-75973672D01*
X122663027Y-76309668D01*
X122663027Y-75973672D02*
X122632482Y-75912582D01*
X122571392Y-75882036D01*
X122479756Y-75882036D01*
X122418666Y-75912582D01*
X122388121Y-75973672D01*
X122388121Y-76309668D01*
X121838308Y-76279123D02*
X121899399Y-76309668D01*
X122021579Y-76309668D01*
X122082669Y-76279123D01*
X122113215Y-76218033D01*
X122113215Y-75973672D01*
X122082669Y-75912582D01*
X122021579Y-75882036D01*
X121899399Y-75882036D01*
X121838308Y-75912582D01*
X121807763Y-75973672D01*
X121807763Y-76034762D01*
X122113215Y-76095852D01*
X121257951Y-75882036D02*
X121257951Y-76401304D01*
X121288496Y-76462394D01*
X121319041Y-76492939D01*
X121380131Y-76523484D01*
X121471767Y-76523484D01*
X121532857Y-76492939D01*
X121257951Y-76279123D02*
X121319041Y-76309668D01*
X121441221Y-76309668D01*
X121502312Y-76279123D01*
X121532857Y-76248578D01*
X121563402Y-76187488D01*
X121563402Y-76004217D01*
X121532857Y-75943127D01*
X121502312Y-75912582D01*
X121441221Y-75882036D01*
X121319041Y-75882036D01*
X121257951Y-75912582D01*
X120677593Y-76309668D02*
X120677593Y-75973672D01*
X120708138Y-75912582D01*
X120769228Y-75882036D01*
X120891409Y-75882036D01*
X120952499Y-75912582D01*
X120677593Y-76279123D02*
X120738683Y-76309668D01*
X120891409Y-76309668D01*
X120952499Y-76279123D01*
X120983044Y-76218033D01*
X120983044Y-76156943D01*
X120952499Y-76095852D01*
X120891409Y-76065307D01*
X120738683Y-76065307D01*
X120677593Y-76034762D01*
X120433232Y-75668220D02*
X120036145Y-75668220D01*
X120249961Y-75912582D01*
X120158325Y-75912582D01*
X120097235Y-75943127D01*
X120066690Y-75973672D01*
X120036145Y-76034762D01*
X120036145Y-76187488D01*
X120066690Y-76248578D01*
X120097235Y-76279123D01*
X120158325Y-76309668D01*
X120341596Y-76309668D01*
X120402687Y-76279123D01*
X120433232Y-76248578D01*
X119791784Y-75729311D02*
X119761239Y-75698766D01*
X119700148Y-75668220D01*
X119547423Y-75668220D01*
X119486332Y-75698766D01*
X119455787Y-75729311D01*
X119425242Y-75790401D01*
X119425242Y-75851491D01*
X119455787Y-75943127D01*
X119822329Y-76309668D01*
X119425242Y-76309668D01*
X119058700Y-75943127D02*
X119119791Y-75912582D01*
X119150336Y-75882036D01*
X119180881Y-75820946D01*
X119180881Y-75790401D01*
X119150336Y-75729311D01*
X119119791Y-75698766D01*
X119058700Y-75668220D01*
X118936520Y-75668220D01*
X118875429Y-75698766D01*
X118844884Y-75729311D01*
X118814339Y-75790401D01*
X118814339Y-75820946D01*
X118844884Y-75882036D01*
X118875429Y-75912582D01*
X118936520Y-75943127D01*
X119058700Y-75943127D01*
X119119791Y-75973672D01*
X119150336Y-76004217D01*
X119180881Y-76065307D01*
X119180881Y-76187488D01*
X119150336Y-76248578D01*
X119119791Y-76279123D01*
X119058700Y-76309668D01*
X118936520Y-76309668D01*
X118875429Y-76279123D01*
X118844884Y-76248578D01*
X118814339Y-76187488D01*
X118814339Y-76065307D01*
X118844884Y-76004217D01*
X118875429Y-75973672D01*
X118936520Y-75943127D01*
X118539433Y-76309668D02*
X118539433Y-75668220D01*
X118295072Y-75668220D01*
X118233981Y-75698766D01*
X118203436Y-75729311D01*
X118172891Y-75790401D01*
X118172891Y-75882036D01*
X118203436Y-75943127D01*
X118233981Y-75973672D01*
X118295072Y-76004217D01*
X118539433Y-76004217D01*
X117897985Y-76065307D02*
X117409263Y-76065307D01*
X117134356Y-76126398D02*
X116828905Y-76126398D01*
X117195447Y-76309668D02*
X116981631Y-75668220D01*
X116767815Y-76309668D01*
X116553999Y-75668220D02*
X116553999Y-76187488D01*
X116523453Y-76248578D01*
X116492908Y-76279123D01*
X116431818Y-76309668D01*
X116309637Y-76309668D01*
X116248547Y-76279123D01*
X116218002Y-76248578D01*
X116187457Y-76187488D01*
X116187457Y-75668220D01*
G04 #@! TD*
M02*
